other-letter-with latin.ufo
<glyph name="dollar" format="1">
  <advance width="643"/>
  <unicode hex="0024"/>
  <outline>
    <contour>
      <point x="521" y="556" type="line"/>
      <point x="512" y="566"/>
      <point x="476" y="590"/>
      <point x="429" y="611"/>
      <point x="373" y="627"/>
      <point x="343" y="629" type="qcurve"/>
      <point x="343" y="417" type="line"/>
      <point x="362" y="413" type="line"/>
      <point x="418" y="399"/>
      <point x="507" y="367"/>
      <point x="568" y="319"/>
      <point x="602" y="251"/>
      <point x="602" y="202" type="qcurve"/>
      <point x="602" y="147"/>
      <point x="563" y="71"/>
      <point x="495" y="19"/>
      <point x="403" y="-6"/>
      <point x="351" y="-7" type="qcurve"/>
      <point x="351" y="-115" type="line"/>
      <point x="298" y="-115" type="line"/>
      <point x="298" y="-5" type="line"/>
      <point x="224" y="0"/>
      <point x="91" y="48"/>
      <point x="36" y="91" type="qcurve"/>
      <point x="88" y="189" type="line"/>
      <point x="99" y="177"/>
      <point x="142" y="148"/>
      <point x="200" y="122"/>
      <point x="268" y="101"/>
      <point x="305" y="97" type="qcurve"/>
      <point x="305" y="309" type="line"/>
      <point x="299" y="311"/>
      <point x="286" y="314"/>
      <point x="280" y="316" type="qcurve"/>
      <point x="225" y="331"/>
      <point x="144" y="362"/>
      <point x="91" y="408"/>
      <point x="63" y="468"/>
      <point x="63" y="511" type="qcurve"/>
      <point x="63" y="561"/>
      <point x="98" y="639"/>
      <point x="162" y="695"/>
      <point x="247" y="727"/>
      <point x="298" y="731" type="qcurve"/>
      <point x="298" y="835" type="line"/>
      <point x="351" y="835" type="line"/>
      <point x="351" y="731" type="line"/>
      <point x="418" y="727"/>
      <point x="530" y="682"/>
      <point x="573" y="650" type="qcurve"/>
    </contour>
    <contour>
      <point x="479" y="189" type="qcurve"/>
      <point x="479" y="234"/>
      <point x="408" y="281"/>
      <point x="343" y="299" type="qcurve"/>
      <point x="343" y="96" type="line"/>
      <point x="409" y="97"/>
      <point x="479" y="144"/>
    </contour>
    <contour>
      <point x="183" y="529" type="qcurve"/>
      <point x="183" y="486"/>
      <point x="244" y="443"/>
      <point x="305" y="427" type="qcurve"/>
      <point x="305" y="629" type="line"/>
      <point x="243" y="626"/>
      <point x="183" y="573"/>
    </contour>
  </outline>
</glyph>
<glyph name="percent" format="1">
  <advance width="851"/>
  <unicode hex="0025"/>
  <outline>
    <contour>
      <point x="199" y="282" type="curve" smooth="yes"/>
      <point x="151" y="282"/>
      <point x="113" y="303"/>
      <point x="88" y="343" type="curve" smooth="yes"/>
      <point x="62" y="384"/>
      <point x="50" y="441"/>
      <point x="50" y="513" type="curve" smooth="yes"/>
      <point x="50" y="663"/>
      <point x="101" y="741"/>
      <point x="199" y="741" type="curve" smooth="yes"/>
      <point x="298" y="741"/>
      <point x="353" y="661"/>
      <point x="353" y="513" type="curve" smooth="yes"/>
      <point x="353" y="361"/>
      <point x="300" y="282"/>
    </contour>
    <contour>
      <point x="199" y="347" type="curve" smooth="yes"/>
      <point x="254" y="347"/>
      <point x="281" y="402"/>
      <point x="281" y="513" type="curve" smooth="yes"/>
      <point x="281" y="623"/>
      <point x="254" y="678"/>
      <point x="199" y="678" type="curve" smooth="yes"/>
      <point x="145" y="678"/>
      <point x="122" y="622"/>
      <point x="122" y="513" type="curve" smooth="yes"/>
      <point x="122" y="403"/>
      <point x="145" y="347"/>
    </contour>
    <contour>
      <point x="667" y="731" type="line"/>
      <point x="262" y="0" type="line"/>
      <point x="183" y="0" type="line"/>
      <point x="589" y="731" type="line"/>
    </contour>
    <contour>
      <point x="647" y="-10" type="curve" smooth="yes"/>
      <point x="551" y="-10"/>
      <point x="497" y="74"/>
      <point x="497" y="220" type="curve" smooth="yes"/>
      <point x="497" y="372"/>
      <point x="547" y="448"/>
      <point x="647" y="448" type="curve" smooth="yes"/>
      <point x="745" y="448"/>
      <point x="801" y="366"/>
      <point x="801" y="220" type="curve" smooth="yes"/>
      <point x="801" y="69"/>
      <point x="748" y="-10"/>
    </contour>
    <contour>
      <point x="647" y="54" type="curve" smooth="yes"/>
      <point x="702" y="54"/>
      <point x="729" y="108"/>
      <point x="729" y="220" type="curve" smooth="yes"/>
      <point x="729" y="329"/>
      <point x="701" y="384"/>
      <point x="647" y="384" type="curve" smooth="yes"/>
      <point x="593" y="384"/>
      <point x="569" y="329"/>
      <point x="569" y="220" type="curve" smooth="yes"/>
      <point x="569" y="109"/>
      <point x="593" y="54"/>
    </contour>
  </outline>
</glyph>
<glyph name="ampersand" format="1">
  <advance width="713"/>
  <unicode hex="0026"/>
  <outline>
    <contour>
      <point x="561" y="0" type="line"/>
      <point x="495" y="70" type="line"/>
      <point x="450" y="31"/>
      <point x="342" y="-10"/>
      <point x="284" y="-10" type="qcurve"/>
      <point x="230" y="-10"/>
      <point x="142" y="23"/>
      <point x="79" y="79"/>
      <point x="44" y="156"/>
      <point x="44" y="199" type="qcurve"/>
      <point x="44" y="233"/>
      <point x="66" y="293"/>
      <point x="102" y="344"/>
      <point x="152" y="387"/>
      <point x="178" y="406" type="qcurve"/>
      <point x="155" y="431"/>
      <point x="123" y="474"/>
      <point x="103" y="512"/>
      <point x="94" y="548"/>
      <point x="94" y="567" type="qcurve"/>
      <point x="94" y="604"/>
      <point x="124" y="667"/>
      <point x="175" y="712"/>
      <point x="246" y="736"/>
      <point x="287" y="736" type="qcurve"/>
      <point x="324" y="736"/>
      <point x="391" y="716"/>
      <point x="442" y="677"/>
      <point x="472" y="618"/>
      <point x="472" y="582" type="qcurve"/>
      <point x="472" y="551"/>
      <point x="451" y="500"/>
      <point x="414" y="454"/>
      <point x="364" y="412"/>
      <point x="335" y="392" type="qcurve"/>
      <point x="499" y="220" type="line"/>
      <point x="516" y="256"/>
      <point x="536" y="339"/>
      <point x="536" y="386" type="qcurve"/>
      <point x="628" y="386" type="line"/>
      <point x="627" y="316"/>
      <point x="594" y="199"/>
      <point x="564" y="152" type="qcurve"/>
      <point x="710" y="0" type="line"/>
    </contour>
    <contour>
      <point x="296" y="79" type="qcurve"/>
      <point x="334" y="79"/>
      <point x="404" y="108"/>
      <point x="434" y="134" type="qcurve"/>
      <point x="246" y="334" type="line"/>
      <point x="204" y="304"/>
      <point x="153" y="239"/>
      <point x="153" y="198" type="qcurve"/>
      <point x="153" y="171"/>
      <point x="175" y="127"/>
      <point x="215" y="96"/>
      <point x="266" y="79"/>
    </contour>
    <contour>
      <point x="198" y="570" type="qcurve"/>
      <point x="198" y="560"/>
      <point x="204" y="541"/>
      <point x="219" y="516"/>
      <point x="247" y="485"/>
      <point x="267" y="463" type="qcurve"/>
      <point x="314" y="493"/>
      <point x="369" y="547"/>
      <point x="369" y="580" type="qcurve"/>
      <point x="369" y="612"/>
      <point x="323" y="652"/>
      <point x="287" y="652" type="qcurve"/>
      <point x="248" y="652"/>
      <point x="198" y="604"/>
    </contour>
  </outline>
</glyph>
<glyph name="quotesingle" format="1">
  <advance width="227"/>
  <unicode hex="0027"/>
  <outline>
    <contour>
      <point x="66" y="512" type="line"/>
      <point x="66" y="738" type="line"/>
      <point x="162" y="738" type="line"/>
      <point x="162" y="512" type="line"/>
    </contour>
  </outline>
</glyph>
<glyph name="parenleft" format="1">
  <advance width="303"/>
  <unicode hex="0028"/>
  <outline>
    <contour>
      <point x="39" y="354" type="qcurve"/>
      <point x="39" y="407"/>
      <point x="62" y="509"/>
      <point x="102" y="612"/>
      <point x="157" y="716"/>
      <point x="187" y="768" type="qcurve"/>
      <point x="274" y="731" type="line"/>
      <point x="256" y="705"/>
      <point x="211" y="617"/>
      <point x="171" y="514"/>
      <point x="144" y="402"/>
      <point x="144" y="351" type="qcurve"/>
      <point x="144" y="270"/>
      <point x="213" y="88"/>
      <point x="271" y="-6" type="qcurve"/>
      <point x="189" y="-48" type="line"/>
      <point x="125" y="48"/>
      <point x="39" y="252"/>
    </contour>
  </outline>
</glyph>
<glyph name="parenright" format="1">
  <advance width="303"/>
  <unicode hex="0029"/>
  <outline>
    <contour>
      <point x="263" y="354" type="qcurve"/>
      <point x="263" y="252"/>
      <point x="178" y="48"/>
      <point x="114" y="-48" type="qcurve"/>
      <point x="31" y="-6" type="line"/>
      <point x="89" y="88"/>
      <point x="159" y="270"/>
      <point x="159" y="351" type="qcurve"/>
      <point x="159" y="402"/>
      <point x="131" y="514"/>
      <point x="91" y="617"/>
      <point x="46" y="705"/>
      <point x="29" y="731" type="qcurve"/>
      <point x="115" y="768" type="line"/>
      <point x="145" y="716"/>
      <point x="200" y="612"/>
      <point x="240" y="509"/>
      <point x="263" y="407"/>
    </contour>
  </outline>
</glyph>
<glyph name="asterisk" format="1">
  <advance width="345"/>
  <unicode hex="002A"/>
  <outline>
    <contour>
      <point x="82" y="543" type="line"/>
      <point x="128" y="611" type="line"/>
      <point x="56" y="634" type="line"/>
      <point x="73" y="685" type="line"/>
      <point x="145" y="655" type="line"/>
      <point x="141" y="733" type="line"/>
      <point x="204" y="733" type="line"/>
      <point x="200" y="655" type="line"/>
      <point x="272" y="685" type="line"/>
      <point x="288" y="634" type="line"/>
      <point x="217" y="611" type="line"/>
      <point x="263" y="543" type="line"/>
      <point x="218" y="512" type="line"/>
      <point x="173" y="585" type="line"/>
      <point x="127" y="512" type="line"/>
    </contour>
  </outline>
</glyph>
<glyph name="hyphen" format="1">
  <advance width="431"/>
  <unicode hex="002D"/>
  <outline>
    <contour>
      <point x="62" y="229" type="line"/>
      <point x="62" y="331" type="line"/>
      <point x="369" y="331" type="line"/>
      <point x="369" y="229" type="line"/>
    </contour>
  </outline>
</glyph>
<glyph name="zero" format="1">
  <advance width="629"/>
  <unicode hex="0030"/>
  <outline>
    <contour>
      <point x="577" y="300" type="qcurve"/>
      <point x="577" y="232"/>
      <point x="537" y="119"/>
      <point x="466" y="36"/>
      <point x="371" y="-10"/>
      <point x="314" y="-10" type="qcurve"/>
      <point x="258" y="-10"/>
      <point x="162" y="36"/>
      <point x="92" y="119"/>
      <point x="52" y="232"/>
      <point x="52" y="300" type="qcurve"/>
      <point x="52" y="368"/>
      <point x="92" y="481"/>
      <point x="162" y="564"/>
      <point x="258" y="611"/>
      <point x="314" y="611" type="qcurve"/>
      <point x="371" y="611"/>
      <point x="466" y="564"/>
      <point x="537" y="481"/>
      <point x="577" y="368"/>
    </contour>
    <contour>
      <point x="462" y="300" type="qcurve"/>
      <point x="462" y="346"/>
      <point x="440" y="422"/>
      <point x="400" y="477"/>
      <point x="346" y="507"/>
      <point x="314" y="507" type="qcurve"/>
      <point x="281" y="507"/>
      <point x="226" y="477"/>
      <point x="186" y="422"/>
      <point x="165" y="346"/>
      <point x="165" y="300" type="qcurve"/>
      <point x="165" y="254"/>
      <point x="186" y="178"/>
      <point x="226" y="124"/>
      <point x="281" y="94"/>
      <point x="314" y="94" type="qcurve"/>
      <point x="346" y="94"/>
      <point x="400" y="124"/>
      <point x="440" y="178"/>
      <point x="462" y="254"/>
    </contour>
  </outline>
</glyph>
<glyph name="two" format="1">
  <advance width="562"/>
  <unicode hex="0032"/>
  <outline>
    <contour>
      <point x="41" y="0" type="line"/>
      <point x="41" y="43"/>
      <point x="55" y="117"/>
      <point x="92" y="181"/>
      <point x="156" y="240"/>
      <point x="206" y="267" type="qcurve"/>
      <point x="242" y="287"/>
      <point x="305" y="319"/>
      <point x="353" y="351"/>
      <point x="382" y="387"/>
      <point x="382" y="411" type="qcurve"/>
      <point x="382" y="443"/>
      <point x="326" y="496"/>
      <point x="272" y="496" type="qcurve"/>
      <point x="245" y="496"/>
      <point x="199" y="480"/>
      <point x="161" y="457"/>
      <point x="132" y="428"/>
      <point x="121" y="415" type="qcurve"/>
      <point x="49" y="498" type="line"/>
      <point x="59" y="509"/>
      <point x="103" y="543"/>
      <point x="166" y="573"/>
      <point x="246" y="595"/>
      <point x="293" y="595" type="qcurve"/>
      <point x="342" y="595"/>
      <point x="421" y="569"/>
      <point x="475" y="524"/>
      <point x="504" y="462"/>
      <point x="504" y="426" type="qcurve"/>
      <point x="504" y="388"/>
      <point x="473" y="329"/>
      <point x="428" y="284"/>
      <point x="375" y="252"/>
      <point x="352" y="241" type="qcurve"/>
      <point x="331" y="230"/>
      <point x="276" y="203"/>
      <point x="225" y="167"/>
      <point x="184" y="126"/>
      <point x="176" y="101" type="qcurve"/>
      <point x="515" y="101" type="line"/>
      <point x="515" y="0" type="line"/>
    </contour>
  </outline>
</glyph>
<glyph name="five" format="1">
  <advance width="564"/>
  <unicode hex="0035"/>
  <outline>
    <contour>
      <point x="292" y="325" type="qcurve"/>
      <point x="343" y="325"/>
      <point x="430" y="290"/>
      <point x="495" y="228"/>
      <point x="530" y="142"/>
      <point x="530" y="91" type="qcurve"/>
      <point x="530" y="37"/>
      <point x="490" y="-53"/>
      <point x="420" y="-118"/>
      <point x="324" y="-153"/>
      <point x="268" y="-153" type="qcurve"/>
      <point x="189" y="-153"/>
      <point x="65" y="-82"/>
      <point x="32" y="-22" type="qcurve"/>
      <point x="99" y="43" type="line"/>
      <point x="128" y="0"/>
      <point x="218" y="-53"/>
      <point x="269" y="-53" type="qcurve"/>
      <point x="333" y="-53"/>
      <point x="415" y="25"/>
      <point x="415" y="89" type="qcurve"/>
      <point x="415" y="120"/>
      <point x="393" y="170"/>
      <point x="356" y="206"/>
      <point x="306" y="226"/>
      <point x="276" y="226" type="qcurve"/>
      <point x="238" y="226"/>
      <point x="170" y="193"/>
      <point x="148" y="160" type="qcurve"/>
      <point x="49" y="160" type="line"/>
      <point x="50" y="164"/>
      <point x="57" y="205"/>
      <point x="70" y="266"/>
      <point x="84" y="342"/>
      <point x="92" y="381" type="qcurve"/>
      <point x="111" y="472"/>
      <point x="132" y="585" type="qcurve"/>
      <point x="487" y="585" type="line"/>
      <point x="487" y="481" type="line"/>
      <point x="214" y="481" type="line"/>
      <point x="177" y="283" type="line"/>
      <point x="195" y="302"/>
      <point x="253" y="325"/>
    </contour>
  </outline>
</glyph>
<glyph name="seven" format="1">
  <advance width="561"/>
  <unicode hex="0037"/>
  <outline>
    <contour>
      <point x="381" y="494" type="line"/>
      <point x="29" y="494" type="line"/>
      <point x="29" y="597" type="line"/>
      <point x="559" y="597" type="line"/>
      <point x="196" y="-130" type="line"/>
      <point x="68" y="-130" type="line"/>
    </contour>
  </outline>
</glyph>
<glyph name="colon" format="1">
  <advance width="228"/>
  <unicode hex="003A"/>
  <outline>
    <contour>
      <point x="68" y="400" type="line"/>
      <point x="68" y="530" type="line"/>
      <point x="161" y="530" type="line"/>
      <point x="161" y="400" type="line"/>
    </contour>
    <contour>
      <point x="68" y="0" type="line"/>
      <point x="68" y="131" type="line"/>
      <point x="161" y="131" type="line"/>
      <point x="161" y="0" type="line"/>
    </contour>
  </outline>
</glyph>
<glyph name="equal" format="1">
  <advance width="449"/>
  <unicode hex="003D"/>
  <outline>
    <contour>
      <point x="66" y="166" type="line"/>
      <point x="66" y="241" type="line"/>
      <point x="382" y="241" type="line"/>
      <point x="382" y="166" type="line"/>
    </contour>
    <contour>
      <point x="66" y="325" type="line"/>
      <point x="66" y="399" type="line"/>
      <point x="382" y="399" type="line"/>
      <point x="382" y="325" type="line"/>
    </contour>
  </outline>
</glyph>
<glyph name="question" format="1">
  <advance width="494"/>
  <unicode hex="003F"/>
  <outline>
    <contour>
      <point x="136" y="226" type="line"/>
      <point x="136" y="280"/>
      <point x="172" y="361"/>
      <point x="221" y="391" type="qcurve"/>
      <point x="239" y="401"/>
      <point x="286" y="427"/>
      <point x="329" y="462"/>
      <point x="358" y="509"/>
      <point x="358" y="541" type="qcurve"/>
      <point x="358" y="565"/>
      <point x="339" y="604"/>
      <point x="308" y="631"/>
      <point x="267" y="644"/>
      <point x="246" y="644" type="qcurve"/>
      <point x="221" y="644"/>
      <point x="180" y="629"/>
      <point x="145" y="603"/>
      <point x="118" y="570"/>
      <point x="109" y="554" type="qcurve"/>
      <point x="35" y="604" type="line"/>
      <point x="62" y="668"/>
      <point x="179" y="736"/>
      <point x="249" y="736" type="qcurve"/>
      <point x="287" y="736"/>
      <point x="361" y="713"/>
      <point x="421" y="665"/>
      <point x="457" y="589"/>
      <point x="457" y="537" type="qcurve"/>
      <point x="457" y="501"/>
      <point x="438" y="449"/>
      <point x="407" y="407"/>
      <point x="362" y="375"/>
      <point x="338" y="361" type="qcurve"/>
      <point x="317" y="350"/>
      <point x="279" y="327"/>
      <point x="249" y="296"/>
      <point x="230" y="255"/>
      <point x="230" y="226" type="qcurve"/>
    </contour>
    <contour>
      <point x="136" y="0" type="line"/>
      <point x="136" y="129" type="line"/>
      <point x="230" y="129" type="line"/>
      <point x="230" y="0" type="line"/>
    </contour>
  </outline>
</glyph>
<glyph name="D" format="1">
  <advance width="733"/>
  <unicode hex="0044"/>
  <outline>
    <contour>
      <point x="343" y="725" type="move" name="top"/>
    </contour>
    <contour>
      <point x="82" y="0" type="line"/>
      <point x="82" y="727" type="line"/>
      <point x="340" y="727" type="line"/>
      <point x="428" y="727"/>
      <point x="560" y="670"/>
      <point x="649" y="571"/>
      <point x="694" y="439"/>
      <point x="694" y="365" type="qcurve"/>
      <point x="694" y="282"/>
      <point x="644" y="147"/>
      <point x="552" y="52"/>
      <point x="421" y="0"/>
      <point x="340" y="0" type="qcurve"/>
    </contour>
    <contour>
      <point x="578" y="365" type="qcurve"/>
      <point x="578" y="422"/>
      <point x="546" y="518"/>
      <point x="484" y="587"/>
      <point x="396" y="626"/>
      <point x="340" y="626" type="qcurve"/>
      <point x="197" y="626" type="line"/>
      <point x="197" y="101" type="line"/>
      <point x="340" y="101" type="line"/>
      <point x="397" y="101"/>
      <point x="486" y="141"/>
      <point x="547" y="212"/>
      <point x="578" y="308"/>
    </contour>
  </outline>
</glyph>
<glyph name="E" format="1">
  <advance width="617"/>
  <unicode hex="0045"/>
  <outline>
    <contour>
      <point x="338" y="725" type="move" name="top"/>
    </contour>
    <contour>
      <point x="338" y="0" type="move" name="bottom"/>
    </contour>
    <contour>
      <point x="581" y="101" type="line"/>
      <point x="581" y="0" type="line"/>
      <point x="82" y="0" type="line"/>
      <point x="82" y="727" type="line"/>
      <point x="571" y="727" type="line"/>
      <point x="571" y="626" type="line"/>
      <point x="197" y="626" type="line"/>
      <point x="197" y="419" type="line"/>
      <point x="521" y="419" type="line"/>
      <point x="521" y="324" type="line"/>
      <point x="197" y="324" type="line"/>
      <point x="197" y="101" type="line"/>
    </contour>
  </outline>
</glyph>
<glyph name="H" format="1">
  <advance width="761"/>
  <unicode hex="0048"/>
  <outline>
    <contour>
      <point x="383" y="725" type="move" name="top"/>
    </contour>
    <contour>
      <point x="679" y="727" type="line"/>
      <point x="679" y="0" type="line"/>
      <point x="563" y="0" type="line"/>
      <point x="563" y="321" type="line"/>
      <point x="197" y="321" type="line"/>
      <point x="197" y="0" type="line"/>
      <point x="82" y="0" type="line"/>
      <point x="82" y="727" type="line"/>
      <point x="197" y="727" type="line"/>
      <point x="197" y="423" type="line"/>
      <point x="563" y="423" type="line"/>
      <point x="563" y="727" type="line"/>
    </contour>
  </outline>
</glyph>
<glyph name="I" format="1">
  <advance width="279"/>
  <unicode hex="0049"/>
  <outline>
    <contour>
      <point x="139" y="725" type="move" name="top"/>
    </contour>
    <contour>
      <point x="139" y="0" type="move" name="bottom"/>
    </contour>
    <contour>
      <point x="82" y="0" type="line"/>
      <point x="82" y="727" type="line"/>
      <point x="197" y="727" type="line"/>
      <point x="197" y="0" type="line"/>
    </contour>
  </outline>
</glyph>
<glyph name="O" format="1">
  <advance width="770"/>
  <unicode hex="004F"/>
  <outline>
    <contour>
      <point x="386" y="725" type="move" name="top"/>
    </contour>
    <contour>
      <point x="384" y="0" type="move" name="bottom"/>
    </contour>
    <contour>
      <point x="384" y="-5" type="qcurve"/>
      <point x="306" y="-5"/>
      <point x="178" y="57"/>
      <point x="86" y="161"/>
      <point x="36" y="294"/>
      <point x="36" y="364" type="qcurve"/>
      <point x="36" y="436"/>
      <point x="89" y="569"/>
      <point x="182" y="672"/>
      <point x="310" y="732"/>
      <point x="386" y="732" type="qcurve"/>
      <point x="464" y="732"/>
      <point x="592" y="668"/>
      <point x="683" y="563"/>
      <point x="733" y="431"/>
      <point x="733" y="362" type="qcurve"/>
      <point x="733" y="290"/>
      <point x="681" y="157"/>
      <point x="587" y="55"/>
      <point x="459" y="-5"/>
    </contour>
    <contour>
      <point x="153" y="364" type="qcurve"/>
      <point x="153" y="312"/>
      <point x="185" y="216"/>
      <point x="246" y="142"/>
      <point x="332" y="98"/>
      <point x="385" y="98" type="qcurve"/>
      <point x="440" y="98"/>
      <point x="525" y="144"/>
      <point x="585" y="220"/>
      <point x="615" y="314"/>
      <point x="615" y="364" type="qcurve"/>
      <point x="615" y="416"/>
      <point x="583" y="511"/>
      <point x="522" y="584"/>
      <point x="437" y="628"/>
      <point x="385" y="628" type="qcurve"/>
      <point x="330" y="628"/>
      <point x="244" y="582"/>
      <point x="184" y="508"/>
      <point x="153" y="413"/>
    </contour>
  </outline>
</glyph>
<glyph name="Q" format="1">
  <advance width="768"/>
  <unicode hex="0051"/>
  <outline>
    <contour>
      <point x="573" y="53" type="line"/>
      <point x="532" y="26"/>
      <point x="437" y="-5"/>
      <point x="384" y="-5" type="qcurve"/>
      <point x="306" y="-5"/>
      <point x="178" y="58"/>
      <point x="86" y="161"/>
      <point x="36" y="294"/>
      <point x="36" y="364" type="qcurve"/>
      <point x="36" y="436"/>
      <point x="89" y="569"/>
      <point x="182" y="672"/>
      <point x="310" y="732"/>
      <point x="386" y="732" type="qcurve"/>
      <point x="464" y="732"/>
      <point x="592" y="668"/>
      <point x="683" y="563"/>
      <point x="733" y="431"/>
      <point x="733" y="362" type="qcurve"/>
      <point x="733" y="290"/>
      <point x="682" y="160"/>
      <point x="636" y="109" type="qcurve"/>
      <point x="731" y="0" type="line"/>
      <point x="621" y="0" type="line"/>
    </contour>
    <contour>
      <point x="385" y="98" type="qcurve"/>
      <point x="419" y="98"/>
      <point x="478" y="117"/>
      <point x="503" y="133" type="qcurve"/>
      <point x="399" y="253" type="line"/>
      <point x="510" y="253" type="line"/>
      <point x="562" y="193" type="line"/>
      <point x="589" y="228"/>
      <point x="615" y="317"/>
      <point x="615" y="364" type="qcurve"/>
      <point x="615" y="416"/>
      <point x="583" y="511"/>
      <point x="522" y="585"/>
      <point x="437" y="629"/>
      <point x="385" y="629" type="qcurve"/>
      <point x="330" y="629"/>
      <point x="244" y="583"/>
      <point x="184" y="508"/>
      <point x="153" y="413"/>
      <point x="153" y="364" type="qcurve"/>
      <point x="153" y="312"/>
      <point x="185" y="216"/>
      <point x="246" y="142"/>
      <point x="332" y="98"/>
    </contour>
  </outline>
</glyph>
<glyph name="R" format="1">
  <advance width="677"/>
  <unicode hex="0052"/>
  <outline>
    <contour>
      <point x="326" y="727" type="move" name="top"/>
    </contour>
    <contour>
      <point x="345" y="0" type="move" name="bottom"/>
    </contour>
    <contour>
      <point x="82" y="0" type="line"/>
      <point x="82" y="727" type="line"/>
      <point x="398" y="727" type="line"/>
      <point x="447" y="727"/>
      <point x="530" y="686"/>
      <point x="590" y="620"/>
      <point x="624" y="535"/>
      <point x="624" y="490" type="qcurve"/>
      <point x="624" y="454"/>
      <point x="603" y="386"/>
      <point x="566" y="329"/>
      <point x="513" y="287"/>
      <point x="481" y="276" type="qcurve"/>
      <point x="652" y="0" type="line"/>
      <point x="522" y="0" type="line"/>
      <point x="365" y="253" type="line"/>
      <point x="197" y="253" type="line"/>
      <point x="197" y="0" type="line"/>
    </contour>
    <contour>
      <point x="197" y="354" type="line"/>
      <point x="397" y="354" type="line"/>
      <point x="422" y="354"/>
      <point x="462" y="376"/>
      <point x="490" y="414"/>
      <point x="507" y="463"/>
      <point x="507" y="490" type="qcurve"/>
      <point x="507" y="518"/>
      <point x="487" y="567"/>
      <point x="456" y="604"/>
      <point x="414" y="626"/>
      <point x="391" y="626" type="qcurve"/>
      <point x="197" y="626" type="line"/>
    </contour>
  </outline>
</glyph>
<glyph name="S" format="1">
  <advance width="626"/>
  <unicode hex="0053"/>
  <outline>
    <contour>
      <point x="326" y="736" type="move" name="top"/>
    </contour>
    <contour>
      <point x="326" y="0" type="move" name="bottom"/>
    </contour>
    <contour>
      <point x="512" y="556" type="line"/>
      <point x="502" y="567"/>
      <point x="463" y="593"/>
      <point x="411" y="615"/>
      <point x="348" y="630"/>
      <point x="315" y="630" type="qcurve"/>
      <point x="243" y="630"/>
      <point x="174" y="577"/>
      <point x="174" y="529" type="qcurve"/>
      <point x="174" y="503"/>
      <point x="196" y="469"/>
      <point x="241" y="443"/>
      <point x="308" y="424"/>
      <point x="353" y="413" type="qcurve"/>
      <point x="409" y="399"/>
      <point x="498" y="367"/>
      <point x="559" y="319"/>
      <point x="593" y="251"/>
      <point x="593" y="202" type="qcurve"/>
      <point x="593" y="146"/>
      <point x="551" y="67"/>
      <point x="478" y="16"/>
      <point x="382" y="-7"/>
      <point x="327" y="-7" type="qcurve"/>
      <point x="244" y="-7"/>
      <point x="89" y="43"/>
      <point x="27" y="91" type="qcurve"/>
      <point x="79" y="189" type="line"/>
      <point x="92" y="176"/>
      <point x="142" y="143"/>
      <point x="209" y="116"/>
      <point x="287" y="96"/>
      <point x="329" y="96" type="qcurve"/>
      <point x="396" y="96"/>
      <point x="470" y="143"/>
      <point x="470" y="189" type="qcurve"/>
      <point x="470" y="217"/>
      <point x="442" y="254"/>
      <point x="391" y="282"/>
      <point x="317" y="304"/>
      <point x="270" y="316" type="qcurve"/>
      <point x="216" y="331"/>
      <point x="135" y="362"/>
      <point x="82" y="408"/>
      <point x="54" y="468"/>
      <point x="54" y="511" type="qcurve"/>
      <point x="54" y="564"/>
      <point x="95" y="647"/>
      <point x="166" y="703"/>
      <point x="262" y="732"/>
      <point x="318" y="732" type="qcurve"/>
      <point x="392" y="732"/>
      <point x="517" y="685"/>
      <point x="564" y="650" type="qcurve"/>
    </contour>
  </outline>
</glyph>
<glyph name="U" format="1">
  <advance width="770"/>
  <unicode hex="0055"/>
  <outline>
    <contour>
      <point x="385" y="725" type="move" name="top"/>
    </contour>
    <contour>
      <point x="385" y="0" type="move" name="bottom"/>
    </contour>
    <contour>
      <point x="385" y="98" type="qcurve"/>
      <point x="442" y="98"/>
      <point x="518" y="143"/>
      <point x="564" y="216"/>
      <point x="584" y="309"/>
      <point x="584" y="358" type="qcurve"/>
      <point x="584" y="727" type="line"/>
      <point x="699" y="727" type="line"/>
      <point x="699" y="358" type="line"/>
      <point x="699" y="284"/>
      <point x="665" y="152"/>
      <point x="589" y="52"/>
      <point x="469" y="-5"/>
      <point x="385" y="-5" type="qcurve"/>
      <point x="298" y="-5"/>
      <point x="178" y="55"/>
      <point x="104" y="157"/>
      <point x="72" y="288"/>
      <point x="72" y="358" type="qcurve"/>
      <point x="72" y="727" type="line"/>
      <point x="186" y="727" type="line"/>
      <point x="186" y="358" type="line"/>
      <point x="186" y="308"/>
      <point x="206" y="215"/>
      <point x="252" y="142"/>
      <point x="329" y="98"/>
    </contour>
  </outline>
</glyph>
<glyph name="V" format="1">
  <advance width="694"/>
  <unicode hex="0056"/>
  <outline>
    <contour>
      <point x="128" y="727" type="line"/>
      <point x="347" y="144" type="line"/>
      <point x="565" y="727" type="line"/>
      <point x="687" y="727" type="line"/>
      <point x="396" y="0" type="line"/>
      <point x="298" y="0" type="line"/>
      <point x="6" y="727" type="line"/>
    </contour>
  </outline>
</glyph>
<glyph name="W" format="1">
  <advance width="1076"/>
  <unicode hex="0057"/>
  <outline>
    <contour>
      <point x="538" y="725" type="move" name="top"/>
    </contour>
    <contour>
      <point x="340" y="724" type="line"/>
      <point x="449" y="724" type="line"/>
      <point x="538" y="477" type="line"/>
      <point x="628" y="724" type="line"/>
      <point x="735" y="724" type="line"/>
      <point x="611" y="400" type="line"/>
      <point x="720" y="133" type="line"/>
      <point x="946" y="727" type="line"/>
      <point x="1072" y="727" type="line"/>
      <point x="772" y="0" type="line"/>
      <point x="674" y="0" type="line"/>
      <point x="539" y="326" type="line"/>
      <point x="402" y="0" type="line"/>
      <point x="304" y="0" type="line"/>
      <point x="4" y="727" type="line"/>
      <point x="129" y="727" type="line"/>
      <point x="356" y="133" type="line"/>
      <point x="465" y="400" type="line"/>
    </contour>
  </outline>
</glyph>
<glyph name="X" format="1">
  <advance width="656"/>
  <unicode hex="0058"/>
  <outline>
    <contour>
      <point x="127" y="727" type="line"/>
      <point x="329" y="440" type="line"/>
      <point x="530" y="727" type="line"/>
      <point x="656" y="727" type="line"/>
      <point x="390" y="358" type="line"/>
      <point x="648" y="0" type="line"/>
      <point x="522" y="0" type="line"/>
      <point x="329" y="276" type="line"/>
      <point x="135" y="0" type="line"/>
      <point x="8" y="0" type="line"/>
      <point x="267" y="358" type="line"/>
      <point x="0" y="727" type="line"/>
    </contour>
  </outline>
</glyph>
<glyph name="Y" format="1">
  <advance width="673"/>
  <unicode hex="0059"/>
  <outline>
    <contour>
      <point x="336" y="725" type="move" name="top"/>
    </contour>
    <contour>
      <point x="135" y="727" type="line"/>
      <point x="336" y="362" type="line"/>
      <point x="539" y="727" type="line"/>
      <point x="665" y="727" type="line"/>
      <point x="393" y="260" type="line"/>
      <point x="393" y="0" type="line"/>
      <point x="279" y="0" type="line"/>
      <point x="279" y="262" type="line"/>
      <point x="9" y="727" type="line"/>
    </contour>
  </outline>
</glyph>
<glyph name="underscore" format="1">
  <advance width="502"/>
  <unicode hex="005F"/>
  <outline>
    <contour>
      <point x="60" y="-101" type="line"/>
      <point x="60" y="0" type="line"/>
      <point x="441" y="0" type="line"/>
      <point x="441" y="-101" type="line"/>
    </contour>
  </outline>
</glyph>
<glyph name="b" format="1">
  <advance width="643"/>
  <unicode hex="0062"/>
  <outline>
    <contour>
      <point x="356" y="-10" type="qcurve"/>
      <point x="295" y="-10"/>
      <point x="196" y="48"/>
      <point x="167" y="97" type="qcurve"/>
      <point x="167" y="0" type="line"/>
      <point x="68" y="0" type="line"/>
      <point x="68" y="748" type="line"/>
      <point x="180" y="748" type="line"/>
      <point x="180" y="434" type="line"/>
      <point x="212" y="485"/>
      <point x="307" y="545"/>
      <point x="372" y="545" type="qcurve"/>
      <point x="425" y="545"/>
      <point x="513" y="499"/>
      <point x="575" y="422"/>
      <point x="609" y="321"/>
      <point x="609" y="265" type="qcurve"/>
      <point x="609" y="208"/>
      <point x="570" y="108"/>
      <point x="503" y="33"/>
      <point x="410" y="-10"/>
    </contour>
    <contour>
      <point x="327" y="86" type="qcurve"/>
      <point x="364" y="86"/>
      <point x="425" y="116"/>
      <point x="469" y="165"/>
      <point x="494" y="229"/>
      <point x="494" y="265" type="qcurve"/>
      <point x="494" y="301"/>
      <point x="470" y="368"/>
      <point x="428" y="418"/>
      <point x="370" y="449"/>
      <point x="335" y="449" type="qcurve"/>
      <point x="283" y="449"/>
      <point x="202" y="381"/>
      <point x="180" y="333" type="qcurve"/>
      <point x="180" y="191" type="line"/>
      <point x="186" y="168"/>
      <point x="217" y="130"/>
      <point x="258" y="101"/>
      <point x="305" y="86"/>
    </contour>
  </outline>
</glyph>
<glyph name="c" format="1">
  <advance width="572"/>
  <unicode hex="0063"/>
  <outline>
    <contour>
      <point x="309" y="536" type="move" name="top"/>
    </contour>
    <contour>
      <point x="310" y="0" type="move" name="bottom"/>
    </contour>
    <contour>
      <point x="33" y="268" type="qcurve"/>
      <point x="33" y="325"/>
      <point x="72" y="425"/>
      <point x="144" y="501"/>
      <point x="247" y="545"/>
      <point x="310" y="545" type="qcurve"/>
      <point x="393" y="545"/>
      <point x="513" y="472"/>
      <point x="543" y="412" type="qcurve"/>
      <point x="433" y="377" type="line"/>
      <point x="414" y="411"/>
      <point x="348" y="449"/>
      <point x="308" y="449" type="qcurve"/>
      <point x="274" y="449"/>
      <point x="216" y="422"/>
      <point x="173" y="374"/>
      <point x="148" y="308"/>
      <point x="148" y="268" type="qcurve"/>
      <point x="148" y="229"/>
      <point x="174" y="163"/>
      <point x="218" y="114"/>
      <point x="276" y="86"/>
      <point x="309" y="86" type="qcurve"/>
      <point x="330" y="86"/>
      <point x="371" y="97"/>
      <point x="404" y="118"/>
      <point x="430" y="144"/>
      <point x="436" y="160" type="qcurve"/>
      <point x="547" y="127" type="line"/>
      <point x="520" y="67"/>
      <point x="395" y="-10"/>
      <point x="310" y="-10" type="qcurve"/>
      <point x="248" y="-10"/>
      <point x="145" y="35"/>
      <point x="73" y="112"/>
      <point x="33" y="212"/>
    </contour>
  </outline>
</glyph>
<glyph name="e" format="1">
  <advance width="609"/>
  <unicode hex="0065"/>
  <outline>
    <contour>
      <point x="308" y="536" type="move" name="top"/>
    </contour>
    <contour>
      <point x="309" y="0" type="move" name="bottom"/>
    </contour>
    <contour>
      <point x="310" y="-10" type="qcurve"/>
      <point x="248" y="-10"/>
      <point x="145" y="34"/>
      <point x="73" y="110"/>
      <point x="33" y="210"/>
      <point x="33" y="266" type="qcurve"/>
      <point x="33" y="323"/>
      <point x="73" y="424"/>
      <point x="145" y="501"/>
      <point x="248" y="545"/>
      <point x="311" y="545" type="qcurve"/>
      <point x="374" y="545"/>
      <point x="475" y="500"/>
      <point x="547" y="425"/>
      <point x="585" y="326"/>
      <point x="585" y="271" type="qcurve"/>
      <point x="585" y="259"/>
      <point x="583" y="238"/>
      <point x="582" y="230" type="qcurve"/>
      <point x="153" y="230" type="line"/>
      <point x="156" y="195"/>
      <point x="183" y="137"/>
      <point x="227" y="95"/>
      <point x="284" y="73"/>
      <point x="314" y="73" type="qcurve"/>
      <point x="337" y="73"/>
      <point x="381" y="84"/>
      <point x="418" y="105"/>
      <point x="446" y="136"/>
      <point x="455" y="155" type="qcurve"/>
      <point x="551" y="127" type="line"/>
      <point x="523" y="67"/>
      <point x="395" y="-10"/>
    </contour>
    <contour>
      <point x="473" y="308" type="line"/>
      <point x="470" y="342"/>
      <point x="442" y="399"/>
      <point x="399" y="439"/>
      <point x="342" y="462"/>
      <point x="310" y="462" type="qcurve"/>
      <point x="279" y="462"/>
      <point x="222" y="439"/>
      <point x="179" y="399"/>
      <point x="153" y="342"/>
      <point x="150" y="308" type="qcurve"/>
    </contour>
  </outline>
</glyph>
<glyph name="l" format="1">
  <advance width="308"/>
  <unicode hex="006C"/>
  <outline>
    <contour>
      <point x="289" y="535" type="move" name="top"/>
    </contour>
    <contour>
      <point x="188" y="0" type="move" name="bottom"/>
    </contour>
    <contour>
      <point x="69" y="748" type="line"/>
      <point x="181" y="748" type="line"/>
      <point x="181" y="155" type="line"/>
      <point x="181" y="125"/>
      <point x="212" y="91"/>
      <point x="240" y="91" type="qcurve"/>
      <point x="251" y="91"/>
      <point x="281" y="99"/>
      <point x="294" y="104" type="qcurve"/>
      <point x="310" y="16" type="line"/>
      <point x="286" y="5"/>
      <point x="218" y="-8"/>
      <point x="191" y="-8" type="qcurve"/>
      <point x="133" y="-8"/>
      <point x="69" y="55"/>
      <point x="69" y="114" type="qcurve"/>
    </contour>
  </outline>
</glyph>
<glyph name="m" format="1">
  <advance width="949"/>
  <unicode hex="006D"/>
  <outline>
    <contour>
      <point x="887" y="0" type="line"/>
      <point x="774" y="0" type="line"/>
      <point x="774" y="300" type="line"/>
      <point x="774" y="375"/>
      <point x="725" y="444"/>
      <point x="678" y="444" type="qcurve"/>
      <point x="630" y="444"/>
      <point x="551" y="374"/>
      <point x="534" y="317" type="qcurve"/>
      <point x="534" y="0" type="line"/>
      <point x="421" y="0" type="line"/>
      <point x="421" y="300" type="line"/>
      <point x="421" y="376"/>
      <point x="372" y="444"/>
      <point x="326" y="444" type="qcurve"/>
      <point x="278" y="444"/>
      <point x="198" y="375"/>
      <point x="180" y="318" type="qcurve"/>
      <point x="180" y="0" type="line"/>
      <point x="68" y="0" type="line"/>
      <point x="68" y="536" type="line"/>
      <point x="170" y="536" type="line"/>
      <point x="170" y="428" type="line"/>
      <point x="202" y="484"/>
      <point x="305" y="545"/>
      <point x="372" y="545" type="qcurve"/>
      <point x="438" y="545"/>
      <point x="515" y="475"/>
      <point x="524" y="423" type="qcurve"/>
      <point x="558" y="482"/>
      <point x="660" y="545"/>
      <point x="726" y="545" type="qcurve"/>
      <point x="773" y="545"/>
      <point x="836" y="509"/>
      <point x="872" y="450"/>
      <point x="887" y="371"/>
      <point x="887" y="327" type="qcurve"/>
    </contour>
  </outline>
</glyph>
<glyph name="n" format="1">
  <advance width="611"/>
  <unicode hex="006E"/>
  <outline>
    <contour>
      <point x="316" y="536" type="move" name="top"/>
    </contour>
    <contour>
      <point x="305" y="0" type="move" name="bottom"/>
    </contour>
    <contour>
      <point x="548" y="0" type="line"/>
      <point x="435" y="0" type="line"/>
      <point x="435" y="300" type="line"/>
      <point x="435" y="376"/>
      <point x="387" y="444"/>
      <point x="340" y="444" type="qcurve"/>
      <point x="315" y="444"/>
      <point x="266" y="426"/>
      <point x="223" y="392"/>
      <point x="189" y="346"/>
      <point x="180" y="318" type="qcurve"/>
      <point x="180" y="0" type="line"/>
      <point x="68" y="0" type="line"/>
      <point x="68" y="536" type="line"/>
      <point x="170" y="536" type="line"/>
      <point x="170" y="428" type="line"/>
      <point x="201" y="482"/>
      <point x="317" y="545"/>
      <point x="388" y="545" type="qcurve"/>
      <point x="436" y="545"/>
      <point x="498" y="510"/>
      <point x="534" y="450"/>
      <point x="548" y="371"/>
      <point x="548" y="327" type="qcurve"/>
    </contour>
  </outline>
</glyph>
<glyph name="r" format="1">
  <advance width="383"/>
  <unicode hex="0072"/>
  <outline>
    <contour>
      <point x="226" y="536" type="move" name="top"/>
    </contour>
    <contour>
      <point x="120" y="0" type="move" name="bottom"/>
    </contour>
    <contour>
      <point x="369" y="438" type="line"/>
      <point x="303" y="436"/>
      <point x="202" y="380"/>
      <point x="180" y="328" type="qcurve"/>
      <point x="180" y="0" type="line"/>
      <point x="68" y="0" type="line"/>
      <point x="68" y="536" type="line"/>
      <point x="172" y="536" type="line"/>
      <point x="172" y="416" type="line"/>
      <point x="200" y="471"/>
      <point x="289" y="538"/>
      <point x="340" y="541" type="qcurve"/>
      <point x="350" y="541"/>
      <point x="364" y="541"/>
      <point x="369" y="540" type="qcurve"/>
    </contour>
  </outline>
</glyph>
<glyph name="x" format="1">
  <advance width="535"/>
  <unicode hex="0078"/>
  <outline>
    <contour>
      <point x="127" y="536" type="line"/>
      <point x="258" y="352" type="line"/>
      <point x="267" y="335" type="line"/>
      <point x="276" y="352" type="line"/>
      <point x="407" y="536" type="line"/>
      <point x="524" y="536" type="line"/>
      <point x="329" y="267" type="line"/>
      <point x="526" y="0" type="line"/>
      <point x="409" y="0" type="line"/>
      <point x="276" y="182" type="line"/>
      <point x="267" y="199" type="line"/>
      <point x="258" y="182" type="line"/>
      <point x="126" y="0" type="line"/>
      <point x="8" y="0" type="line"/>
      <point x="206" y="267" type="line"/>
      <point x="10" y="536" type="line"/>
    </contour>
  </outline>
</glyph>
<glyph name="z" format="1">
  <advance width="505"/>
  <unicode hex="007A"/>
  <outline>
    <contour>
      <point x="258" y="536" type="move" name="top"/>
    </contour>
    <contour>
      <point x="29" y="71" type="line"/>
      <point x="350" y="456" type="line"/>
      <point x="40" y="456" type="line"/>
      <point x="40" y="536" type="line"/>
      <point x="469" y="536" type="line"/>
      <point x="469" y="465" type="line"/>
      <point x="150" y="80" type="line"/>
      <point x="472" y="80" type="line"/>
      <point x="472" y="0" type="line"/>
      <point x="29" y="0" type="line"/>
    </contour>
  </outline>
</glyph>
<glyph name="bar" format="1">
  <advance width="262"/>
  <unicode hex="007C"/>
  <outline>
    <contour>
      <point x="83" y="-133" type="line"/>
      <point x="83" y="794" type="line"/>
      <point x="179" y="794" type="line"/>
      <point x="179" y="-133" type="line"/>
    </contour>
  </outline>
</glyph>
<glyph name="asciitilde" format="1">
  <advance width="562"/>
  <unicode hex="007E"/>
  <outline>
    <contour>
      <point x="62" y="238" type="line"/>
      <point x="62" y="245"/>
      <point x="76" y="286"/>
      <point x="106" y="329"/>
      <point x="156" y="362"/>
      <point x="193" y="362" type="qcurve"/>
      <point x="218" y="362"/>
      <point x="263" y="345"/>
      <point x="304" y="324"/>
      <point x="344" y="306"/>
      <point x="367" y="306" type="qcurve"/>
      <point x="387" y="306"/>
      <point x="415" y="322"/>
      <point x="431" y="340"/>
      <point x="437" y="356"/>
      <point x="437" y="358" type="qcurve"/>
      <point x="502" y="358" type="line"/>
      <point x="502" y="354"/>
      <point x="488" y="315"/>
      <point x="457" y="272"/>
      <point x="404" y="238"/>
      <point x="366" y="238" type="qcurve"/>
      <point x="339" y="238"/>
      <point x="293" y="255"/>
      <point x="252" y="276"/>
      <point x="212" y="294"/>
      <point x="191" y="294" type="qcurve"/>
      <point x="171" y="294"/>
      <point x="146" y="276"/>
      <point x="131" y="256"/>
      <point x="126" y="239"/>
      <point x="126" y="238" type="qcurve"/>
    </contour>
  </outline>
</glyph>
<glyph name="exclamdown" format="1">
  <advance width="289"/>
  <unicode hex="00A1"/>
  <outline>
    <contour>
      <point x="201" y="471" type="line"/>
      <point x="201" y="-4" type="line"/>
      <point x="88" y="-4" type="line"/>
      <point x="88" y="471" type="line"/>
    </contour>
    <contour>
      <point x="201" y="730" type="line"/>
      <point x="201" y="590" type="line"/>
      <point x="88" y="590" type="line"/>
      <point x="88" y="730" type="line"/>
    </contour>
  </outline>
</glyph>
<glyph name="currency" format="1">
  <advance width="558"/>
  <unicode hex="00A4"/>
  <outline>
    <contour>
      <point x="169" y="503" type="line"/>
      <point x="191" y="518"/>
      <point x="247" y="536"/>
      <point x="280" y="536" type="qcurve"/>
      <point x="311" y="536"/>
      <point x="366" y="518"/>
      <point x="389" y="503" type="qcurve"/>
      <point x="461" y="575" type="line"/>
      <point x="510" y="527" type="line"/>
      <point x="437" y="456" type="line"/>
      <point x="471" y="408"/>
      <point x="471" y="345" type="qcurve"/>
      <point x="471" y="284"/>
      <point x="436" y="234" type="qcurve"/>
      <point x="510" y="163" type="line"/>
      <point x="466" y="120" type="line"/>
      <point x="391" y="189" type="line"/>
      <point x="369" y="174"/>
      <point x="312" y="156"/>
      <point x="280" y="156" type="qcurve"/>
      <point x="246" y="156"/>
      <point x="189" y="174"/>
      <point x="166" y="189" type="qcurve"/>
      <point x="91" y="120" type="line"/>
      <point x="48" y="163" type="line"/>
      <point x="121" y="236" type="line"/>
      <point x="104" y="259"/>
      <point x="87" y="315"/>
      <point x="87" y="345" type="qcurve"/>
      <point x="87" y="408"/>
      <point x="120" y="455" type="qcurve"/>
      <point x="48" y="527" type="line"/>
      <point x="96" y="575" type="line"/>
    </contour>
    <contour>
      <point x="175" y="344" type="qcurve"/>
      <point x="175" y="319"/>
      <point x="191" y="278"/>
      <point x="219" y="247"/>
      <point x="258" y="229"/>
      <point x="280" y="229" type="qcurve"/>
      <point x="324" y="229"/>
      <point x="384" y="296"/>
      <point x="384" y="346" type="qcurve"/>
      <point x="384" y="396"/>
      <point x="324" y="461"/>
      <point x="280" y="461" type="qcurve"/>
      <point x="236" y="461"/>
      <point x="175" y="395"/>
    </contour>
  </outline>
</glyph>
<glyph name="section" format="1">
  <advance width="537"/>
  <unicode hex="00A7"/>
  <outline>
    <contour>
      <point x="454" y="213" type="qcurve"/>
      <point x="472" y="199"/>
      <point x="494" y="146"/>
      <point x="494" y="108" type="qcurve"/>
      <point x="494" y="55"/>
      <point x="451" y="-20"/>
      <point x="386" y="-68"/>
      <point x="308" y="-90"/>
      <point x="273" y="-90" type="qcurve"/>
      <point x="234" y="-90"/>
      <point x="168" y="-70"/>
      <point x="114" y="-39"/>
      <point x="72" y="-4"/>
      <point x="58" y="11" type="qcurve"/>
      <point x="131" y="81" type="line"/>
      <point x="164" y="47"/>
      <point x="231" y="17"/>
      <point x="268" y="17" type="qcurve"/>
      <point x="289" y="17"/>
      <point x="328" y="29"/>
      <point x="358" y="50"/>
      <point x="377" y="83"/>
      <point x="377" y="103" type="qcurve"/>
      <point x="377" y="125"/>
      <point x="358" y="152"/>
      <point x="330" y="166"/>
      <point x="295" y="172"/>
      <point x="278" y="173" type="qcurve"/>
      <point x="181" y="179"/>
      <point x="70" y="270"/>
      <point x="70" y="349" type="qcurve"/>
      <point x="70" y="379"/>
      <point x="84" y="418"/>
      <point x="92" y="429" type="qcurve"/>
      <point x="75" y="443"/>
      <point x="46" y="504"/>
      <point x="46" y="545" type="qcurve"/>
      <point x="46" y="584"/>
      <point x="80" y="652"/>
      <point x="138" y="702"/>
      <point x="214" y="732"/>
      <point x="256" y="732" type="qcurve"/>
      <point x="299" y="732"/>
      <point x="365" y="710"/>
      <point x="415" y="676"/>
      <point x="451" y="635"/>
      <point x="464" y="616" type="qcurve"/>
      <point x="377" y="575" type="line"/>
      <point x="360" y="604"/>
      <point x="299" y="632"/>
      <point x="263" y="632" type="qcurve"/>
      <point x="243" y="632"/>
      <point x="205" y="620"/>
      <point x="176" y="598"/>
      <point x="160" y="565"/>
      <point x="160" y="546" type="qcurve"/>
      <point x="160" y="501"/>
      <point x="219" y="469"/>
      <point x="263" y="468" type="qcurve"/>
      <point x="301" y="467"/>
      <point x="378" y="450"/>
      <point x="439" y="410"/>
      <point x="478" y="346"/>
      <point x="478" y="300" type="qcurve"/>
      <point x="478" y="270"/>
      <point x="463" y="224"/>
    </contour>
    <contour>
      <point x="179" y="335" type="qcurve"/>
      <point x="179" y="298"/>
      <point x="217" y="266"/>
      <point x="271" y="253"/>
      <point x="329" y="249"/>
      <point x="348" y="242" type="qcurve"/>
      <point x="359" y="250"/>
      <point x="372" y="282"/>
      <point x="372" y="298" type="qcurve"/>
      <point x="372" y="321"/>
      <point x="351" y="350"/>
      <point x="321" y="369"/>
      <point x="284" y="377"/>
      <point x="267" y="377" type="qcurve"/>
      <point x="248" y="377"/>
      <point x="211" y="383"/>
      <point x="200" y="388" type="qcurve"/>
      <point x="190" y="380"/>
      <point x="179" y="350"/>
    </contour>
  </outline>
</glyph>
<glyph name="dieresis" format="1">
  <advance width="421"/>
  <unicode hex="00A8"/>
  <outline>
    <contour>
      <point x="210" y="535" type="move" name="_top"/>
    </contour>
    <contour>
      <point x="73" y="630" type="line"/>
      <point x="73" y="742" type="line"/>
      <point x="167" y="742" type="line"/>
      <point x="167" y="630" type="line"/>
    </contour>
    <contour>
      <point x="254" y="630" type="line"/>
      <point x="254" y="742" type="line"/>
      <point x="348" y="742" type="line"/>
      <point x="348" y="630" type="line"/>
    </contour>
  </outline>
</glyph>
<glyph name="ordfeminine" format="1">
  <advance width="452"/>
  <unicode hex="00AA"/>
  <outline>
    <contour>
      <point x="258" y="531" type="move" name="top"/>
    </contour>
    <contour>
      <point x="456" y="11" type="move" name="bottom"/>
    </contour>
    <contour>
      <point x="167" y="350" type="qcurve"/>
      <point x="140" y="350"/>
      <point x="96" y="368"/>
      <point x="62" y="398"/>
      <point x="44" y="440"/>
      <point x="44" y="465" type="qcurve"/>
      <point x="44" y="490"/>
      <point x="67" y="535"/>
      <point x="108" y="565"/>
      <point x="163" y="583"/>
      <point x="197" y="583" type="qcurve"/>
      <point x="250" y="583"/>
      <point x="289" y="566" type="qcurve"/>
      <point x="289" y="589" type="line"/>
      <point x="289" y="627"/>
      <point x="247" y="669"/>
      <point x="205" y="669" type="qcurve"/>
      <point x="176" y="669"/>
      <point x="121" y="648"/>
      <point x="90" y="628" type="qcurve"/>
      <point x="63" y="682" type="line"/>
      <point x="135" y="729"/>
      <point x="213" y="729" type="qcurve"/>
      <point x="290" y="729"/>
      <point x="375" y="652"/>
      <point x="375" y="579" type="qcurve"/>
      <point x="375" y="458" type="line"/>
      <point x="375" y="432"/>
      <point x="398" y="431" type="qcurve"/>
      <point x="398" y="356" type="line"/>
      <point x="378" y="352"/>
      <point x="360" y="352" type="qcurve"/>
      <point x="335" y="352"/>
      <point x="307" y="375"/>
      <point x="304" y="395" type="qcurve"/>
      <point x="303" y="417" type="line"/>
      <point x="278" y="384"/>
      <point x="207" y="350"/>
    </contour>
    <contour>
      <point x="191" y="414" type="qcurve"/>
      <point x="217" y="414"/>
      <point x="262" y="432"/>
      <point x="275" y="447" type="qcurve"/>
      <point x="289" y="458"/>
      <point x="289" y="474" type="qcurve"/>
      <point x="289" y="518" type="line"/>
      <point x="271" y="526"/>
      <point x="231" y="532"/>
      <point x="212" y="532" type="qcurve"/>
      <point x="173" y="532"/>
      <point x="125" y="499"/>
      <point x="125" y="472" type="qcurve"/>
      <point x="125" y="447"/>
      <point x="163" y="414"/>
    </contour>
  </outline>
</glyph>
<glyph name="logicalnot" format="1">
  <advance width="615"/>
  <unicode hex="00AC"/>
  <outline>
    <contour>
      <point x="546" y="396" type="line"/>
      <point x="546" y="116" type="line"/>
      <point x="450" y="116" type="line"/>
      <point x="450" y="295" type="line"/>
      <point x="65" y="295" type="line"/>
      <point x="65" y="396" type="line"/>
    </contour>
  </outline>
</glyph>
<glyph name="macron" format="1">
  <advance width="421"/>
  <unicode hex="00AF"/>
  <outline>
    <contour>
      <point x="210" y="536" type="move" name="_top"/>
    </contour>
    <contour>
      <point x="59" y="659" type="line"/>
      <point x="59" y="731" type="line"/>
      <point x="362" y="731" type="line"/>
      <point x="362" y="659" type="line"/>
    </contour>
  </outline>
</glyph>
<glyph name="degree" format="1">
  <advance width="285"/>
  <unicode hex="00B0"/>
  <outline>
    <contour>
      <point x="45" y="646" type="qcurve"/>
      <point x="45" y="687"/>
      <point x="100" y="741"/>
      <point x="142" y="741" type="qcurve"/>
      <point x="185" y="741"/>
      <point x="240" y="687"/>
      <point x="240" y="646" type="qcurve"/>
      <point x="240" y="601"/>
      <point x="185" y="546"/>
      <point x="142" y="546" type="qcurve"/>
      <point x="100" y="546"/>
      <point x="45" y="603"/>
    </contour>
    <contour>
      <point x="114" y="673" type="qcurve"/>
      <point x="101" y="658"/>
      <point x="101" y="644" type="qcurve"/>
      <point x="101" y="628"/>
      <point x="114" y="615" type="qcurve"/>
      <point x="124" y="603"/>
      <point x="142" y="603" type="qcurve"/>
      <point x="151" y="603"/>
      <point x="166" y="609"/>
      <point x="171" y="615" type="qcurve"/>
      <point x="183" y="628"/>
      <point x="183" y="644" type="qcurve"/>
      <point x="183" y="658"/>
      <point x="171" y="673" type="qcurve"/>
      <point x="166" y="679"/>
      <point x="151" y="684"/>
      <point x="142" y="684" type="qcurve"/>
      <point x="125" y="684"/>
    </contour>
  </outline>
</glyph>
<glyph name="acute" format="1">
  <advance width="249"/>
  <unicode hex="00B4"/>
  <outline>
    <contour>
      <point x="96" y="536" type="move" name="_top"/>
    </contour>
    <contour>
      <point x="122" y="612" type="line"/>
      <point x="48" y="635" type="line"/>
      <point x="106" y="748" type="line"/>
      <point x="214" y="748" type="line"/>
    </contour>
  </outline>
</glyph>
<glyph name="cedilla" format="1">
  <advance width="317"/>
  <unicode hex="00B8"/>
  <outline>
    <contour>
      <point x="127" y="0" type="move" name="_bottom"/>
    </contour>
    <contour>
      <point x="46" y="-129" type="line"/>
      <point x="58" y="-136"/>
      <point x="110" y="-150"/>
      <point x="136" y="-150" type="qcurve"/>
      <point x="163" y="-150"/>
      <point x="195" y="-133"/>
      <point x="195" y="-115" type="qcurve"/>
      <point x="195" y="-94"/>
      <point x="165" y="-80"/>
      <point x="141" y="-80" type="qcurve"/>
      <point x="120" y="-80"/>
      <point x="73" y="-88"/>
      <point x="59" y="-92" type="qcurve"/>
      <point x="121" y="25" type="line"/>
      <point x="167" y="9" type="line"/>
      <point x="131" y="-46" type="line"/>
      <point x="139" y="-44"/>
      <point x="158" y="-42"/>
      <point x="166" y="-42" type="qcurve"/>
      <point x="202" y="-42"/>
      <point x="250" y="-75"/>
      <point x="250" y="-111" type="qcurve"/>
      <point x="250" y="-147"/>
      <point x="189" y="-194"/>
      <point x="128" y="-194" type="qcurve"/>
      <point x="95" y="-194"/>
      <point x="43" y="-181"/>
      <point x="23" y="-173" type="qcurve"/>
    </contour>
  </outline>
</glyph>
<glyph name="questiondown" format="1">
  <advance width="487"/>
  <unicode hex="00BF"/>
  <outline>
    <contour>
      <point x="353" y="292" type="line"/>
      <point x="353" y="239"/>
      <point x="317" y="157"/>
      <point x="268" y="127" type="qcurve"/>
      <point x="251" y="117"/>
      <point x="204" y="91"/>
      <point x="161" y="56"/>
      <point x="131" y="9"/>
      <point x="131" y="-23" type="qcurve"/>
      <point x="131" y="-47"/>
      <point x="151" y="-86"/>
      <point x="181" y="-113"/>
      <point x="222" y="-126"/>
      <point x="244" y="-126" type="qcurve"/>
      <point x="268" y="-126"/>
      <point x="309" y="-111"/>
      <point x="344" y="-85"/>
      <point x="372" y="-53"/>
      <point x="381" y="-36" type="qcurve"/>
      <point x="455" y="-86" type="line"/>
      <point x="427" y="-150"/>
      <point x="310" y="-218"/>
      <point x="241" y="-218" type="qcurve"/>
      <point x="202" y="-218"/>
      <point x="128" y="-195"/>
      <point x="69" y="-146"/>
      <point x="33" y="-71"/>
      <point x="33" y="-18" type="qcurve"/>
      <point x="33" y="16"/>
      <point x="51" y="70"/>
      <point x="83" y="112"/>
      <point x="127" y="142"/>
      <point x="152" y="157" type="qcurve"/>
      <point x="172" y="168"/>
      <point x="211" y="191"/>
      <point x="241" y="222"/>
      <point x="259" y="263"/>
      <point x="259" y="292" type="qcurve"/>
    </contour>
    <contour>
      <point x="353" y="518" type="line"/>
      <point x="353" y="389" type="line"/>
      <point x="259" y="389" type="line"/>
      <point x="259" y="518" type="line"/>
    </contour>
  </outline>
</glyph>
<glyph name="dotlessi" format="1">
  <advance width="248"/>
  <unicode hex="0131"/>
  <outline>
    <contour>
      <point x="124" y="536" type="move" name="top"/>
    </contour>
    <contour>
      <point x="68" y="0" type="line"/>
      <point x="68" y="536" type="line"/>
      <point x="180" y="536" type="line"/>
      <point x="180" y="0" type="line"/>
    </contour>
  </outline>
</glyph>
<glyph name="florin" format="1">
  <advance width="554"/>
  <unicode hex="0192"/>
  <outline>
    <contour>
      <point x="160" y="-196" type="qcurve"/>
      <point x="124" y="-196"/>
      <point x="57" y="-173"/>
      <point x="31" y="-150" type="qcurve"/>
      <point x="81" y="-74" type="line"/>
      <point x="94" y="-86"/>
      <point x="129" y="-97"/>
      <point x="146" y="-97" type="qcurve"/>
      <point x="176" y="-97"/>
      <point x="222" y="-53"/>
      <point x="222" y="-19" type="qcurve"/>
      <point x="222" y="386" type="line"/>
      <point x="152" y="386" type="line"/>
      <point x="152" y="473" type="line"/>
      <point x="222" y="473" type="line"/>
      <point x="222" y="544" type="line"/>
      <point x="222" y="593"/>
      <point x="247" y="672"/>
      <point x="291" y="728"/>
      <point x="354" y="758"/>
      <point x="393" y="758" type="qcurve"/>
      <point x="426" y="758"/>
      <point x="490" y="740"/>
      <point x="518" y="725" type="qcurve"/>
      <point x="494" y="641" type="line"/>
      <point x="478" y="650"/>
      <point x="437" y="663"/>
      <point x="417" y="663" type="qcurve"/>
      <point x="377" y="663"/>
      <point x="335" y="603"/>
      <point x="335" y="547" type="qcurve"/>
      <point x="335" y="473" type="line"/>
      <point x="472" y="473" type="line"/>
      <point x="472" y="386" type="line"/>
      <point x="335" y="386" type="line"/>
      <point x="335" y="-16" type="line"/>
      <point x="335" y="-56"/>
      <point x="306" y="-122"/>
      <point x="258" y="-169"/>
      <point x="195" y="-196"/>
    </contour>
  </outline>
</glyph>
<glyph name="caron" format="1">
  <advance width="364"/>
  <unicode hex="02C7"/>
  <outline>
    <contour>
      <point x="181" y="536" type="move" name="_top"/>
    </contour>
    <contour>
      <point x="94" y="748" type="line"/>
      <point x="181" y="683" type="line"/>
      <point x="268" y="748" type="line"/>
      <point x="329" y="719" type="line"/>
      <point x="222" y="622" type="line"/>
      <point x="141" y="622" type="line"/>
      <point x="35" y="719" type="line"/>
    </contour>
  </outline>
</glyph>
<glyph name="uni02C9" format="1">
  <advance width="421"/>
  <unicode hex="02C9"/>
  <outline>
    <contour>
      <point x="210" y="536" type="move" name="_top"/>
    </contour>
    <contour>
      <point x="59" y="659" type="line"/>
      <point x="59" y="731" type="line"/>
      <point x="362" y="731" type="line"/>
      <point x="362" y="659" type="line"/>
    </contour>
  </outline>
</glyph>
<glyph name="dotaccent" format="1">
  <advance width="204"/>
  <unicode hex="02D9"/>
  <outline>
    <contour>
      <point x="102" y="536" type="move" name="_top"/>
    </contour>
    <contour>
      <point x="51" y="630" type="line"/>
      <point x="51" y="748" type="line"/>
      <point x="153" y="748" type="line"/>
      <point x="153" y="630" type="line"/>
    </contour>
  </outline>
</glyph>
<glyph name="ring" format="1">
  <advance width="263"/>
  <unicode hex="02DA"/>
  <outline>
    <contour>
      <point x="131" y="536" type="move" name="_top"/>
    </contour>
    <contour>
      <point x="41" y="673" type="qcurve"/>
      <point x="41" y="709"/>
      <point x="91" y="748"/>
      <point x="131" y="748" type="qcurve"/>
      <point x="172" y="748"/>
      <point x="222" y="709"/>
      <point x="222" y="673" type="qcurve"/>
      <point x="222" y="638"/>
      <point x="172" y="598"/>
      <point x="131" y="598" type="qcurve"/>
      <point x="91" y="598"/>
      <point x="41" y="638"/>
    </contour>
    <contour>
      <point x="131" y="711" type="qcurve"/>
      <point x="114" y="711"/>
      <point x="90" y="690"/>
      <point x="90" y="673" type="qcurve"/>
      <point x="90" y="657"/>
      <point x="114" y="635"/>
      <point x="131" y="635" type="qcurve"/>
      <point x="148" y="635"/>
      <point x="173" y="656"/>
      <point x="173" y="673" type="qcurve"/>
      <point x="173" y="690"/>
      <point x="148" y="711"/>
    </contour>
  </outline>
</glyph>
<glyph name="ogonek" format="1">
  <advance width="279"/>
  <unicode hex="02DB"/>
  <outline>
    <contour>
      <point x="181" y="0" type="move" name="_bottom"/>
    </contour>
    <contour>
      <point x="164" y="-193" type="line"/>
      <point x="114" y="-184"/>
      <point x="62" y="-138"/>
      <point x="62" y="-109" type="qcurve"/>
      <point x="62" y="-43"/>
      <point x="178" y="20" type="qcurve"/>
      <point x="212" y="0" type="line"/>
      <point x="169" y="-27"/>
      <point x="130" y="-70"/>
      <point x="130" y="-91" type="qcurve"/>
      <point x="130" y="-129"/>
      <point x="189" y="-133" type="qcurve"/>
    </contour>
  </outline>
</glyph>
<glyph name="uni030F" format="1">
  <advance width="359"/>
  <unicode hex="030F"/>
  <outline>
    <contour>
      <point x="159" y="535" type="move" name="_top"/>
    </contour>
    <contour>
      <point x="178" y="748" type="line"/>
      <point x="269" y="748" type="line"/>
      <point x="322" y="635" type="line"/>
      <point x="265" y="612" type="line"/>
    </contour>
    <contour>
      <point x="27" y="748" type="line"/>
      <point x="119" y="748" type="line"/>
      <point x="171" y="635" type="line"/>
      <point x="114" y="612" type="line"/>
    </contour>
  </outline>
</glyph>
<glyph name="uni0965" format="1">
  <advance width="490"/>
  <unicode hex="0965"/>
  <outline>
    <contour>
      <point x="109" y="627" type="line"/>
      <point x="183" y="627" type="line"/>
      <point x="183" y="0" type="line"/>
      <point x="109" y="0" type="line"/>
    </contour>
    <contour>
      <point x="306" y="627" type="line"/>
      <point x="380" y="627" type="line"/>
      <point x="380" y="0" type="line"/>
      <point x="306" y="0" type="line"/>
    </contour>
  </outline>
</glyph>
<glyph name="u0b82" format="1">
  <advance width="0"/>
  <unicode hex="0B82"/>
  <outline>
    <contour>
      <point x="-123" y="537" type="move" name="_mark0"/>
    </contour>
    <contour>
      <point x="-250" y="676" type="qcurve"/>
      <point x="-250" y="726"/>
      <point x="-177" y="799"/>
      <point x="-127" y="799" type="qcurve"/>
      <point x="-77" y="799"/>
      <point x="-4" y="727"/>
      <point x="-4" y="676" type="qcurve"/>
      <point x="-4" y="626"/>
      <point x="-76" y="553"/>
      <point x="-127" y="553" type="qcurve"/>
      <point x="-177" y="553"/>
      <point x="-250" y="626"/>
    </contour>
    <contour>
      <point x="-200" y="676" type="qcurve"/>
      <point x="-200" y="645"/>
      <point x="-157" y="602"/>
      <point x="-127" y="602" type="qcurve"/>
      <point x="-96" y="602"/>
      <point x="-53" y="645"/>
      <point x="-53" y="676" type="qcurve"/>
      <point x="-53" y="707"/>
      <point x="-96" y="750"/>
      <point x="-127" y="750" type="qcurve"/>
      <point x="-158" y="750"/>
      <point x="-200" y="707"/>
    </contour>
  </outline>
</glyph>
<glyph name="u0B87" format="1">
  <advance width="980"/>
  <unicode hex="0B87"/>
  <outline>
    <contour>
      <point x="510" y="820" type="move" name="mark0"/>
    </contour>
    <component base="uni0D89" xOffset="-39"/>
  </outline>
</glyph>
<glyph name="u0B89" format="1">
  <advance width="913"/>
  <unicode hex="0B89"/>
  <outline>
    <contour>
      <point x="473" y="522" type="move" name="mark0"/>
    </contour>
    <component base="uni0D8B"/>
  </outline>
</glyph>
<glyph name="u0B8A" format="1">
  <advance width="1521"/>
  <unicode hex="0B8A"/>
  <outline>
    <contour>
      <point x="637" y="515" type="move" name="mark0"/>
    </contour>
    <component base="uni0D8B" xOffset="56"/>
    <component base="uni0DDF" xOffset="773"/>
  </outline>
</glyph>
<glyph name="u0B94" format="1">
  <advance width="1649"/>
  <unicode hex="0B94"/>
  <outline>
    <contour>
      <point x="879" y="514" type="move" name="mark0"/>
    </contour>
    <component base="uni0D94"/>
    <component base="uni0DDF" xOffset="898"/>
  </outline>
</glyph>
<glyph name="u0B99" format="1">
  <advance width="897"/>
  <unicode hex="0B99"/>
  <outline>
    <contour>
      <point x="449" y="492" type="move" name="mark0"/>
    </contour>
    <contour>
      <point x="301" y="49" type="line"/>
      <point x="436" y="49" type="line"/>
      <point x="481" y="49"/>
      <point x="547" y="114"/>
      <point x="547" y="160" type="qcurve"/>
      <point x="547" y="196"/>
      <point x="489" y="246"/>
      <point x="449" y="246" type="qcurve"/>
      <point x="428" y="246"/>
      <point x="382" y="220"/>
      <point x="363" y="197" type="qcurve"/>
      <point x="363" y="98" type="line"/>
      <point x="301" y="98" type="line"/>
      <point x="301" y="443" type="line"/>
      <point x="154" y="443" type="line"/>
      <point x="154" y="0" type="line"/>
      <point x="92" y="0" type="line"/>
      <point x="92" y="492" type="line"/>
      <point x="535" y="492" type="line"/>
      <point x="535" y="443" type="line"/>
      <point x="363" y="443" type="line"/>
      <point x="363" y="264" type="line"/>
      <point x="388" y="285"/>
      <point x="438" y="307"/>
      <point x="461" y="307" type="qcurve"/>
      <point x="522" y="307"/>
      <point x="608" y="221"/>
      <point x="608" y="160" type="qcurve"/>
      <point x="608" y="127"/>
      <point x="583" y="69"/>
      <point x="559" y="49" type="qcurve"/>
      <point x="744" y="49" type="line"/>
      <point x="744" y="492" type="line"/>
      <point x="805" y="492" type="line"/>
      <point x="805" y="0" type="line"/>
      <point x="301" y="0" type="line"/>
    </contour>
  </outline>
</glyph>
<glyph name="u0B9A" format="1">
  <advance width="567"/>
  <unicode hex="0B9A"/>
  <outline>
    <contour>
      <point x="300" y="495" type="move" name="mark0"/>
    </contour>
    <contour>
      <point x="219" y="270" type="line"/>
      <point x="342" y="270" type="line"/>
      <point x="342" y="443" type="line"/>
      <point x="219" y="443" type="line"/>
    </contour>
    <contour>
      <point x="96" y="160" type="qcurve"/>
      <point x="96" y="110"/>
      <point x="175" y="37"/>
      <point x="231" y="37" type="qcurve"/>
      <point x="276" y="37"/>
      <point x="342" y="95"/>
      <point x="342" y="135" type="qcurve"/>
      <point x="342" y="221" type="line"/>
      <point x="157" y="221" type="line"/>
      <point x="131" y="221"/>
      <point x="96" y="186"/>
    </contour>
    <contour>
      <point x="157" y="492" type="line"/>
      <point x="551" y="492" type="line"/>
      <point x="551" y="443" type="line"/>
      <point x="403" y="443" type="line"/>
      <point x="403" y="270" type="line"/>
      <point x="551" y="270" type="line"/>
      <point x="551" y="221" type="line"/>
      <point x="403" y="221" type="line"/>
      <point x="403" y="135" type="line"/>
      <point x="403" y="74"/>
      <point x="302" y="-12"/>
      <point x="231" y="-12" type="qcurve"/>
      <point x="150" y="-12"/>
      <point x="34" y="89"/>
      <point x="34" y="160" type="qcurve"/>
      <point x="34" y="205"/>
      <point x="107" y="270"/>
      <point x="157" y="270" type="qcurve"/>
    </contour>
  </outline>
</glyph>
<glyph name="u0B9C" format="1">
  <advance width="869"/>
  <unicode hex="0B9C"/>
  <outline>
    <contour>
      <point x="433" y="502" type="move" name="mark0"/>
    </contour>
    <component base="uni0DA2" yOffset="-201"/>
  </outline>
</glyph>
<glyph name="u0B9E" format="1">
  <advance width="1100"/>
  <unicode hex="0B9E"/>
  <outline>
    <contour>
      <point x="572" y="505" type="move" name="mark0"/>
    </contour>
    <contour>
      <point x="380" y="135" type="qcurve"/>
      <point x="380" y="94"/>
      <point x="430" y="37"/>
      <point x="466" y="37" type="qcurve"/>
      <point x="502" y="37"/>
      <point x="552" y="95"/>
      <point x="552" y="135" type="qcurve"/>
      <point x="552" y="176"/>
      <point x="502" y="234"/>
      <point x="466" y="234" type="qcurve"/>
      <point x="430" y="234"/>
      <point x="380" y="176"/>
    </contour>
    <contour>
      <point x="73" y="197" type="qcurve"/>
      <point x="73" y="287"/>
      <point x="120" y="439"/>
      <point x="165" y="492" type="qcurve"/>
      <point x="208" y="461" type="line"/>
      <point x="170" y="414"/>
      <point x="128" y="279"/>
      <point x="128" y="197" type="qcurve"/>
      <point x="128" y="4"/>
      <point x="412" y="-270"/>
      <point x="613" y="-270" type="qcurve"/>
      <point x="770" y="-270"/>
      <point x="994" y="-54"/>
      <point x="994" y="98" type="qcurve"/>
      <point x="994" y="155"/>
      <point x="929" y="234"/>
      <point x="884" y="234" type="qcurve"/>
      <point x="864" y="234"/>
      <point x="825" y="204"/>
      <point x="810" y="178" type="qcurve"/>
      <point x="810" y="0" type="line"/>
      <point x="749" y="0" type="line"/>
      <point x="749" y="443" type="line"/>
      <point x="527" y="443" type="line"/>
      <point x="423" y="443"/>
      <point x="275" y="306"/>
      <point x="275" y="209" type="qcurve"/>
      <point x="275" y="168"/>
      <point x="313" y="91"/>
      <point x="349" y="61" type="qcurve"/>
      <point x="340" y="77"/>
      <point x="331" y="114"/>
      <point x="331" y="135" type="qcurve"/>
      <point x="331" y="196"/>
      <point x="409" y="283"/>
      <point x="466" y="283" type="qcurve"/>
      <point x="523" y="283"/>
      <point x="601" y="197"/>
      <point x="601" y="135" type="qcurve"/>
      <point x="601" y="74"/>
      <point x="522" y="-12"/>
      <point x="466" y="-12" type="qcurve"/>
      <point x="364" y="-12"/>
      <point x="220" y="117"/>
      <point x="220" y="209" type="qcurve"/>
      <point x="220" y="326"/>
      <point x="400" y="492"/>
      <point x="527" y="492" type="qcurve"/>
      <point x="1007" y="492" type="line"/>
      <point x="1007" y="443" type="line"/>
      <point x="810" y="443" type="line"/>
      <point x="810" y="246" type="line"/>
      <point x="825" y="263"/>
      <point x="863" y="283"/>
      <point x="884" y="283" type="qcurve"/>
      <point x="955" y="283"/>
      <point x="1056" y="175"/>
      <point x="1056" y="98" type="qcurve"/>
      <point x="1056" y="-75"/>
      <point x="797" y="-320"/>
      <point x="613" y="-320" type="qcurve"/>
      <point x="389" y="-320"/>
      <point x="73" y="-17"/>
    </contour>
  </outline>
</glyph>
<glyph name="u0BA4" format="1">
  <advance width="1129"/>
  <unicode hex="0BA4"/>
  <outline>
    <contour>
      <point x="557" y="510" type="move" name="mark0"/>
    </contour>
    <component base="uni0DAD" xOffset="31" yOffset="-235"/>
  </outline>
</glyph>
<glyph name="u0BA8" format="1">
  <advance width="1066"/>
  <unicode hex="0BA8"/>
  <outline>
    <contour>
      <point x="310" y="499" type="move" name="mark0"/>
    </contour>
    <component base="uni0DB1" xOffset="29" yOffset="-200"/>
  </outline>
</glyph>
<glyph name="u0BA9" format="1">
  <advance width="993"/>
  <unicode hex="0BA9"/>
  <outline>
    <contour>
      <point x="519" y="506" type="move" name="mark0"/>
    </contour>
    <contour>
      <point x="187" y="135" type="qcurve"/>
      <point x="187" y="94"/>
      <point x="237" y="37"/>
      <point x="273" y="37" type="qcurve"/>
      <point x="309" y="37"/>
      <point x="359" y="95"/>
      <point x="359" y="135" type="qcurve"/>
      <point x="359" y="176"/>
      <point x="309" y="234"/>
      <point x="273" y="234" type="qcurve"/>
      <point x="237" y="234"/>
      <point x="187" y="176"/>
    </contour>
    <contour>
      <point x="519" y="197" type="qcurve"/>
      <point x="519" y="131"/>
      <point x="554" y="37"/>
      <point x="580" y="37" type="qcurve"/>
      <point x="606" y="37"/>
      <point x="642" y="130"/>
      <point x="642" y="197" type="qcurve"/>
      <point x="642" y="245"/>
      <point x="610" y="333"/>
      <point x="580" y="369" type="qcurve"/>
      <point x="550" y="333"/>
      <point x="519" y="245"/>
    </contour>
    <contour>
      <point x="728" y="492" type="qcurve"/>
      <point x="986" y="492" type="line"/>
      <point x="986" y="443" type="line"/>
      <point x="888" y="443" type="line"/>
      <point x="888" y="0" type="line"/>
      <point x="826" y="0" type="line"/>
      <point x="826" y="443" type="line"/>
      <point x="728" y="443" type="line"/>
      <point x="696" y="443"/>
      <point x="638" y="424"/>
      <point x="617" y="406" type="qcurve"/>
      <point x="658" y="372"/>
      <point x="703" y="262"/>
      <point x="703" y="197" type="qcurve"/>
      <point x="703" y="111"/>
      <point x="631" y="-12"/>
      <point x="580" y="-12" type="qcurve"/>
      <point x="530" y="-12"/>
      <point x="457" y="111"/>
      <point x="457" y="197" type="qcurve"/>
      <point x="457" y="260"/>
      <point x="503" y="365"/>
      <point x="543" y="400" type="qcurve"/>
      <point x="511" y="427"/>
      <point x="423" y="455"/>
      <point x="371" y="455" type="qcurve"/>
      <point x="259" y="455"/>
      <point x="101" y="311"/>
      <point x="101" y="209" type="qcurve"/>
      <point x="101" y="170"/>
      <point x="127" y="106"/>
      <point x="150" y="86" type="qcurve"/>
      <point x="144" y="97"/>
      <point x="138" y="122"/>
      <point x="138" y="135" type="qcurve"/>
      <point x="138" y="196"/>
      <point x="216" y="283"/>
      <point x="273" y="283" type="qcurve"/>
      <point x="330" y="283"/>
      <point x="408" y="197"/>
      <point x="408" y="135" type="qcurve"/>
      <point x="408" y="74"/>
      <point x="329" y="-12"/>
      <point x="273" y="-12" type="qcurve"/>
      <point x="181" y="-12"/>
      <point x="52" y="117"/>
      <point x="52" y="209" type="qcurve"/>
      <point x="52" y="331"/>
      <point x="238" y="504"/>
      <point x="371" y="504" type="qcurve"/>
      <point x="436" y="504"/>
      <point x="545" y="472"/>
      <point x="580" y="443" type="qcurve"/>
      <point x="608" y="466"/>
      <point x="685" y="492"/>
    </contour>
  </outline>
</glyph>
<glyph name="u0BAE" format="1">
  <advance width="1218"/>
  <unicode hex="0BAE"/>
  <outline>
    <contour>
      <point x="435" y="511" type="move" name="mark0"/>
    </contour>
    <component base="uni0DB8"/>
  </outline>
</glyph>
<glyph name="u0BB6" format="1">
  <advance width="1126"/>
  <unicode hex="0BB6"/>
  <outline>
    <contour>
      <point x="516" y="498" type="move" name="mark0"/>
    </contour>
    <component base="uni0DC1"/>
  </outline>
</glyph>
<glyph name="u0BC0" format="1">
  <advance width="553"/>
  <unicode hex="0BC0"/>
  <outline>
    <contour>
      <point x="92" y="676" type="qcurve"/>
      <point x="92" y="747"/>
      <point x="208" y="848"/>
      <point x="289" y="848" type="qcurve"/>
      <point x="360" y="848"/>
      <point x="461" y="770"/>
      <point x="461" y="713" type="qcurve"/>
      <point x="461" y="663"/>
      <point x="388" y="590"/>
      <point x="338" y="590" type="qcurve"/>
      <point x="288" y="590"/>
      <point x="215" y="663"/>
      <point x="215" y="713" type="qcurve"/>
      <point x="215" y="740"/>
      <point x="241" y="786"/>
      <point x="264" y="799" type="qcurve"/>
      <point x="216" y="790"/>
      <point x="154" y="720"/>
      <point x="154" y="676" type="qcurve"/>
      <point x="154" y="627"/>
      <point x="226" y="527"/>
      <point x="289" y="492" type="qcurve"/>
      <point x="203" y="492" type="line"/>
      <point x="151" y="522"/>
      <point x="92" y="621"/>
    </contour>
    <contour>
      <point x="277" y="713" type="qcurve"/>
      <point x="277" y="682"/>
      <point x="312" y="639"/>
      <point x="338" y="639" type="qcurve"/>
      <point x="364" y="639"/>
      <point x="400" y="682"/>
      <point x="400" y="713" type="qcurve"/>
      <point x="400" y="744"/>
      <point x="364" y="787"/>
      <point x="338" y="787" type="qcurve"/>
      <point x="312" y="787"/>
      <point x="277" y="744"/>
    </contour>
  </outline>
</glyph>
<glyph name="uni0BD0" format="1">
  <advance width="1023"/>
  <unicode hex="0BD0"/>
  <outline>
    <contour>
      <point x="356" y="-6" type="line"/>
      <point x="356" y="-11"/>
      <point x="352" y="-20"/>
      <point x="346" y="-26"/>
      <point x="337" y="-30"/>
      <point x="327" y="-30"/>
      <point x="319" y="-26"/>
      <point x="312" y="-19"/>
      <point x="308" y="-9"/>
      <point x="308" y="1"/>
      <point x="312" y="10"/>
      <point x="319" y="18"/>
      <point x="328" y="22"/>
      <point x="332" y="22" type="qcurve"/>
      <point x="337" y="22"/>
      <point x="346" y="18"/>
      <point x="352" y="11"/>
      <point x="356" y="1"/>
      <point x="356" y="-4" type="qcurve"/>
    </contour>
    <contour>
      <point x="369" y="-164" type="line"/>
      <point x="393" y="-128"/>
      <point x="371" y="-100" type="qcurve"/>
      <point x="348" y="-75"/>
      <point x="305" y="-120"/>
      <point x="323" y="-163" type="qcurve"/>
    </contour>
    <contour>
      <point x="267" y="-290" type="qcurve"/>
      <point x="403" y="-297"/>
      <point x="466" y="-161" type="qcurve"/>
      <point x="496" y="-77"/>
      <point x="554" y="-49" type="qcurve"/>
      <point x="499" y="-29"/>
      <point x="431" y="59"/>
      <point x="431" y="111" type="qcurve"/>
      <point x="431" y="182"/>
      <point x="547" y="283"/>
      <point x="628" y="283" type="qcurve"/>
      <point x="605" y="255"/>
      <point x="579" y="191"/>
      <point x="579" y="160" type="qcurve"/>
      <point x="579" y="129"/>
      <point x="629" y="86"/>
      <point x="665" y="86" type="qcurve"/>
      <point x="701" y="86"/>
      <point x="751" y="144"/>
      <point x="751" y="184" type="qcurve"/>
      <point x="751" y="301"/>
      <point x="557" y="467"/>
      <point x="419" y="467" type="qcurve"/>
      <point x="286" y="467"/>
      <point x="100" y="316"/>
      <point x="100" y="209" type="qcurve"/>
      <point x="100" y="189"/>
      <point x="106" y="152"/>
      <point x="112" y="135" type="qcurve"/>
      <point x="112" y="194"/>
      <point x="184" y="277"/>
      <point x="235" y="277" type="qcurve"/>
      <point x="285" y="277"/>
      <point x="358" y="200"/>
      <point x="358" y="148" type="qcurve"/>
      <point x="358" y="91"/>
      <point x="285" y="12"/>
      <point x="235" y="12" type="qcurve"/>
      <point x="159" y="12"/>
      <point x="50" y="128"/>
      <point x="50" y="209" type="qcurve"/>
      <point x="50" y="337"/>
      <point x="267" y="516"/>
      <point x="419" y="516" type="qcurve"/>
      <point x="582" y="516"/>
      <point x="813" y="322"/>
      <point x="813" y="184" type="qcurve"/>
      <point x="813" y="123"/>
      <point x="727" y="37"/>
      <point x="665" y="37" type="qcurve"/>
      <point x="608" y="37"/>
      <point x="530" y="109"/>
      <point x="530" y="160" type="qcurve"/>
      <point x="530" y="170"/>
      <point x="546" y="208"/>
      <point x="561" y="234" type="qcurve"/>
      <point x="524" y="213"/>
      <point x="481" y="146"/>
      <point x="481" y="111" type="qcurve"/>
      <point x="481" y="54"/>
      <point x="581" y="-25"/>
      <point x="653" y="-25" type="qcurve"/>
      <point x="788" y="-25" type="line"/>
      <point x="788" y="-74" type="line"/>
      <point x="607" y="-74" type="line"/>
      <point x="587" y="-74"/>
      <point x="553" y="-103" type="qcurve"/>
      <point x="531" y="-122"/>
      <point x="515" y="-163" type="qcurve"/>
      <point x="449" y="-336"/>
      <point x="269" y="-329" type="qcurve"/>
      <point x="37" y="-320"/>
      <point x="32" y="-156" type="qcurve"/>
      <point x="30" y="-108"/>
      <point x="55" y="-69" type="qcurve"/>
      <point x="78" y="-33"/>
      <point x="123" y="-33" type="qcurve"/>
      <point x="150" y="-33"/>
      <point x="168" y="-53" type="qcurve"/>
      <point x="191" y="-82"/>
      <point x="191" y="-165" type="qcurve"/>
      <point x="239" y="-166"/>
      <point x="282" y="-165" type="qcurve"/>
      <point x="271" y="-101"/>
      <point x="303" y="-71" type="qcurve"/>
      <point x="338" y="-39"/>
      <point x="385" y="-66" type="qcurve"/>
      <point x="420" y="-86"/>
      <point x="414" y="-143" type="qcurve"/>
      <point x="410" y="-187"/>
      <point x="395" y="-199" type="qcurve"/>
      <point x="148" y="-199" type="line"/>
      <point x="163" y="-115"/>
      <point x="135" y="-87" type="qcurve"/>
      <point x="110" y="-61"/>
      <point x="88" y="-88" type="qcurve"/>
      <point x="68" y="-111"/>
      <point x="73" y="-174" type="qcurve"/>
      <point x="81" y="-280"/>
    </contour>
    <contour>
      <point x="173" y="148" type="qcurve"/>
      <point x="173" y="112"/>
      <point x="209" y="61"/>
      <point x="235" y="61" type="qcurve"/>
      <point x="261" y="61"/>
      <point x="296" y="112"/>
      <point x="296" y="148" type="qcurve"/>
      <point x="296" y="179"/>
      <point x="261" y="221"/>
      <point x="235" y="221" type="qcurve"/>
      <point x="209" y="221"/>
      <point x="173" y="179"/>
    </contour>
  </outline>
</glyph>
<glyph name="u0BE6" format="1">
  <advance width="585"/>
  <unicode hex="0BE6"/>
  <outline>
    <contour>
      <point x="60" y="323" type="qcurve"/>
      <point x="60" y="450"/>
      <point x="186" y="639"/>
      <point x="293" y="639" type="qcurve"/>
      <point x="400" y="639"/>
      <point x="525" y="450"/>
      <point x="525" y="323" type="qcurve"/>
      <point x="525" y="193"/>
      <point x="401" y="0"/>
      <point x="293" y="0" type="qcurve"/>
      <point x="185" y="0"/>
      <point x="60" y="193"/>
    </contour>
    <contour>
      <point x="125" y="323" type="qcurve"/>
      <point x="125" y="219"/>
      <point x="210" y="65"/>
      <point x="293" y="65" type="qcurve"/>
      <point x="375" y="65"/>
      <point x="461" y="219"/>
      <point x="461" y="323" type="qcurve"/>
      <point x="461" y="424"/>
      <point x="374" y="574"/>
      <point x="293" y="574" type="qcurve"/>
      <point x="212" y="574"/>
      <point x="125" y="424"/>
    </contour>
  </outline>
</glyph>
<glyph name="u0BE7" format="1">
  <advance width="700"/>
  <unicode hex="0BE7"/>
  <outline>
    <contour>
      <point x="246" y="270" type="line"/>
      <point x="369" y="270" type="line"/>
      <point x="369" y="443" type="line"/>
      <point x="246" y="443" type="line"/>
    </contour>
    <contour>
      <point x="123" y="160" type="qcurve"/>
      <point x="123" y="110"/>
      <point x="202" y="37"/>
      <point x="258" y="37" type="qcurve"/>
      <point x="303" y="37"/>
      <point x="369" y="95"/>
      <point x="369" y="135" type="qcurve"/>
      <point x="369" y="221" type="line"/>
      <point x="184" y="221" type="line"/>
      <point x="158" y="221"/>
      <point x="123" y="186"/>
    </contour>
    <contour>
      <point x="184" y="492" type="line"/>
      <point x="565" y="492" type="line"/>
      <point x="565" y="443" type="line"/>
      <point x="430" y="443" type="line"/>
      <point x="430" y="270" type="line"/>
      <point x="504" y="270" type="line"/>
      <point x="561" y="270"/>
      <point x="639" y="192"/>
      <point x="639" y="135" type="qcurve"/>
      <point x="639" y="74"/>
      <point x="567" y="-12"/>
      <point x="516" y="-12" type="qcurve"/>
      <point x="502" y="-12"/>
      <point x="472" y="-6"/>
      <point x="455" y="0" type="qcurve"/>
      <point x="467" y="49" type="line"/>
      <point x="478" y="43"/>
      <point x="503" y="37"/>
      <point x="516" y="37" type="qcurve"/>
      <point x="542" y="37"/>
      <point x="578" y="95"/>
      <point x="578" y="135" type="qcurve"/>
      <point x="578" y="171"/>
      <point x="535" y="221"/>
      <point x="504" y="221" type="qcurve"/>
      <point x="430" y="221" type="line"/>
      <point x="430" y="135" type="line"/>
      <point x="430" y="74"/>
      <point x="329" y="-12"/>
      <point x="258" y="-12" type="qcurve"/>
      <point x="177" y="-12"/>
      <point x="61" y="89"/>
      <point x="61" y="160" type="qcurve"/>
      <point x="61" y="205"/>
      <point x="134" y="270"/>
      <point x="184" y="270" type="qcurve"/>
    </contour>
  </outline>
</glyph>
<glyph name="u0BE8" format="1">
  <advance width="725"/>
  <unicode hex="0BE8"/>
  <outline>
    <contour>
      <point x="111" y="344" type="qcurve"/>
      <point x="111" y="318"/>
      <point x="146" y="283"/>
      <point x="172" y="283" type="qcurve"/>
      <point x="198" y="283"/>
      <point x="234" y="318"/>
      <point x="234" y="344" type="qcurve"/>
      <point x="234" y="375"/>
      <point x="198" y="418"/>
      <point x="172" y="418" type="qcurve"/>
      <point x="146" y="418"/>
      <point x="111" y="375"/>
    </contour>
    <contour>
      <point x="61" y="356" type="qcurve"/>
      <point x="61" y="417"/>
      <point x="184" y="504"/>
      <point x="270" y="504" type="qcurve"/>
      <point x="372" y="504"/>
      <point x="516" y="388"/>
      <point x="516" y="307" type="qcurve"/>
      <point x="516" y="231"/>
      <point x="393" y="123"/>
      <point x="307" y="123" type="qcurve"/>
      <point x="172" y="123" type="line"/>
      <point x="151" y="123"/>
      <point x="123" y="101"/>
      <point x="123" y="86" type="qcurve"/>
      <point x="123" y="71"/>
      <point x="151" y="49"/>
      <point x="172" y="49" type="qcurve"/>
      <point x="664" y="49" type="line"/>
      <point x="664" y="0" type="line"/>
      <point x="172" y="0" type="line"/>
      <point x="127" y="0"/>
      <point x="61" y="50"/>
      <point x="61" y="86" type="qcurve"/>
      <point x="61" y="122"/>
      <point x="127" y="172"/>
      <point x="172" y="172" type="qcurve"/>
      <point x="307" y="172" type="line"/>
      <point x="368" y="172"/>
      <point x="455" y="251"/>
      <point x="455" y="307" type="qcurve"/>
      <point x="455" y="368"/>
      <point x="347" y="455"/>
      <point x="270" y="455" type="qcurve"/>
      <point x="197" y="455" type="line"/>
      <point x="236" y="441"/>
      <point x="283" y="380"/>
      <point x="283" y="344" type="qcurve"/>
      <point x="283" y="299"/>
      <point x="218" y="234"/>
      <point x="172" y="234" type="qcurve"/>
      <point x="127" y="234"/>
      <point x="61" y="306"/>
    </contour>
  </outline>
</glyph>
<glyph name="u0BE9" format="1">
  <advance width="780"/>
  <unicode hex="0BE9"/>
  <outline>
    <contour>
      <point x="61" y="0" type="line"/>
      <point x="61" y="492" type="line"/>
      <point x="504" y="492" type="line"/>
      <point x="504" y="443" type="line"/>
      <point x="332" y="443" type="line"/>
      <point x="332" y="264" type="line"/>
      <point x="349" y="281"/>
      <point x="395" y="301"/>
      <point x="418" y="301" type="qcurve"/>
      <point x="484" y="301"/>
      <point x="578" y="219"/>
      <point x="578" y="160" type="qcurve"/>
      <point x="578" y="127"/>
      <point x="552" y="69"/>
      <point x="529" y="49" type="qcurve"/>
      <point x="719" y="49" type="line"/>
      <point x="719" y="0" type="line"/>
      <point x="270" y="0" type="line"/>
      <point x="270" y="49" type="line"/>
      <point x="406" y="49" type="line"/>
      <point x="451" y="49"/>
      <point x="516" y="114"/>
      <point x="516" y="160" type="qcurve"/>
      <point x="516" y="196"/>
      <point x="459" y="246"/>
      <point x="418" y="246" type="qcurve"/>
      <point x="397" y="246"/>
      <point x="352" y="220"/>
      <point x="332" y="197" type="qcurve"/>
      <point x="332" y="98" type="line"/>
      <point x="270" y="98" type="line"/>
      <point x="270" y="443" type="line"/>
      <point x="123" y="443" type="line"/>
      <point x="123" y="0" type="line"/>
    </contour>
  </outline>
</glyph>
<glyph name="u0BEC" format="1">
  <advance width="829"/>
  <unicode hex="0BEC"/>
  <outline>
    <contour>
      <point x="246" y="443" type="line"/>
      <point x="246" y="270" type="line"/>
      <point x="369" y="270" type="line"/>
      <point x="369" y="443" type="line"/>
    </contour>
    <contour>
      <point x="123" y="160" type="qcurve"/>
      <point x="123" y="110"/>
      <point x="202" y="37"/>
      <point x="258" y="37" type="qcurve"/>
      <point x="303" y="37"/>
      <point x="369" y="95"/>
      <point x="369" y="135" type="qcurve"/>
      <point x="369" y="221" type="line"/>
      <point x="184" y="221" type="line"/>
      <point x="158" y="221"/>
      <point x="123" y="186"/>
    </contour>
    <contour>
      <point x="61" y="160" type="qcurve"/>
      <point x="61" y="205"/>
      <point x="134" y="270"/>
      <point x="184" y="270" type="qcurve"/>
      <point x="184" y="492" type="line"/>
      <point x="602" y="492" type="line"/>
      <point x="602" y="443" type="line"/>
      <point x="430" y="443" type="line"/>
      <point x="430" y="270" type="line"/>
      <point x="768" y="270" type="line"/>
      <point x="768" y="221" type="line"/>
      <point x="701" y="221" type="line"/>
      <point x="701" y="0" type="line"/>
      <point x="639" y="0" type="line"/>
      <point x="639" y="221" type="line"/>
      <point x="565" y="221" type="line"/>
      <point x="565" y="0" type="line"/>
      <point x="504" y="0" type="line"/>
      <point x="504" y="221" type="line"/>
      <point x="430" y="221" type="line"/>
      <point x="430" y="135" type="line"/>
      <point x="430" y="74"/>
      <point x="329" y="-12"/>
      <point x="258" y="-12" type="qcurve"/>
      <point x="177" y="-12"/>
      <point x="61" y="89"/>
    </contour>
  </outline>
</glyph>
<glyph name="u0BEE" format="1">
  <advance width="1020"/>
  <unicode hex="0BEE"/>
  <outline>
    <contour>
      <point x="897" y="-61" type="line"/>
      <point x="897" y="135" type="line"/>
      <point x="774" y="135" type="line"/>
      <point x="737" y="35"/>
      <point x="546" y="-86"/>
      <point x="424" y="-86" type="qcurve"/>
      <point x="340" y="-86"/>
      <point x="192" y="-36"/>
      <point x="135" y="12" type="qcurve"/>
      <point x="99" y="42"/>
      <point x="61" y="100"/>
      <point x="61" y="123" type="qcurve"/>
      <point x="61" y="149"/>
      <point x="104" y="184"/>
      <point x="135" y="184" type="qcurve"/>
      <point x="338" y="186" type="line"/>
      <point x="305" y="198"/>
      <point x="264" y="268"/>
      <point x="264" y="313" type="qcurve"/>
      <point x="264" y="392"/>
      <point x="412" y="504"/>
      <point x="516" y="504" type="qcurve"/>
      <point x="633" y="504"/>
      <point x="799" y="360"/>
      <point x="799" y="258" type="qcurve"/>
      <point x="799" y="238"/>
      <point x="793" y="202"/>
      <point x="787" y="184" type="qcurve"/>
      <point x="897" y="184" type="line"/>
      <point x="897" y="492" type="line"/>
      <point x="959" y="492" type="line"/>
      <point x="959" y="-61" type="line"/>
    </contour>
    <contour>
      <point x="320" y="313" type="qcurve"/>
      <point x="320" y="260"/>
      <point x="402" y="184"/>
      <point x="461" y="184" type="qcurve"/>
      <point x="518" y="184"/>
      <point x="596" y="257"/>
      <point x="596" y="307" type="qcurve"/>
      <point x="596" y="364"/>
      <point x="518" y="443"/>
      <point x="461" y="443" type="qcurve"/>
      <point x="402" y="443"/>
      <point x="320" y="366"/>
    </contour>
    <contour>
      <point x="713" y="135" type="qcurve"/>
      <point x="148" y="135" type="line"/>
      <point x="138" y="135"/>
      <point x="123" y="120"/>
      <point x="123" y="111" type="qcurve"/>
      <point x="123" y="105"/>
      <point x="135" y="86"/>
      <point x="148" y="74" type="qcurve"/>
      <point x="201" y="21"/>
      <point x="342" y="-37"/>
      <point x="418" y="-37" type="qcurve"/>
      <point x="522" y="-37"/>
      <point x="685" y="58"/>
    </contour>
    <contour>
      <point x="590" y="184" type="qcurve"/>
      <point x="725" y="184" type="line"/>
      <point x="731" y="201"/>
      <point x="738" y="238"/>
      <point x="738" y="258" type="qcurve"/>
      <point x="738" y="335"/>
      <point x="637" y="454"/>
      <point x="559" y="467" type="qcurve"/>
      <point x="602" y="436"/>
      <point x="652" y="352"/>
      <point x="652" y="307" type="qcurve"/>
      <point x="652" y="269"/>
      <point x="620" y="204"/>
    </contour>
  </outline>
</glyph>
<glyph name="u0BF1" format="1">
  <advance width="684"/>
  <unicode hex="0BF1"/>
  <outline>
    <contour>
      <point x="334" y="443" type="qcurve"/>
      <point x="348" y="471"/>
      <point x="414" y="504"/>
      <point x="457" y="504" type="qcurve"/>
      <point x="679" y="504" type="line"/>
      <point x="679" y="449" type="line"/>
      <point x="580" y="449" type="line"/>
      <point x="580" y="0" type="line"/>
      <point x="519" y="0" type="line"/>
      <point x="519" y="449" type="line"/>
      <point x="457" y="449" type="line"/>
      <point x="426" y="449"/>
      <point x="372" y="404"/>
      <point x="359" y="369" type="qcurve"/>
      <point x="359" y="0" type="line"/>
      <point x="297" y="0" type="line"/>
      <point x="297" y="369" type="line"/>
      <point x="297" y="405"/>
      <point x="254" y="455"/>
      <point x="224" y="455" type="qcurve"/>
      <point x="193" y="455"/>
      <point x="150" y="404"/>
      <point x="150" y="369" type="qcurve"/>
      <point x="150" y="0" type="line"/>
      <point x="89" y="0" type="line"/>
      <point x="89" y="369" type="line"/>
      <point x="89" y="426"/>
      <point x="167" y="504"/>
      <point x="224" y="504" type="qcurve"/>
      <point x="252" y="504"/>
      <point x="310" y="472"/>
    </contour>
  </outline>
</glyph>
<glyph name="u0BF2" format="1">
  <advance width="759"/>
  <unicode hex="0BF2"/>
  <outline>
    <contour>
      <point x="219" y="443" type="line"/>
      <point x="219" y="270" type="line"/>
      <point x="342" y="270" type="line"/>
      <point x="342" y="443" type="line"/>
    </contour>
    <contour>
      <point x="96" y="160" type="qcurve"/>
      <point x="96" y="110"/>
      <point x="175" y="37"/>
      <point x="231" y="37" type="qcurve"/>
      <point x="276" y="37"/>
      <point x="342" y="95"/>
      <point x="342" y="135" type="qcurve"/>
      <point x="342" y="221" type="line"/>
      <point x="157" y="221" type="line"/>
      <point x="131" y="221"/>
      <point x="96" y="186"/>
    </contour>
    <contour>
      <point x="34" y="160" type="qcurve"/>
      <point x="34" y="205"/>
      <point x="107" y="270"/>
      <point x="157" y="270" type="qcurve"/>
      <point x="157" y="492" type="line"/>
      <point x="575" y="492" type="line"/>
      <point x="575" y="443" type="line"/>
      <point x="403" y="443" type="line"/>
      <point x="403" y="270" type="line"/>
      <point x="649" y="270" type="line"/>
      <point x="649" y="221" type="line"/>
      <point x="514" y="221" type="line"/>
      <point x="514" y="135" type="line"/>
      <point x="529" y="152"/>
      <point x="574" y="172"/>
      <point x="600" y="172" type="qcurve"/>
      <point x="657" y="172"/>
      <point x="735" y="79"/>
      <point x="735" y="12" type="qcurve"/>
      <point x="735" y="-59"/>
      <point x="599" y="-160"/>
      <point x="502" y="-160" type="qcurve"/>
      <point x="157" y="-160" type="line"/>
      <point x="116" y="-160"/>
      <point x="59" y="-232"/>
      <point x="59" y="-283" type="qcurve"/>
      <point x="10" y="-283" type="line"/>
      <point x="10" y="-212"/>
      <point x="96" y="-111"/>
      <point x="157" y="-111" type="qcurve"/>
      <point x="502" y="-111" type="line"/>
      <point x="573" y="-111"/>
      <point x="674" y="-38"/>
      <point x="674" y="12" type="qcurve"/>
      <point x="674" y="57"/>
      <point x="631" y="123"/>
      <point x="600" y="123" type="qcurve"/>
      <point x="570" y="123"/>
      <point x="522" y="85"/>
      <point x="514" y="55" type="qcurve"/>
      <point x="514" y="0" type="line"/>
      <point x="452" y="0" type="line"/>
      <point x="452" y="221" type="line"/>
      <point x="403" y="221" type="line"/>
      <point x="403" y="135" type="line"/>
      <point x="403" y="74"/>
      <point x="302" y="-12"/>
      <point x="231" y="-12" type="qcurve"/>
      <point x="150" y="-12"/>
      <point x="34" y="89"/>
    </contour>
  </outline>
</glyph>
<glyph name="u0BF4" format="1">
  <advance width="1062"/>
  <unicode hex="0BF4"/>
  <outline>
    <contour>
      <point x="449" y="369" type="qcurve"/>
      <point x="449" y="49" type="line"/>
      <point x="621" y="49" type="line"/>
      <point x="657" y="49"/>
      <point x="707" y="128"/>
      <point x="707" y="184" type="qcurve"/>
      <point x="707" y="296"/>
      <point x="599" y="455"/>
      <point x="522" y="455" type="qcurve"/>
      <point x="491" y="455"/>
      <point x="449" y="404"/>
    </contour>
    <contour>
      <point x="510" y="504" type="qcurve"/>
      <point x="471" y="527"/>
      <point x="424" y="606"/>
      <point x="424" y="652" type="qcurve"/>
      <point x="424" y="723"/>
      <point x="532" y="824"/>
      <point x="608" y="824" type="qcurve"/>
      <point x="633" y="824"/>
      <point x="669" y="819"/>
      <point x="681" y="815" type="qcurve"/>
      <point x="714" y="836"/>
      <point x="784" y="858"/>
      <point x="816" y="858" type="qcurve"/>
      <point x="854" y="858"/>
      <point x="920" y="825"/>
      <point x="939" y="797" type="qcurve"/>
      <point x="962" y="827"/>
      <point x="1028" y="858"/>
      <point x="1062" y="858" type="qcurve"/>
      <point x="1062" y="809" type="line"/>
      <point x="1040" y="809"/>
      <point x="997" y="783"/>
      <point x="982" y="760" type="qcurve"/>
      <point x="998" y="739"/>
      <point x="1014" y="702"/>
      <point x="1014" y="688" type="qcurve"/>
      <point x="1014" y="656"/>
      <point x="974" y="612"/>
      <point x="944" y="612" type="qcurve"/>
      <point x="914" y="612"/>
      <point x="872" y="656"/>
      <point x="872" y="688" type="qcurve"/>
      <point x="872" y="705"/>
      <point x="891" y="744"/>
      <point x="908" y="762" type="qcurve"/>
      <point x="890" y="784"/>
      <point x="842" y="809"/>
      <point x="816" y="809" type="qcurve"/>
      <point x="791" y="809"/>
      <point x="746" y="797"/>
      <point x="728" y="784" type="qcurve"/>
      <point x="760" y="762"/>
      <point x="797" y="704"/>
      <point x="797" y="676" type="qcurve"/>
      <point x="797" y="631"/>
      <point x="723" y="565"/>
      <point x="670" y="565" type="qcurve"/>
      <point x="629" y="565"/>
      <point x="572" y="623"/>
      <point x="572" y="664" type="qcurve"/>
      <point x="572" y="698"/>
      <point x="605" y="758"/>
      <point x="633" y="774" type="qcurve"/>
      <point x="608" y="774" type="line"/>
      <point x="554" y="774"/>
      <point x="477" y="702"/>
      <point x="477" y="652" type="qcurve"/>
      <point x="477" y="613"/>
      <point x="547" y="527"/>
      <point x="608" y="492" type="qcurve"/>
      <point x="681" y="466"/>
      <point x="768" y="296"/>
      <point x="768" y="184" type="qcurve"/>
      <point x="768" y="108"/>
      <point x="682" y="0"/>
      <point x="621" y="0" type="qcurve"/>
      <point x="92" y="0" type="line"/>
      <point x="92" y="492" type="line"/>
      <point x="154" y="492" type="line"/>
      <point x="154" y="49" type="line"/>
      <point x="387" y="49" type="line"/>
      <point x="387" y="369" type="line"/>
      <point x="387" y="426"/>
      <point x="460" y="504"/>
    </contour>
    <contour>
      <point x="621" y="664" type="qcurve"/>
      <point x="621" y="643"/>
      <point x="649" y="615"/>
      <point x="670" y="615" type="qcurve"/>
      <point x="701" y="615"/>
      <point x="744" y="650"/>
      <point x="744" y="676" type="qcurve"/>
      <point x="744" y="701"/>
      <point x="714" y="744"/>
      <point x="688" y="756" type="qcurve"/>
      <point x="657" y="741"/>
      <point x="621" y="692"/>
    </contour>
    <contour>
      <point x="922" y="688" type="qcurve"/>
      <point x="922" y="678"/>
      <point x="935" y="664"/>
      <point x="944" y="664" type="qcurve"/>
      <point x="953" y="664"/>
      <point x="965" y="679"/>
      <point x="965" y="688" type="qcurve"/>
      <point x="965" y="698"/>
      <point x="954" y="718"/>
      <point x="944" y="725" type="qcurve"/>
      <point x="934" y="718"/>
      <point x="922" y="698"/>
    </contour>
  </outline>
</glyph>
<glyph name="u0BFA" format="1">
  <advance width="1196"/>
  <unicode hex="0BFA"/>
  <outline>
    <contour>
      <point x="688" y="344" type="qcurve"/>
      <point x="688" y="318"/>
      <point x="724" y="283"/>
      <point x="750" y="283" type="qcurve"/>
      <point x="773" y="283"/>
      <point x="805" y="318"/>
      <point x="805" y="344" type="qcurve"/>
      <point x="805" y="380"/>
      <point x="799" y="431"/>
      <point x="793" y="449" type="qcurve"/>
      <point x="746" y="437"/>
      <point x="688" y="379"/>
    </contour>
    <contour>
      <point x="92" y="0" type="line"/>
      <point x="92" y="492" type="line"/>
      <point x="387" y="492" type="line"/>
      <point x="372" y="506"/>
      <point x="356" y="557"/>
      <point x="356" y="590" type="qcurve"/>
      <point x="356" y="649"/>
      <point x="476" y="731"/>
      <point x="559" y="731" type="qcurve"/>
      <point x="651" y="731"/>
      <point x="803" y="604"/>
      <point x="830" y="503" type="qcurve"/>
      <point x="848" y="504" type="line"/>
      <point x="948" y="504"/>
      <point x="1088" y="388"/>
      <point x="1088" y="307" type="qcurve"/>
      <point x="1088" y="233"/>
      <point x="996" y="96"/>
      <point x="916" y="49" type="qcurve"/>
      <point x="1186" y="49" type="line"/>
      <point x="1186" y="0" type="line"/>
      <point x="713" y="0" type="line"/>
      <point x="857" y="53"/>
      <point x="1033" y="221"/>
      <point x="1033" y="307" type="qcurve"/>
      <point x="1033" y="368"/>
      <point x="924" y="455"/>
      <point x="848" y="455" type="qcurve"/>
      <point x="855" y="439"/>
      <point x="863" y="384"/>
      <point x="863" y="344" type="qcurve"/>
      <point x="863" y="299"/>
      <point x="797" y="234"/>
      <point x="750" y="234" type="qcurve"/>
      <point x="702" y="234"/>
      <point x="633" y="299"/>
      <point x="633" y="344" type="qcurve"/>
      <point x="633" y="399"/>
      <point x="713" y="484"/>
      <point x="774" y="495" type="qcurve"/>
      <point x="752" y="577"/>
      <point x="632" y="682"/>
      <point x="559" y="682" type="qcurve"/>
      <point x="498" y="682"/>
      <point x="412" y="628"/>
      <point x="412" y="590" type="qcurve"/>
      <point x="412" y="558"/>
      <point x="431" y="506"/>
      <point x="449" y="492" type="qcurve"/>
      <point x="535" y="492" type="line"/>
      <point x="535" y="443" type="line"/>
      <point x="363" y="443" type="line"/>
      <point x="363" y="264" type="line"/>
      <point x="378" y="281"/>
      <point x="423" y="301"/>
      <point x="449" y="301" type="qcurve"/>
      <point x="515" y="301"/>
      <point x="608" y="219"/>
      <point x="608" y="160" type="qcurve"/>
      <point x="608" y="94"/>
      <point x="508" y="0"/>
      <point x="436" y="0" type="qcurve"/>
      <point x="301" y="0" type="line"/>
      <point x="301" y="49" type="line"/>
      <point x="436" y="49" type="line"/>
      <point x="481" y="49"/>
      <point x="547" y="114"/>
      <point x="547" y="160" type="qcurve"/>
      <point x="547" y="196"/>
      <point x="489" y="246"/>
      <point x="449" y="246" type="qcurve"/>
      <point x="428" y="246"/>
      <point x="382" y="220"/>
      <point x="363" y="197" type="qcurve"/>
      <point x="363" y="98" type="line"/>
      <point x="301" y="98" type="line"/>
      <point x="301" y="443" type="line"/>
      <point x="154" y="443" type="line"/>
      <point x="154" y="0" type="line"/>
    </contour>
  </outline>
</glyph>
<glyph name="uni0D89" format="1">
  <advance width="996"/>
  <unicode hex="0D89"/>
  <outline>
    <contour>
      <point x="467" y="134" type="curve"/>
      <point x="517" y="187"/>
      <point x="544" y="268"/>
      <point x="548" y="341" type="curve"/>
      <point x="601" y="324"/>
      <point x="629" y="281"/>
      <point x="629" y="240" type="curve" smooth="yes"/>
      <point x="629" y="183"/>
      <point x="576" y="130"/>
      <point x="500" y="130" type="curve" smooth="yes"/>
      <point x="489" y="130"/>
      <point x="478" y="131"/>
    </contour>
    <contour>
      <point x="298" y="341" type="curve"/>
      <point x="320" y="341"/>
      <point x="340" y="341"/>
      <point x="362" y="341" type="curve" smooth="yes"/>
      <point x="363" y="341" type="line" smooth="yes"/>
      <point x="396" y="341"/>
      <point x="423" y="341"/>
      <point x="453" y="341" type="curve"/>
      <point x="451" y="276"/>
      <point x="424" y="215"/>
      <point x="378" y="176" type="curve"/>
      <point x="329" y="217"/>
      <point x="304" y="277"/>
    </contour>
    <contour>
      <point x="287" y="132" type="curve"/>
      <point x="277" y="130"/>
      <point x="268" y="130"/>
      <point x="258" y="130" type="curve" smooth="yes"/>
      <point x="192" y="130"/>
      <point x="128" y="171"/>
      <point x="128" y="232" type="curve" smooth="yes"/>
      <point x="128" y="265"/>
      <point x="135" y="316"/>
      <point x="209" y="341" type="curve"/>
      <point x="217" y="270"/>
      <point x="242" y="185"/>
    </contour>
    <contour>
      <point x="571" y="732" type="curve" smooth="yes"/>
      <point x="395" y="732"/>
      <point x="237" y="611"/>
      <point x="208" y="431" type="curve"/>
      <point x="85" y="420"/>
      <point x="41" y="308"/>
      <point x="41" y="231" type="curve" smooth="yes"/>
      <point x="41" y="121"/>
      <point x="139" y="36"/>
      <point x="258" y="36" type="curve" smooth="yes"/>
      <point x="299" y="36"/>
      <point x="340" y="46"/>
      <point x="378" y="64" type="curve"/>
      <point x="417" y="45"/>
      <point x="459" y="35"/>
      <point x="499" y="35" type="curve" smooth="yes"/>
      <point x="616" y="35"/>
      <point x="723" y="120"/>
      <point x="723" y="238" type="curve" smooth="yes"/>
      <point x="723" y="329"/>
      <point x="662" y="422"/>
      <point x="539" y="431" type="curve"/>
      <point x="527" y="470"/>
      <point x="504" y="509"/>
      <point x="464" y="558" type="curve"/>
      <point x="394" y="498" type="line"/>
      <point x="420" y="467"/>
      <point x="429" y="448"/>
      <point x="436" y="431" type="curve"/>
      <point x="387" y="431"/>
      <point x="345" y="431"/>
      <point x="307" y="431" type="curve"/>
      <point x="340" y="552"/>
      <point x="455" y="641"/>
      <point x="574" y="641" type="curve" smooth="yes"/>
      <point x="716" y="641"/>
      <point x="870" y="495"/>
      <point x="870" y="322" type="curve" smooth="yes"/>
      <point x="870" y="111"/>
      <point x="690" y="-21"/>
      <point x="504" y="-26" type="curve"/>
      <point x="524" y="-117" type="line"/>
      <point x="532" y="-117" type="line" smooth="yes"/>
      <point x="555" y="-117"/>
      <point x="578" y="-113"/>
      <point x="600" y="-110" type="curve"/>
      <point x="625" y="-120"/>
      <point x="642" y="-143"/>
      <point x="642" y="-169" type="curve" smooth="yes"/>
      <point x="642" y="-205"/>
      <point x="611" y="-236"/>
      <point x="574" y="-236" type="curve" smooth="yes"/>
      <point x="555" y="-236"/>
      <point x="528" y="-223"/>
      <point x="517" y="-205" type="curve" smooth="yes"/>
      <point x="507" y="-190" type="line"/>
      <point x="427" y="-241" type="line"/>
      <point x="439" y="-257" type="line" smooth="yes"/>
      <point x="467" y="-301"/>
      <point x="522" y="-331"/>
      <point x="577" y="-331" type="curve" smooth="yes"/>
      <point x="681" y="-331"/>
      <point x="736" y="-258"/>
      <point x="736" y="-170" type="curve" smooth="yes"/>
      <point x="736" y="-139"/>
      <point x="725" y="-98"/>
      <point x="706" y="-77" type="curve"/>
      <point x="845" y="-14"/>
      <point x="965" y="142"/>
      <point x="965" y="322" type="curve" smooth="yes"/>
      <point x="965" y="565"/>
      <point x="800" y="732"/>
    </contour>
  </outline>
</glyph>
<glyph name="uni0D8E" format="1">
  <advance width="1750"/>
  <unicode hex="0D8E"/>
  <outline>
    <contour>
      <point x="326" y="466" type="line"/>
      <point x="323" y="526"/>
      <point x="288" y="559"/>
      <point x="231" y="559" type="curve" smooth="yes"/>
      <point x="179" y="559"/>
      <point x="153" y="539"/>
      <point x="153" y="499" type="curve" smooth="yes"/>
      <point x="153" y="491"/>
      <point x="154" y="481"/>
      <point x="157" y="468" type="curve"/>
      <point x="85" y="457" type="line"/>
      <point x="81" y="473"/>
      <point x="78" y="490"/>
      <point x="78" y="508" type="curve" smooth="yes"/>
      <point x="78" y="584"/>
      <point x="133" y="627"/>
      <point x="225" y="627" type="curve" smooth="yes"/>
      <point x="337" y="627"/>
      <point x="399" y="561"/>
      <point x="399" y="440" type="curve" smooth="yes"/>
      <point x="399" y="398" type="line"/>
      <point x="375" y="398" type="line" smooth="yes"/>
      <point x="314" y="398"/>
      <point x="265" y="393"/>
      <point x="226" y="383" type="curve" smooth="yes"/>
      <point x="188" y="374"/>
      <point x="160" y="356"/>
      <point x="140" y="332" type="curve" smooth="yes"/>
      <point x="121" y="307"/>
      <point x="112" y="271"/>
      <point x="112" y="223" type="curve" smooth="yes"/>
      <point x="112" y="116"/>
      <point x="158" y="62"/>
      <point x="244" y="62" type="curve" smooth="yes"/>
      <point x="336" y="62"/>
      <point x="381" y="106"/>
      <point x="381" y="212" type="curve" smooth="yes"/>
      <point x="381" y="219" type="line"/>
      <point x="450" y="219" type="line"/>
      <point x="450" y="212" type="line" smooth="yes"/>
      <point x="450" y="107"/>
      <point x="495" y="62"/>
      <point x="587" y="62" type="curve" smooth="yes"/>
      <point x="673" y="62"/>
      <point x="719" y="116"/>
      <point x="719" y="223" type="curve" smooth="yes"/>
      <point x="719" y="271"/>
      <point x="709" y="307"/>
      <point x="690" y="332" type="curve"/>
      <point x="652" y="381"/>
      <point x="577" y="398"/>
      <point x="456" y="398" type="curve" smooth="yes"/>
      <point x="432" y="398" type="line"/>
      <point x="432" y="440" type="line" smooth="yes"/>
      <point x="432" y="560"/>
      <point x="493" y="627"/>
      <point x="605" y="627" type="curve" smooth="yes"/>
      <point x="697" y="627"/>
      <point x="752" y="584"/>
      <point x="752" y="507" type="curve" smooth="yes"/>
      <point x="752" y="490"/>
      <point x="750" y="473"/>
      <point x="745" y="457" type="curve"/>
      <point x="673" y="468" type="line"/>
      <point x="676" y="481"/>
      <point x="678" y="491"/>
      <point x="678" y="499" type="curve" smooth="yes"/>
      <point x="678" y="539"/>
      <point x="652" y="559"/>
      <point x="599" y="559" type="curve" smooth="yes"/>
      <point x="542" y="559"/>
      <point x="507" y="524"/>
      <point x="505" y="466" type="curve"/>
      <point x="514" y="466" type="line" smooth="yes"/>
      <point x="696" y="466"/>
      <point x="794" y="382"/>
      <point x="794" y="222" type="curve" smooth="yes"/>
      <point x="794" y="149"/>
      <point x="775" y="92"/>
      <point x="738" y="50" type="curve" smooth="yes"/>
      <point x="701" y="9"/>
      <point x="651" y="-11"/>
      <point x="589" y="-11" type="curve" smooth="yes"/>
      <point x="515" y="-11"/>
      <point x="461" y="14"/>
      <point x="415" y="79" type="curve"/>
      <point x="390" y="44"/>
      <point x="364" y="21"/>
      <point x="336" y="8" type="curve" smooth="yes"/>
      <point x="309" y="-5"/>
      <point x="278" y="-11"/>
      <point x="241" y="-11" type="curve"/>
      <point x="122" y="-13"/>
      <point x="36" y="75"/>
      <point x="37" y="222" type="curve"/>
      <point x="37" y="384"/>
      <point x="135" y="466"/>
      <point x="317" y="466" type="curve" smooth="yes"/>
    </contour>
    <component base="uni0DD8" xOffset="831"/>
    <component base="uni0DD8" xOffset="1290"/>
  </outline>
</glyph>
<glyph name="uni0D91" format="1">
  <advance width="1198"/>
  <unicode hex="0D91"/>
  <outline>
    <contour>
      <point x="1049" y="483" type="curve"/>
      <point x="1041" y="475"/>
      <point x="1025" y="470"/>
      <point x="1013" y="470" type="curve" smooth="yes"/>
      <point x="989" y="470"/>
      <point x="970" y="495"/>
      <point x="974" y="516" type="curve" smooth="yes"/>
      <point x="975" y="523"/>
      <point x="978" y="531"/>
      <point x="984" y="540" type="curve" smooth="yes"/>
      <point x="989" y="548"/>
      <point x="998" y="557"/>
      <point x="1008" y="567" type="curve" smooth="yes"/>
      <point x="1016" y="574"/>
      <point x="1025" y="581"/>
      <point x="1035" y="589" type="curve" smooth="yes"/>
      <point x="1041" y="594"/>
      <point x="1047" y="598"/>
      <point x="1052" y="603" type="curve" smooth="yes"/>
      <point x="1052" y="603"/>
      <point x="1052" y="603"/>
      <point x="1052" y="602" type="curve" smooth="yes"/>
      <point x="1052" y="588" type="line" smooth="yes"/>
      <point x="1052" y="572"/>
      <point x="1052" y="559"/>
      <point x="1052" y="543" type="curve" smooth="yes"/>
      <point x="1052" y="504"/>
      <point x="1052" y="493"/>
    </contour>
    <contour>
      <point x="335" y="144" type="curve" smooth="yes"/>
      <point x="322" y="125"/>
      <point x="302" y="110"/>
      <point x="281" y="103" type="curve" smooth="yes"/>
      <point x="264" y="98"/>
      <point x="245" y="96"/>
      <point x="227" y="100" type="curve"/>
      <point x="210" y="104"/>
      <point x="194" y="111"/>
      <point x="181" y="123" type="curve" smooth="yes"/>
      <point x="167" y="135"/>
      <point x="157" y="150"/>
      <point x="152" y="167" type="curve" smooth="yes"/>
      <point x="146" y="183"/>
      <point x="146" y="201"/>
      <point x="149" y="218" type="curve"/>
      <point x="157" y="258"/>
      <point x="194" y="300"/>
      <point x="254" y="302" type="curve" smooth="yes"/>
      <point x="278" y="302"/>
      <point x="307" y="291"/>
      <point x="324" y="274" type="curve" smooth="yes"/>
      <point x="341" y="256"/>
      <point x="351" y="233"/>
      <point x="353" y="209" type="curve" smooth="yes"/>
      <point x="354" y="186"/>
      <point x="348" y="162"/>
    </contour>
    <contour>
      <point x="1149" y="816" type="line"/>
      <point x="1051" y="816" type="line"/>
      <point x="1051" y="796"/>
      <point x="1039" y="728"/>
      <point x="1011" y="698" type="curve" smooth="yes"/>
      <point x="1001" y="687"/>
      <point x="987" y="676"/>
      <point x="974" y="665" type="curve" smooth="yes"/>
      <point x="963" y="656"/>
      <point x="952" y="648"/>
      <point x="942" y="638" type="curve" smooth="yes"/>
      <point x="926" y="623"/>
      <point x="913" y="608"/>
      <point x="903" y="593" type="curve" smooth="yes"/>
      <point x="889" y="572"/>
      <point x="881" y="551"/>
      <point x="878" y="529" type="curve"/>
      <point x="872" y="491"/>
      <point x="884" y="450"/>
      <point x="909" y="421" type="curve"/>
      <point x="935" y="392"/>
      <point x="973" y="373"/>
      <point x="1011" y="373" type="curve" smooth="yes"/>
      <point x="1022" y="373"/>
      <point x="1032" y="373"/>
      <point x="1042" y="375" type="curve"/>
      <point x="1037" y="345"/>
      <point x="1028" y="315"/>
      <point x="1015" y="288" type="curve" smooth="yes"/>
      <point x="980" y="213"/>
      <point x="912" y="150"/>
      <point x="828" y="116" type="curve" smooth="yes"/>
      <point x="775" y="95"/>
      <point x="715" y="85"/>
      <point x="659" y="87" type="curve"/>
      <point x="659" y="348" type="line"/>
      <point x="686" y="360"/>
      <point x="710" y="376"/>
      <point x="730" y="394" type="curve" smooth="yes"/>
      <point x="785" y="442"/>
      <point x="814" y="516"/>
      <point x="809" y="589" type="curve"/>
      <point x="709" y="573" type="line"/>
      <point x="711" y="503"/>
      <point x="660" y="448"/>
      <point x="593" y="431" type="curve" smooth="yes"/>
      <point x="568" y="425"/>
      <point x="541" y="425"/>
      <point x="494" y="426" type="curve" smooth="yes"/>
      <point x="416" y="427"/>
      <point x="343" y="434"/>
      <point x="270" y="425" type="curve" smooth="yes"/>
      <point x="211" y="418"/>
      <point x="167" y="399"/>
      <point x="128" y="370" type="curve" smooth="yes"/>
      <point x="85" y="337"/>
      <point x="58" y="288"/>
      <point x="47" y="240" type="curve" smooth="yes"/>
      <point x="38" y="205"/>
      <point x="41" y="168"/>
      <point x="52" y="133" type="curve"/>
      <point x="64" y="99"/>
      <point x="84" y="68"/>
      <point x="111" y="44" type="curve" smooth="yes"/>
      <point x="138" y="21"/>
      <point x="172" y="4"/>
      <point x="207" y="-3" type="curve" smooth="yes"/>
      <point x="220" y="-6"/>
      <point x="234" y="-7"/>
      <point x="248" y="-7" type="curve" smooth="yes"/>
      <point x="270" y="-7"/>
      <point x="292" y="-3"/>
      <point x="312" y="3" type="curve"/>
      <point x="357" y="18"/>
      <point x="395" y="46"/>
      <point x="421" y="84" type="curve" smooth="yes"/>
      <point x="448" y="123"/>
      <point x="461" y="169"/>
      <point x="458" y="216" type="curve" smooth="yes"/>
      <point x="456" y="254"/>
      <point x="434" y="297"/>
      <point x="411" y="328" type="curve"/>
      <point x="437" y="323"/>
      <point x="470" y="321"/>
      <point x="492" y="320" type="curve" smooth="yes"/>
      <point x="524" y="319"/>
      <point x="542" y="320"/>
      <point x="563" y="322" type="curve"/>
      <point x="562" y="2" type="line"/>
      <point x="606" y="-6" type="line"/>
      <point x="630" y="-9"/>
      <point x="654" y="-10"/>
      <point x="678" y="-10" type="curve" smooth="yes"/>
      <point x="741" y="-10"/>
      <point x="805" y="2"/>
      <point x="865" y="26" type="curve" smooth="yes"/>
      <point x="971" y="69"/>
      <point x="1059" y="150"/>
      <point x="1103" y="247" type="curve"/>
      <point x="1146" y="339"/>
      <point x="1151" y="438"/>
      <point x="1151" y="536" type="curve" smooth="yes"/>
    </contour>
  </outline>
</glyph>
<glyph name="uni0D9E" format="1">
  <advance width="912"/>
  <unicode hex="0D9E"/>
  <outline>
    <contour>
      <point x="0" y="0" type="move" name="cursive4"/>
    </contour>
    <contour>
      <point x="0" y="0" type="move" name="_cursive4"/>
    </contour>
    <contour>
      <point x="0" y="0" type="move" name="cursive4"/>
    </contour>
    <contour>
      <point x="0" y="0" type="move" name="_cursive4"/>
    </contour>
    <contour>
      <point x="0" y="0" type="move" name="cursive4"/>
    </contour>
    <contour>
      <point x="0" y="0" type="move" name="_cursive4"/>
    </contour>
    <contour>
      <point x="0" y="0" type="move" name="cursive4"/>
    </contour>
    <contour>
      <point x="0" y="0" type="move" name="_cursive4"/>
    </contour>
    <contour>
      <point x="0" y="0" type="move" name="cursive4"/>
    </contour>
    <contour>
      <point x="0" y="0" type="move" name="_cursive4"/>
    </contour>
    <contour>
      <point x="0" y="0" type="move" name="cursive4"/>
    </contour>
    <contour>
      <point x="0" y="0" type="move" name="_cursive4"/>
    </contour>
    <contour>
      <point x="0" y="0" type="move" name="cursive4"/>
    </contour>
    <contour>
      <point x="0" y="0" type="move" name="_cursive4"/>
    </contour>
    <contour>
      <point x="0" y="0" type="move" name="cursive4"/>
    </contour>
    <contour>
      <point x="0" y="0" type="move" name="_cursive4"/>
    </contour>
    <contour>
      <point x="0" y="0" type="move" name="cursive4"/>
    </contour>
    <contour>
      <point x="0" y="0" type="move" name="_cursive4"/>
    </contour>
    <contour>
      <point x="0" y="0" type="move" name="cursive4"/>
    </contour>
    <contour>
      <point x="0" y="0" type="move" name="_cursive4"/>
    </contour>
    <contour>
      <point x="0" y="0" type="move" name="cursive4"/>
    </contour>
    <contour>
      <point x="0" y="0" type="move" name="_cursive4"/>
    </contour>
    <contour>
      <point x="0" y="0" type="move" name="cursive4"/>
    </contour>
    <contour>
      <point x="0" y="0" type="move" name="_cursive4"/>
    </contour>
    <contour>
      <point x="870" y="356" type="curve" smooth="yes"/>
      <point x="870" y="112"/>
      <point x="786" y="-11"/>
      <point x="620" y="-11" type="curve" smooth="yes"/>
      <point x="552" y="-11"/>
      <point x="500" y="16"/>
      <point x="454" y="79" type="curve"/>
      <point x="410" y="13"/>
      <point x="357" y="-11"/>
      <point x="281" y="-11" type="curve" smooth="yes"/>
      <point x="218" y="-11"/>
      <point x="168" y="6"/>
      <point x="131" y="41" type="curve"/>
      <point x="95" y="77"/>
      <point x="76" y="125"/>
      <point x="76" y="187" type="curve" smooth="yes"/>
      <point x="76" y="242"/>
      <point x="93" y="287"/>
      <point x="127" y="320" type="curve" smooth="yes"/>
      <point x="161" y="354"/>
      <point x="217" y="383"/>
      <point x="297" y="406" type="curve" smooth="yes"/>
      <point x="332" y="417" type="line" smooth="yes"/>
      <point x="360" y="425"/>
      <point x="379" y="431"/>
      <point x="392" y="436" type="curve" smooth="yes"/>
      <point x="417" y="447"/>
      <point x="430" y="462"/>
      <point x="430" y="490" type="curve" smooth="yes"/>
      <point x="430" y="538"/>
      <point x="372" y="559"/>
      <point x="254" y="559" type="curve" smooth="yes"/>
      <point x="251" y="559" type="line"/>
      <point x="265" y="537"/>
      <point x="273" y="509"/>
      <point x="273" y="485" type="curve" smooth="yes"/>
      <point x="273" y="448"/>
      <point x="261" y="420"/>
      <point x="237" y="400" type="curve" smooth="yes"/>
      <point x="213" y="381"/>
      <point x="183" y="371"/>
      <point x="147" y="371" type="curve" smooth="yes"/>
      <point x="109" y="371"/>
      <point x="79" y="381"/>
      <point x="58" y="401" type="curve" smooth="yes"/>
      <point x="36" y="422"/>
      <point x="26" y="449"/>
      <point x="26" y="482" type="curve" smooth="yes"/>
      <point x="26" y="572"/>
      <point x="108" y="627"/>
      <point x="262" y="627" type="curve" smooth="yes"/>
      <point x="423" y="627"/>
      <point x="504" y="580"/>
      <point x="504" y="489" type="curve"/>
      <point x="503" y="406"/>
      <point x="447" y="381"/>
      <point x="326" y="347" type="curve"/>
      <point x="263" y="331"/>
      <point x="218" y="310"/>
      <point x="191" y="285" type="curve" smooth="yes"/>
      <point x="165" y="260"/>
      <point x="151" y="227"/>
      <point x="151" y="187" type="curve" smooth="yes"/>
      <point x="151" y="105"/>
      <point x="198" y="62"/>
      <point x="284" y="62" type="curve" smooth="yes"/>
      <point x="376" y="62"/>
      <point x="421" y="106"/>
      <point x="421" y="212" type="curve" smooth="yes"/>
      <point x="421" y="219" type="line"/>
      <point x="490" y="219" type="line"/>
      <point x="490" y="212" type="line" smooth="yes"/>
      <point x="490" y="111"/>
      <point x="532" y="62"/>
      <point x="619" y="62" type="curve" smooth="yes"/>
      <point x="735" y="62"/>
      <point x="793" y="159"/>
      <point x="793" y="353" type="curve" smooth="yes"/>
      <point x="793" y="639"/>
      <point x="670" y="784"/>
      <point x="430" y="784" type="curve" smooth="yes"/>
      <point x="316" y="784"/>
      <point x="217" y="760"/>
      <point x="120" y="702" type="curve"/>
      <point x="86" y="769" type="line"/>
      <point x="193" y="829"/>
      <point x="304" y="856"/>
      <point x="435" y="856" type="curve" smooth="yes"/>
      <point x="576" y="856"/>
      <point x="684" y="814"/>
      <point x="758" y="729" type="curve" smooth="yes"/>
      <point x="833" y="644"/>
      <point x="870" y="519"/>
    </contour>
    <contour>
      <point x="183" y="554" type="curve"/>
      <point x="125" y="546"/>
      <point x="98" y="520"/>
      <point x="98" y="488" type="curve" smooth="yes"/>
      <point x="98" y="456"/>
      <point x="116" y="437"/>
      <point x="150" y="437" type="curve" smooth="yes"/>
      <point x="186" y="437"/>
      <point x="203" y="456"/>
      <point x="203" y="489" type="curve" smooth="yes"/>
      <point x="203" y="515"/>
      <point x="197" y="537"/>
    </contour>
  </outline>
</glyph>
<glyph name="uni0DA0" format="1">
  <advance width="834"/>
  <unicode hex="0DA0"/>
  <outline>
    <contour>
      <point x="0" y="0" type="move" name="cursive6"/>
    </contour>
    <contour>
      <point x="0" y="0" type="move" name="_cursive6"/>
    </contour>
    <contour>
      <point x="0" y="0" type="move" name="cursive6"/>
    </contour>
    <contour>
      <point x="0" y="0" type="move" name="_cursive6"/>
    </contour>
    <contour>
      <point x="0" y="0" type="move" name="cursive6"/>
    </contour>
    <contour>
      <point x="0" y="0" type="move" name="_cursive6"/>
    </contour>
    <contour>
      <point x="0" y="0" type="move" name="cursive6"/>
    </contour>
    <contour>
      <point x="0" y="0" type="move" name="_cursive6"/>
    </contour>
    <contour>
      <point x="0" y="0" type="move" name="cursive6"/>
    </contour>
    <contour>
      <point x="0" y="0" type="move" name="_cursive6"/>
    </contour>
    <contour>
      <point x="0" y="0" type="move" name="cursive6"/>
    </contour>
    <contour>
      <point x="0" y="0" type="move" name="_cursive6"/>
    </contour>
    <contour>
      <point x="0" y="0" type="move" name="cursive6"/>
    </contour>
    <contour>
      <point x="0" y="0" type="move" name="_cursive6"/>
    </contour>
    <contour>
      <point x="0" y="0" type="move" name="cursive6"/>
    </contour>
    <contour>
      <point x="0" y="0" type="move" name="_cursive6"/>
    </contour>
    <contour>
      <point x="0" y="0" type="move" name="cursive6"/>
    </contour>
    <contour>
      <point x="0" y="0" type="move" name="_cursive6"/>
    </contour>
    <contour>
      <point x="0" y="0" type="move" name="cursive6"/>
    </contour>
    <contour>
      <point x="0" y="0" type="move" name="_cursive6"/>
    </contour>
    <contour>
      <point x="0" y="0" type="move" name="cursive6"/>
    </contour>
    <contour>
      <point x="0" y="0" type="move" name="_cursive6"/>
    </contour>
    <contour>
      <point x="0" y="0" type="move" name="cursive6"/>
    </contour>
    <contour>
      <point x="0" y="0" type="move" name="_cursive6"/>
    </contour>
    <contour>
      <point x="797" y="428" type="curve" smooth="yes"/>
      <point x="797" y="339"/>
      <point x="781" y="262"/>
      <point x="747" y="195" type="curve" smooth="yes"/>
      <point x="681" y="61"/>
      <point x="550" y="-11"/>
      <point x="369" y="-11" type="curve"/>
      <point x="161" y="-12"/>
      <point x="47" y="93"/>
      <point x="50" y="232" type="curve"/>
      <point x="50" y="309"/>
      <point x="84" y="368"/>
      <point x="146" y="402" type="curve"/>
      <point x="123" y="399"/>
      <point x="93" y="398"/>
      <point x="56" y="398" type="curve" smooth="yes"/>
      <point x="31" y="398" type="line"/>
      <point x="31" y="466" type="line"/>
      <point x="401" y="466" type="line"/>
      <point x="397" y="525"/>
      <point x="362" y="559"/>
      <point x="306" y="559" type="curve" smooth="yes"/>
      <point x="253" y="559"/>
      <point x="227" y="539"/>
      <point x="227" y="502" type="curve" smooth="yes"/>
      <point x="227" y="496" type="line" smooth="yes"/>
      <point x="227" y="493"/>
      <point x="227" y="491"/>
      <point x="228" y="489" type="curve"/>
      <point x="155" y="485" type="line"/>
      <point x="154" y="493"/>
      <point x="153" y="500"/>
      <point x="153" y="508" type="curve" smooth="yes"/>
      <point x="153" y="584"/>
      <point x="208" y="627"/>
      <point x="300" y="627" type="curve" smooth="yes"/>
      <point x="412" y="627"/>
      <point x="473" y="560"/>
      <point x="473" y="440" type="curve" smooth="yes"/>
      <point x="473" y="398" type="line"/>
      <point x="385" y="398" type="line" smooth="yes"/>
      <point x="327" y="398"/>
      <point x="285" y="396"/>
      <point x="259" y="392" type="curve" smooth="yes"/>
      <point x="232" y="387"/>
      <point x="208" y="378"/>
      <point x="186" y="364" type="curve" smooth="yes"/>
      <point x="144" y="336"/>
      <point x="124" y="294"/>
      <point x="124" y="238" type="curve" smooth="yes"/>
      <point x="124" y="182"/>
      <point x="145" y="139"/>
      <point x="188" y="108" type="curve" smooth="yes"/>
      <point x="230" y="77"/>
      <point x="291" y="62"/>
      <point x="369" y="62" type="curve" smooth="yes"/>
      <point x="443" y="62"/>
      <point x="506" y="76"/>
      <point x="558" y="104" type="curve" smooth="yes"/>
      <point x="610" y="133"/>
      <point x="650" y="175"/>
      <point x="678" y="231" type="curve" smooth="yes"/>
      <point x="706" y="287"/>
      <point x="720" y="353"/>
      <point x="720" y="428" type="curve" smooth="yes"/>
      <point x="720" y="504"/>
      <point x="706" y="569"/>
      <point x="678" y="622" type="curve"/>
      <point x="650" y="676"/>
      <point x="610" y="716"/>
      <point x="557" y="743" type="curve" smooth="yes"/>
      <point x="505" y="771"/>
      <point x="447" y="784"/>
      <point x="382" y="784" type="curve" smooth="yes"/>
      <point x="326" y="784"/>
      <point x="275" y="778"/>
      <point x="227" y="765" type="curve" smooth="yes"/>
      <point x="180" y="752"/>
      <point x="132" y="731"/>
      <point x="82" y="702" type="curve"/>
      <point x="49" y="769" type="line"/>
      <point x="151" y="827"/>
      <point x="262" y="856"/>
      <point x="383" y="856" type="curve" smooth="yes"/>
      <point x="465" y="856"/>
      <point x="538" y="839"/>
      <point x="601" y="805" type="curve" smooth="yes"/>
      <point x="728" y="737"/>
      <point x="797" y="606"/>
    </contour>
  </outline>
</glyph>
<glyph name="uni0DA3" format="1">
  <advance width="1468"/>
  <unicode hex="0DA3"/>
  <outline>
    <contour>
      <point x="0" y="0" type="move" name="cursive9"/>
    </contour>
    <contour>
      <point x="0" y="0" type="move" name="_cursive9"/>
    </contour>
    <contour>
      <point x="0" y="0" type="move" name="cursive9"/>
    </contour>
    <contour>
      <point x="0" y="0" type="move" name="_cursive9"/>
    </contour>
    <contour>
      <point x="0" y="0" type="move" name="cursive9"/>
    </contour>
    <contour>
      <point x="0" y="0" type="move" name="_cursive9"/>
    </contour>
    <contour>
      <point x="0" y="0" type="move" name="cursive9"/>
    </contour>
    <contour>
      <point x="0" y="0" type="move" name="_cursive9"/>
    </contour>
    <contour>
      <point x="0" y="0" type="move" name="cursive9"/>
    </contour>
    <contour>
      <point x="0" y="0" type="move" name="_cursive9"/>
    </contour>
    <contour>
      <point x="0" y="0" type="move" name="cursive9"/>
    </contour>
    <contour>
      <point x="0" y="0" type="move" name="_cursive9"/>
    </contour>
    <contour>
      <point x="0" y="0" type="move" name="cursive9"/>
    </contour>
    <contour>
      <point x="0" y="0" type="move" name="_cursive9"/>
    </contour>
    <contour>
      <point x="0" y="0" type="move" name="cursive9"/>
    </contour>
    <contour>
      <point x="0" y="0" type="move" name="_cursive9"/>
    </contour>
    <contour>
      <point x="0" y="0" type="move" name="cursive9"/>
    </contour>
    <contour>
      <point x="0" y="0" type="move" name="_cursive9"/>
    </contour>
    <contour>
      <point x="0" y="0" type="move" name="cursive9"/>
    </contour>
    <contour>
      <point x="0" y="0" type="move" name="_cursive9"/>
    </contour>
    <contour>
      <point x="0" y="0" type="move" name="cursive9"/>
    </contour>
    <contour>
      <point x="0" y="0" type="move" name="_cursive9"/>
    </contour>
    <contour>
      <point x="0" y="0" type="move" name="cursive9"/>
    </contour>
    <contour>
      <point x="0" y="0" type="move" name="_cursive9"/>
    </contour>
    <contour>
      <point x="1427" y="356" type="curve" smooth="yes"/>
      <point x="1427" y="113"/>
      <point x="1344" y="-11"/>
      <point x="1183" y="-11" type="curve" smooth="yes"/>
      <point x="1117" y="-11"/>
      <point x="1066" y="15"/>
      <point x="1022" y="79" type="curve"/>
      <point x="998" y="45"/>
      <point x="973" y="21"/>
      <point x="948" y="8" type="curve" smooth="yes"/>
      <point x="922" y="-5"/>
      <point x="891" y="-11"/>
      <point x="853" y="-11" type="curve" smooth="yes"/>
      <point x="781" y="-11"/>
      <point x="725" y="22"/>
      <point x="695" y="84" type="curve"/>
      <point x="668" y="22"/>
      <point x="621" y="-11"/>
      <point x="558" y="-11" type="curve" smooth="yes"/>
      <point x="494" y="-11"/>
      <point x="444" y="19"/>
      <point x="408" y="79" type="curve"/>
      <point x="374" y="16"/>
      <point x="332" y="-11"/>
      <point x="264" y="-11" type="curve" smooth="yes"/>
      <point x="215" y="-11"/>
      <point x="175" y="4"/>
      <point x="145" y="35" type="curve"/>
      <point x="115" y="67"/>
      <point x="100" y="112"/>
      <point x="100" y="170" type="curve"/>
      <point x="87" y="147" type="line"/>
      <point x="22" y="184" type="line"/>
      <point x="111" y="311"/>
      <point x="187" y="403"/>
      <point x="249" y="460" type="curve"/>
      <point x="235" y="512"/>
      <point x="210" y="538"/>
      <point x="172" y="538" type="curve" smooth="yes"/>
      <point x="133" y="538"/>
      <point x="108" y="517"/>
      <point x="108" y="470" type="curve" smooth="yes"/>
      <point x="108" y="455"/>
      <point x="111" y="436"/>
      <point x="119" y="413" type="curve"/>
      <point x="47" y="398" type="line"/>
      <point x="38" y="426"/>
      <point x="34" y="452"/>
      <point x="34" y="478" type="curve" smooth="yes"/>
      <point x="34" y="559"/>
      <point x="86" y="606"/>
      <point x="171" y="606" type="curve" smooth="yes"/>
      <point x="235" y="606"/>
      <point x="280" y="571"/>
      <point x="303" y="508" type="curve"/>
      <point x="352" y="547"/>
      <point x="402" y="577"/>
      <point x="453" y="597" type="curve" smooth="yes"/>
      <point x="505" y="617"/>
      <point x="567" y="627"/>
      <point x="641" y="627" type="curve" smooth="yes"/>
      <point x="757" y="627"/>
      <point x="861" y="585"/>
      <point x="953" y="502" type="curve"/>
      <point x="927" y="427" type="line"/>
      <point x="802" y="421"/>
      <point x="729" y="341"/>
      <point x="729" y="225" type="curve" smooth="yes"/>
      <point x="729" y="120"/>
      <point x="776" y="62"/>
      <point x="860" y="62" type="curve" smooth="yes"/>
      <point x="944" y="62"/>
      <point x="988" y="108"/>
      <point x="988" y="212" type="curve" smooth="yes"/>
      <point x="988" y="219" type="line"/>
      <point x="1056" y="219" type="line"/>
      <point x="1056" y="212" type="line" smooth="yes"/>
      <point x="1056" y="111"/>
      <point x="1097" y="62"/>
      <point x="1181" y="62" type="curve" smooth="yes"/>
      <point x="1293" y="62"/>
      <point x="1349" y="159"/>
      <point x="1349" y="353" type="curve" smooth="yes"/>
      <point x="1349" y="639"/>
      <point x="1230" y="784"/>
      <point x="998" y="784" type="curve" smooth="yes"/>
      <point x="940" y="784"/>
      <point x="887" y="778"/>
      <point x="840" y="765" type="curve" smooth="yes"/>
      <point x="792" y="753"/>
      <point x="745" y="732"/>
      <point x="696" y="702" type="curve"/>
      <point x="663" y="769" type="line"/>
      <point x="768" y="830"/>
      <point x="876" y="856"/>
      <point x="1002" y="856" type="curve" smooth="yes"/>
      <point x="1140" y="856"/>
      <point x="1245" y="814"/>
      <point x="1317" y="729" type="curve" smooth="yes"/>
      <point x="1390" y="645"/>
      <point x="1427" y="520"/>
    </contour>
    <contour>
      <point x="325" y="441" type="curve"/>
      <point x="358" y="453"/>
      <point x="398" y="459"/>
      <point x="444" y="459" type="curve" smooth="yes"/>
      <point x="557" y="459"/>
      <point x="641" y="418"/>
      <point x="683" y="339" type="curve"/>
      <point x="714" y="420"/>
      <point x="774" y="469"/>
      <point x="864" y="485" type="curve"/>
      <point x="826" y="511"/>
      <point x="789" y="529"/>
      <point x="754" y="540" type="curve" smooth="yes"/>
      <point x="719" y="551"/>
      <point x="680" y="557"/>
      <point x="637" y="557" type="curve" smooth="yes"/>
      <point x="513" y="557"/>
      <point x="416" y="521"/>
    </contour>
    <contour>
      <point x="248" y="363" type="curve"/>
      <point x="219" y="330"/>
      <point x="181" y="282"/>
      <point x="137" y="219" type="curve"/>
      <point x="168" y="219" type="line"/>
      <point x="167" y="212"/>
      <point x="166" y="202"/>
      <point x="166" y="191" type="curve" smooth="yes"/>
      <point x="166" y="99"/>
      <point x="200" y="62"/>
      <point x="269" y="62" type="curve" smooth="yes"/>
      <point x="339" y="62"/>
      <point x="374" y="109"/>
      <point x="374" y="212" type="curve" smooth="yes"/>
      <point x="374" y="219" type="line"/>
      <point x="442" y="219" type="line"/>
      <point x="442" y="208" type="line" smooth="yes"/>
      <point x="442" y="118"/>
      <point x="482" y="62"/>
      <point x="550" y="62" type="curve" smooth="yes"/>
      <point x="618" y="62"/>
      <point x="656" y="106"/>
      <point x="656" y="195" type="curve" smooth="yes"/>
      <point x="656" y="321"/>
      <point x="576" y="389"/>
      <point x="430" y="389" type="curve" smooth="yes"/>
      <point x="386" y="389"/>
      <point x="351" y="387"/>
      <point x="325" y="382" type="curve" smooth="yes"/>
      <point x="299" y="378"/>
      <point x="273" y="372"/>
    </contour>
  </outline>
</glyph>
<glyph name="uni0DA4" format="1">
  <advance width="1329"/>
  <unicode hex="0DA4"/>
  <outline>
    <contour>
      <point x="0" y="0" type="move" name="cursive10"/>
    </contour>
    <contour>
      <point x="0" y="0" type="move" name="_cursive10"/>
    </contour>
    <contour>
      <point x="0" y="0" type="move" name="cursive10"/>
    </contour>
    <contour>
      <point x="0" y="0" type="move" name="_cursive10"/>
    </contour>
    <contour>
      <point x="0" y="0" type="move" name="cursive10"/>
    </contour>
    <contour>
      <point x="0" y="0" type="move" name="_cursive10"/>
    </contour>
    <contour>
      <point x="0" y="0" type="move" name="cursive10"/>
    </contour>
    <contour>
      <point x="0" y="0" type="move" name="_cursive10"/>
    </contour>
    <contour>
      <point x="0" y="0" type="move" name="cursive10"/>
    </contour>
    <contour>
      <point x="0" y="0" type="move" name="_cursive10"/>
    </contour>
    <contour>
      <point x="0" y="0" type="move" name="cursive10"/>
    </contour>
    <contour>
      <point x="0" y="0" type="move" name="_cursive10"/>
    </contour>
    <contour>
      <point x="0" y="0" type="move" name="cursive10"/>
    </contour>
    <contour>
      <point x="0" y="0" type="move" name="_cursive10"/>
    </contour>
    <contour>
      <point x="0" y="0" type="move" name="cursive10"/>
    </contour>
    <contour>
      <point x="0" y="0" type="move" name="_cursive10"/>
    </contour>
    <contour>
      <point x="0" y="0" type="move" name="cursive10"/>
    </contour>
    <contour>
      <point x="0" y="0" type="move" name="_cursive10"/>
    </contour>
    <contour>
      <point x="0" y="0" type="move" name="cursive10"/>
    </contour>
    <contour>
      <point x="0" y="0" type="move" name="_cursive10"/>
    </contour>
    <contour>
      <point x="0" y="0" type="move" name="cursive10"/>
    </contour>
    <contour>
      <point x="0" y="0" type="move" name="_cursive10"/>
    </contour>
    <contour>
      <point x="0" y="0" type="move" name="cursive10"/>
    </contour>
    <contour>
      <point x="0" y="0" type="move" name="_cursive10"/>
    </contour>
    <contour>
      <point x="1101" y="-11" type="curve" smooth="yes"/>
      <point x="979" y="-11"/>
      <point x="895" y="24"/>
      <point x="849" y="95" type="curve"/>
      <point x="824" y="25"/>
      <point x="775" y="-11"/>
      <point x="705" y="-11" type="curve" smooth="yes"/>
      <point x="641" y="-11"/>
      <point x="591" y="19"/>
      <point x="555" y="79" type="curve"/>
      <point x="521" y="15"/>
      <point x="478" y="-11"/>
      <point x="412" y="-11" type="curve" smooth="yes"/>
      <point x="362" y="-11"/>
      <point x="322" y="4"/>
      <point x="292" y="35" type="curve"/>
      <point x="262" y="67"/>
      <point x="247" y="112"/>
      <point x="247" y="170" type="curve"/>
      <point x="234" y="147" type="line"/>
      <point x="169" y="184" type="line"/>
      <point x="254" y="306"/>
      <point x="330" y="398"/>
      <point x="396" y="460" type="curve"/>
      <point x="382" y="512"/>
      <point x="357" y="538"/>
      <point x="320" y="538" type="curve" smooth="yes"/>
      <point x="280" y="538"/>
      <point x="255" y="517"/>
      <point x="255" y="470" type="curve" smooth="yes"/>
      <point x="255" y="454"/>
      <point x="259" y="435"/>
      <point x="266" y="413" type="curve"/>
      <point x="194" y="398" type="line"/>
      <point x="191" y="407"/>
      <point x="188" y="420"/>
      <point x="186" y="437" type="curve" smooth="yes"/>
      <point x="183" y="455"/>
      <point x="182" y="470"/>
      <point x="182" y="484" type="curve" smooth="yes"/>
      <point x="182" y="488" type="line" smooth="yes"/>
      <point x="182" y="490"/>
      <point x="182" y="492"/>
      <point x="183" y="493" type="curve"/>
      <point x="135" y="453"/>
      <point x="112" y="391"/>
      <point x="112" y="310" type="curve" smooth="yes"/>
      <point x="112" y="270"/>
      <point x="117" y="234"/>
      <point x="129" y="201" type="curve" smooth="yes"/>
      <point x="140" y="168"/>
      <point x="160" y="132"/>
      <point x="188" y="93" type="curve"/>
      <point x="122" y="54" type="line"/>
      <point x="63" y="140"/>
      <point x="37" y="222"/>
      <point x="37" y="314" type="curve" smooth="yes"/>
      <point x="37" y="394"/>
      <point x="59" y="461"/>
      <point x="104" y="515" type="curve" smooth="yes"/>
      <point x="150" y="569"/>
      <point x="211" y="599"/>
      <point x="289" y="604" type="curve"/>
      <point x="294" y="606"/>
      <point x="301" y="606"/>
      <point x="309" y="606" type="curve" smooth="yes"/>
      <point x="379" y="606"/>
      <point x="427" y="573"/>
      <point x="451" y="508" type="curve"/>
      <point x="502" y="549"/>
      <point x="555" y="579"/>
      <point x="609" y="598" type="curve" smooth="yes"/>
      <point x="663" y="617"/>
      <point x="728" y="627"/>
      <point x="803" y="627" type="curve" smooth="yes"/>
      <point x="844" y="627"/>
      <point x="881" y="624"/>
      <point x="913" y="618" type="curve" smooth="yes"/>
      <point x="945" y="612"/>
      <point x="977" y="603"/>
      <point x="1008" y="591" type="curve"/>
      <point x="1035" y="616"/>
      <point x="1069" y="627"/>
      <point x="1122" y="627" type="curve" smooth="yes"/>
      <point x="1236" y="627"/>
      <point x="1298" y="560"/>
      <point x="1298" y="440" type="curve" smooth="yes"/>
      <point x="1298" y="398" type="line"/>
      <point x="1141" y="398" type="line" smooth="yes"/>
      <point x="1081" y="398"/>
      <point x="1037" y="395"/>
      <point x="1008" y="390" type="curve" smooth="yes"/>
      <point x="978" y="384"/>
      <point x="954" y="374"/>
      <point x="933" y="360" type="curve" smooth="yes"/>
      <point x="893" y="332"/>
      <point x="876" y="290"/>
      <point x="876" y="234" type="curve" smooth="yes"/>
      <point x="876" y="181"/>
      <point x="896" y="139"/>
      <point x="936" y="108" type="curve" smooth="yes"/>
      <point x="976" y="77"/>
      <point x="1033" y="62"/>
      <point x="1109" y="62" type="curve" smooth="yes"/>
      <point x="1177" y="62"/>
      <point x="1241" y="76"/>
      <point x="1300" y="106" type="curve"/>
      <point x="1321" y="37" type="line"/>
      <point x="1291" y="22"/>
      <point x="1259" y="10"/>
      <point x="1224" y="1" type="curve"/>
      <point x="1180" y="-35"/>
      <point x="1158" y="-76"/>
      <point x="1158" y="-122" type="curve" smooth="yes"/>
      <point x="1158" y="-179"/>
      <point x="1190" y="-208"/>
      <point x="1255" y="-208" type="curve" smooth="yes"/>
      <point x="1282" y="-208"/>
      <point x="1306" y="-203"/>
      <point x="1328" y="-192" type="curve"/>
      <point x="1344" y="-258" type="line"/>
      <point x="1315" y="-271"/>
      <point x="1280" y="-278"/>
      <point x="1239" y="-278" type="curve" smooth="yes"/>
      <point x="1140" y="-278"/>
      <point x="1082" y="-221"/>
      <point x="1082" y="-124" type="curve" smooth="yes"/>
      <point x="1082" y="-83"/>
      <point x="1096" y="-45"/>
      <point x="1125" y="-11" type="curve"/>
      <point x="1112" y="-11" type="line"/>
      <point x="1109" y="-11"/>
      <point x="1105" y="-11"/>
    </contour>
    <contour>
      <point x="473" y="441" type="curve"/>
      <point x="506" y="453"/>
      <point x="546" y="459"/>
      <point x="591" y="459" type="curve" smooth="yes"/>
      <point x="707" y="459"/>
      <point x="787" y="420"/>
      <point x="831" y="343" type="curve"/>
      <point x="848" y="381"/>
      <point x="880" y="411"/>
      <point x="925" y="433" type="curve" smooth="yes"/>
      <point x="971" y="455"/>
      <point x="1042" y="466"/>
      <point x="1138" y="466" type="curve" smooth="yes"/>
      <point x="1225" y="466" type="line"/>
      <point x="1222" y="524"/>
      <point x="1187" y="559"/>
      <point x="1127" y="559" type="curve" smooth="yes"/>
      <point x="1072" y="559"/>
      <point x="1046" y="536"/>
      <point x="1046" y="503" type="curve" smooth="yes"/>
      <point x="1046" y="500"/>
      <point x="1046" y="495"/>
      <point x="1047" y="488" type="curve"/>
      <point x="974" y="479" type="line"/>
      <point x="972" y="489"/>
      <point x="972" y="497"/>
      <point x="972" y="504" type="curve" smooth="yes"/>
      <point x="972" y="515"/>
      <point x="972" y="523"/>
      <point x="973" y="527" type="curve"/>
      <point x="920" y="547"/>
      <point x="866" y="557"/>
      <point x="809" y="557" type="curve" smooth="yes"/>
      <point x="738" y="557"/>
      <point x="676" y="548"/>
      <point x="623" y="529" type="curve" smooth="yes"/>
      <point x="569" y="511"/>
      <point x="519" y="482"/>
    </contour>
    <contour>
      <point x="395" y="363" type="curve"/>
      <point x="362" y="326"/>
      <point x="325" y="278"/>
      <point x="284" y="219" type="curve"/>
      <point x="315" y="219" type="line"/>
      <point x="314" y="212"/>
      <point x="313" y="202"/>
      <point x="313" y="191" type="curve" smooth="yes"/>
      <point x="313" y="100"/>
      <point x="347" y="62"/>
      <point x="416" y="62" type="curve" smooth="yes"/>
      <point x="486" y="62"/>
      <point x="521" y="109"/>
      <point x="521" y="212" type="curve" smooth="yes"/>
      <point x="521" y="219" type="line"/>
      <point x="589" y="219" type="line"/>
      <point x="589" y="208" type="line" smooth="yes"/>
      <point x="589" y="118"/>
      <point x="629" y="62"/>
      <point x="697" y="62" type="curve" smooth="yes"/>
      <point x="765" y="62"/>
      <point x="803" y="106"/>
      <point x="803" y="195" type="curve" smooth="yes"/>
      <point x="803" y="320"/>
      <point x="724" y="389"/>
      <point x="577" y="389" type="curve" smooth="yes"/>
      <point x="533" y="389"/>
      <point x="498" y="387"/>
      <point x="472" y="382" type="curve" smooth="yes"/>
      <point x="446" y="378"/>
      <point x="420" y="372"/>
    </contour>
  </outline>
</glyph>
<glyph name="uni0DA6" format="1">
  <advance width="1006"/>
  <unicode hex="0DA6"/>
  <outline>
    <contour>
      <point x="85" y="0" type="move" name="cursive12"/>
    </contour>
    <contour>
      <point x="85" y="0" type="move" name="_cursive12"/>
    </contour>
    <contour>
      <point x="85" y="0" type="move" name="cursive12"/>
    </contour>
    <contour>
      <point x="85" y="0" type="move" name="_cursive12"/>
    </contour>
    <contour>
      <point x="85" y="0" type="move" name="cursive12"/>
    </contour>
    <contour>
      <point x="85" y="0" type="move" name="_cursive12"/>
    </contour>
    <contour>
      <point x="85" y="0" type="move" name="cursive12"/>
    </contour>
    <contour>
      <point x="85" y="0" type="move" name="_cursive12"/>
    </contour>
    <contour>
      <point x="85" y="0" type="move" name="cursive12"/>
    </contour>
    <contour>
      <point x="85" y="0" type="move" name="_cursive12"/>
    </contour>
    <contour>
      <point x="85" y="0" type="move" name="cursive12"/>
    </contour>
    <contour>
      <point x="85" y="0" type="move" name="_cursive12"/>
    </contour>
    <contour>
      <point x="85" y="0" type="move" name="cursive12"/>
    </contour>
    <contour>
      <point x="85" y="0" type="move" name="_cursive12"/>
    </contour>
    <contour>
      <point x="85" y="0" type="move" name="cursive12"/>
    </contour>
    <contour>
      <point x="85" y="0" type="move" name="_cursive12"/>
    </contour>
    <contour>
      <point x="85" y="0" type="move" name="cursive12"/>
    </contour>
    <contour>
      <point x="85" y="0" type="move" name="_cursive12"/>
    </contour>
    <contour>
      <point x="85" y="0" type="move" name="cursive12"/>
    </contour>
    <contour>
      <point x="85" y="0" type="move" name="_cursive12"/>
    </contour>
    <contour>
      <point x="85" y="0" type="move" name="cursive12"/>
    </contour>
    <contour>
      <point x="85" y="0" type="move" name="_cursive12"/>
    </contour>
    <contour>
      <point x="0" y="0" type="move" name="cursive12"/>
    </contour>
    <contour>
      <point x="0" y="0" type="move" name="_cursive12"/>
    </contour>
    <contour>
      <point x="261" y="675" type="curve" smooth="yes"/>
      <point x="215" y="688"/>
      <point x="32" y="717"/>
      <point x="32" y="466" type="curve" smooth="yes"/>
      <point x="32" y="382"/>
      <point x="45" y="253"/>
      <point x="45" y="253" type="curve"/>
      <point x="45" y="253"/>
      <point x="121" y="286"/>
      <point x="121" y="286" type="curve"/>
      <point x="120" y="286"/>
      <point x="118" y="405"/>
      <point x="118" y="503" type="curve"/>
      <point x="119" y="602"/>
      <point x="260" y="622"/>
      <point x="260" y="623" type="curve" smooth="yes"/>
      <point x="260" y="628"/>
      <point x="279" y="669"/>
    </contour>
    <component base="uni0DA2" xOffset="85"/>
  </outline>
</glyph>
<glyph name="uni0DA7" format="1">
  <advance width="940"/>
  <unicode hex="0DA7"/>
  <outline>
    <contour>
      <point x="0" y="0" type="move" name="cursive13"/>
    </contour>
    <contour>
      <point x="0" y="0" type="move" name="_cursive13"/>
    </contour>
    <contour>
      <point x="0" y="0" type="move" name="cursive13"/>
    </contour>
    <contour>
      <point x="0" y="0" type="move" name="_cursive13"/>
    </contour>
    <contour>
      <point x="0" y="0" type="move" name="cursive13"/>
    </contour>
    <contour>
      <point x="0" y="0" type="move" name="_cursive13"/>
    </contour>
    <contour>
      <point x="0" y="0" type="move" name="cursive13"/>
    </contour>
    <contour>
      <point x="0" y="0" type="move" name="_cursive13"/>
    </contour>
    <contour>
      <point x="0" y="0" type="move" name="cursive13"/>
    </contour>
    <contour>
      <point x="0" y="0" type="move" name="_cursive13"/>
    </contour>
    <contour>
      <point x="0" y="0" type="move" name="cursive13"/>
    </contour>
    <contour>
      <point x="0" y="0" type="move" name="_cursive13"/>
    </contour>
    <contour>
      <point x="0" y="0" type="move" name="cursive13"/>
    </contour>
    <contour>
      <point x="0" y="0" type="move" name="_cursive13"/>
    </contour>
    <contour>
      <point x="0" y="0" type="move" name="cursive13"/>
    </contour>
    <contour>
      <point x="0" y="0" type="move" name="_cursive13"/>
    </contour>
    <contour>
      <point x="0" y="0" type="move" name="cursive13"/>
    </contour>
    <contour>
      <point x="0" y="0" type="move" name="_cursive13"/>
    </contour>
    <contour>
      <point x="0" y="0" type="move" name="cursive13"/>
    </contour>
    <contour>
      <point x="0" y="0" type="move" name="_cursive13"/>
    </contour>
    <contour>
      <point x="0" y="0" type="move" name="cursive13"/>
    </contour>
    <contour>
      <point x="0" y="0" type="move" name="_cursive13"/>
    </contour>
    <contour>
      <point x="0" y="0" type="move" name="cursive13"/>
    </contour>
    <contour>
      <point x="0" y="0" type="move" name="_cursive13"/>
    </contour>
    <contour>
      <point x="804" y="476" type="curve" smooth="yes"/>
      <point x="748" y="611"/>
      <point x="662" y="737"/>
      <point x="555" y="837" type="curve"/>
      <point x="480" y="758" type="line"/>
      <point x="575" y="668"/>
      <point x="653" y="555"/>
      <point x="703" y="433" type="curve" smooth="yes"/>
      <point x="746" y="330"/>
      <point x="769" y="219"/>
      <point x="774" y="107" type="curve"/>
      <point x="147" y="109" type="line"/>
      <point x="146" y="383" type="line"/>
      <point x="36" y="383" type="line"/>
      <point x="37" y="0" type="line"/>
      <point x="884" y="-3" type="line"/>
      <point x="884" y="52" type="line"/>
      <point x="888" y="196"/>
      <point x="860" y="343"/>
    </contour>
  </outline>
</glyph>
<glyph name="uni0DA9" format="1">
  <advance width="965"/>
  <unicode hex="0DA9"/>
  <outline>
    <contour>
      <point x="0" y="0" type="move" name="cursive15"/>
    </contour>
    <contour>
      <point x="0" y="0" type="move" name="_cursive15"/>
    </contour>
    <contour>
      <point x="0" y="0" type="move" name="cursive15"/>
    </contour>
    <contour>
      <point x="0" y="0" type="move" name="_cursive15"/>
    </contour>
    <contour>
      <point x="0" y="0" type="move" name="cursive15"/>
    </contour>
    <contour>
      <point x="0" y="0" type="move" name="_cursive15"/>
    </contour>
    <contour>
      <point x="0" y="0" type="move" name="cursive15"/>
    </contour>
    <contour>
      <point x="0" y="0" type="move" name="_cursive15"/>
    </contour>
    <contour>
      <point x="0" y="0" type="move" name="cursive15"/>
    </contour>
    <contour>
      <point x="0" y="0" type="move" name="_cursive15"/>
    </contour>
    <contour>
      <point x="0" y="0" type="move" name="cursive15"/>
    </contour>
    <contour>
      <point x="0" y="0" type="move" name="_cursive15"/>
    </contour>
    <contour>
      <point x="0" y="0" type="move" name="cursive15"/>
    </contour>
    <contour>
      <point x="0" y="0" type="move" name="_cursive15"/>
    </contour>
    <contour>
      <point x="0" y="0" type="move" name="cursive15"/>
    </contour>
    <contour>
      <point x="0" y="0" type="move" name="_cursive15"/>
    </contour>
    <contour>
      <point x="0" y="0" type="move" name="cursive15"/>
    </contour>
    <contour>
      <point x="0" y="0" type="move" name="_cursive15"/>
    </contour>
    <contour>
      <point x="0" y="0" type="move" name="cursive15"/>
    </contour>
    <contour>
      <point x="0" y="0" type="move" name="_cursive15"/>
    </contour>
    <contour>
      <point x="0" y="0" type="move" name="cursive15"/>
    </contour>
    <contour>
      <point x="0" y="0" type="move" name="_cursive15"/>
    </contour>
    <contour>
      <point x="0" y="0" type="move" name="cursive15"/>
    </contour>
    <contour>
      <point x="0" y="0" type="move" name="_cursive15"/>
    </contour>
    <contour>
      <point x="905" y="523" type="curve"/>
      <point x="883" y="595"/>
      <point x="852" y="671"/>
      <point x="772" y="739" type="curve" smooth="yes"/>
      <point x="680" y="816"/>
      <point x="599" y="844"/>
      <point x="462" y="844" type="curve" smooth="yes"/>
      <point x="321" y="844"/>
      <point x="163" y="742"/>
      <point x="94" y="643" type="curve"/>
      <point x="178" y="584" type="line"/>
      <point x="231" y="657"/>
      <point x="361" y="739"/>
      <point x="462" y="739" type="curve" smooth="yes"/>
      <point x="573" y="739"/>
      <point x="633" y="720"/>
      <point x="705" y="659" type="curve" smooth="yes"/>
      <point x="754" y="618"/>
      <point x="782" y="571"/>
      <point x="805" y="492" type="curve" smooth="yes"/>
      <point x="825" y="425"/>
      <point x="830" y="348"/>
      <point x="818" y="272" type="curve"/>
      <point x="809" y="223"/>
      <point x="797" y="185"/>
      <point x="778" y="155" type="curve" smooth="yes"/>
      <point x="758" y="122"/>
      <point x="729" y="99"/>
      <point x="698" y="91" type="curve" smooth="yes"/>
      <point x="675" y="85"/>
      <point x="648" y="87"/>
      <point x="624" y="98" type="curve" smooth="yes"/>
      <point x="601" y="107"/>
      <point x="578" y="126"/>
      <point x="563" y="148" type="curve" smooth="yes"/>
      <point x="561" y="151"/>
      <point x="560" y="153"/>
      <point x="558" y="157" type="curve"/>
      <point x="467" y="153" type="line"/>
      <point x="449" y="119"/>
      <point x="416" y="94"/>
      <point x="379" y="89" type="curve" smooth="yes"/>
      <point x="355" y="85"/>
      <point x="331" y="87"/>
      <point x="309" y="98" type="curve"/>
      <point x="287" y="107"/>
      <point x="268" y="124"/>
      <point x="255" y="144" type="curve" smooth="yes"/>
      <point x="243" y="163"/>
      <point x="237" y="188"/>
      <point x="237" y="212" type="curve"/>
      <point x="237" y="233"/>
      <point x="244" y="253"/>
      <point x="255" y="271" type="curve"/>
      <point x="405" y="271" type="line"/>
      <point x="408" y="271" type="line" smooth="yes"/>
      <point x="431" y="271"/>
      <point x="454" y="271"/>
      <point x="478" y="279" type="curve"/>
      <point x="508" y="286"/>
      <point x="536" y="305"/>
      <point x="554" y="327" type="curve" smooth="yes"/>
      <point x="575" y="353"/>
      <point x="584" y="387"/>
      <point x="582" y="419" type="curve"/>
      <point x="580" y="451"/>
      <point x="566" y="481"/>
      <point x="544" y="504" type="curve" smooth="yes"/>
      <point x="514" y="535"/>
      <point x="471" y="552"/>
      <point x="427" y="551" type="curve" smooth="yes"/>
      <point x="376" y="550"/>
      <point x="327" y="527"/>
      <point x="294" y="488" type="curve"/>
      <point x="374" y="421" type="line"/>
      <point x="387" y="437"/>
      <point x="408" y="447"/>
      <point x="429" y="447" type="curve"/>
      <point x="445" y="447"/>
      <point x="460" y="442"/>
      <point x="468" y="432" type="curve"/>
      <point x="474" y="427"/>
      <point x="478" y="419"/>
      <point x="478" y="412" type="curve"/>
      <point x="479" y="405"/>
      <point x="477" y="397"/>
      <point x="473" y="392" type="curve" smooth="yes"/>
      <point x="468" y="386"/>
      <point x="459" y="381"/>
      <point x="451" y="379" type="curve" smooth="yes"/>
      <point x="438" y="375"/>
      <point x="422" y="375"/>
      <point x="405" y="375" type="curve" smooth="yes"/>
      <point x="31" y="375" type="line"/>
      <point x="30" y="272" type="line"/>
      <point x="142" y="271" type="line"/>
      <point x="137" y="253"/>
      <point x="133" y="233"/>
      <point x="133" y="214" type="curve"/>
      <point x="131" y="170"/>
      <point x="144" y="126"/>
      <point x="168" y="89" type="curve"/>
      <point x="191" y="50"/>
      <point x="226" y="20"/>
      <point x="265" y="2" type="curve" smooth="yes"/>
      <point x="295" y="-11"/>
      <point x="327" y="-18"/>
      <point x="359" y="-18" type="curve" smooth="yes"/>
      <point x="371" y="-18"/>
      <point x="384" y="-17"/>
      <point x="395" y="-15" type="curve"/>
      <point x="440" y="-7"/>
      <point x="482" y="15"/>
      <point x="515" y="46" type="curve"/>
      <point x="536" y="27"/>
      <point x="558" y="12"/>
      <point x="584" y="2" type="curve"/>
      <point x="628" y="-18"/>
      <point x="679" y="-22"/>
      <point x="725" y="-9" type="curve" smooth="yes"/>
      <point x="782" y="6"/>
      <point x="832" y="44"/>
      <point x="867" y="100" type="curve" smooth="yes"/>
      <point x="893" y="142"/>
      <point x="911" y="193"/>
      <point x="920" y="255" type="curve"/>
      <point x="935" y="347"/>
      <point x="929" y="440"/>
    </contour>
  </outline>
</glyph>
<glyph name="uni0DAB" format="1">
  <advance width="1066"/>
  <unicode hex="0DAB"/>
  <outline>
    <contour>
      <point x="29" y="0" type="move" name="cursive17"/>
    </contour>
    <contour>
      <point x="29" y="0" type="move" name="_cursive17"/>
    </contour>
    <contour>
      <point x="29" y="0" type="move" name="cursive17"/>
    </contour>
    <contour>
      <point x="29" y="0" type="move" name="_cursive17"/>
    </contour>
    <contour>
      <point x="29" y="0" type="move" name="cursive17"/>
    </contour>
    <contour>
      <point x="29" y="0" type="move" name="_cursive17"/>
    </contour>
    <contour>
      <point x="29" y="0" type="move" name="cursive17"/>
    </contour>
    <contour>
      <point x="29" y="0" type="move" name="_cursive17"/>
    </contour>
    <contour>
      <point x="29" y="0" type="move" name="cursive17"/>
    </contour>
    <contour>
      <point x="29" y="0" type="move" name="_cursive17"/>
    </contour>
    <contour>
      <point x="29" y="0" type="move" name="cursive17"/>
    </contour>
    <contour>
      <point x="29" y="0" type="move" name="_cursive17"/>
    </contour>
    <contour>
      <point x="29" y="0" type="move" name="cursive17"/>
    </contour>
    <contour>
      <point x="29" y="0" type="move" name="_cursive17"/>
    </contour>
    <contour>
      <point x="29" y="0" type="move" name="cursive17"/>
    </contour>
    <contour>
      <point x="29" y="0" type="move" name="_cursive17"/>
    </contour>
    <contour>
      <point x="29" y="0" type="move" name="cursive17"/>
    </contour>
    <contour>
      <point x="29" y="0" type="move" name="_cursive17"/>
    </contour>
    <contour>
      <point x="29" y="0" type="move" name="cursive17"/>
    </contour>
    <contour>
      <point x="29" y="0" type="move" name="_cursive17"/>
    </contour>
    <contour>
      <point x="29" y="0" type="move" name="cursive17"/>
    </contour>
    <contour>
      <point x="29" y="0" type="move" name="_cursive17"/>
    </contour>
    <contour>
      <point x="0" y="0" type="move" name="cursive17"/>
    </contour>
    <contour>
      <point x="0" y="0" type="move" name="_cursive17"/>
    </contour>
    <component base="uni0DB1" xOffset="29"/>
  </outline>
</glyph>
<glyph name="uni0DB1" format="1">
  <advance width="1040"/>
  <unicode hex="0DB1"/>
  <outline>
    <contour>
      <point x="0" y="0" type="move" name="cursive23"/>
    </contour>
    <contour>
      <point x="0" y="0" type="move" name="_cursive23"/>
    </contour>
    <contour>
      <point x="0" y="0" type="move" name="cursive23"/>
    </contour>
    <contour>
      <point x="0" y="0" type="move" name="_cursive23"/>
    </contour>
    <contour>
      <point x="0" y="0" type="move" name="cursive23"/>
    </contour>
    <contour>
      <point x="0" y="0" type="move" name="_cursive23"/>
    </contour>
    <contour>
      <point x="0" y="0" type="move" name="cursive23"/>
    </contour>
    <contour>
      <point x="0" y="0" type="move" name="_cursive23"/>
    </contour>
    <contour>
      <point x="0" y="0" type="move" name="cursive23"/>
    </contour>
    <contour>
      <point x="0" y="0" type="move" name="_cursive23"/>
    </contour>
    <contour>
      <point x="0" y="0" type="move" name="cursive23"/>
    </contour>
    <contour>
      <point x="0" y="0" type="move" name="_cursive23"/>
    </contour>
    <contour>
      <point x="0" y="0" type="move" name="cursive23"/>
    </contour>
    <contour>
      <point x="0" y="0" type="move" name="_cursive23"/>
    </contour>
    <contour>
      <point x="0" y="0" type="move" name="cursive23"/>
    </contour>
    <contour>
      <point x="0" y="0" type="move" name="_cursive23"/>
    </contour>
    <contour>
      <point x="0" y="0" type="move" name="cursive23"/>
    </contour>
    <contour>
      <point x="0" y="0" type="move" name="_cursive23"/>
    </contour>
    <contour>
      <point x="0" y="0" type="move" name="cursive23"/>
    </contour>
    <contour>
      <point x="0" y="0" type="move" name="_cursive23"/>
    </contour>
    <contour>
      <point x="0" y="0" type="move" name="cursive23"/>
    </contour>
    <contour>
      <point x="0" y="0" type="move" name="_cursive23"/>
    </contour>
    <contour>
      <point x="0" y="0" type="move" name="cursive23"/>
    </contour>
    <contour>
      <point x="0" y="0" type="move" name="_cursive23"/>
    </contour>
    <contour>
      <point x="747" y="398" type="curve" smooth="yes"/>
      <point x="701" y="398"/>
      <point x="661" y="384"/>
      <point x="624" y="361" type="curve"/>
      <point x="625" y="525"/>
      <point x="678" y="629"/>
      <point x="708" y="699" type="curve"/>
      <point x="433" y="699" type="line" smooth="yes"/>
      <point x="339" y="699"/>
      <point x="232" y="667"/>
      <point x="232" y="561" type="curve" smooth="yes"/>
      <point x="232" y="492"/>
      <point x="291" y="438"/>
      <point x="356" y="438" type="curve" smooth="yes"/>
      <point x="429" y="438"/>
      <point x="481" y="499"/>
      <point x="481" y="573" type="curve"/>
      <point x="386" y="573" type="line"/>
      <point x="386" y="547"/>
      <point x="373" y="532"/>
      <point x="357" y="532" type="curve" smooth="yes"/>
      <point x="339" y="532"/>
      <point x="327" y="545"/>
      <point x="327" y="562" type="curve" smooth="yes"/>
      <point x="327" y="598"/>
      <point x="395" y="606"/>
      <point x="419" y="606" type="curve" smooth="yes"/>
      <point x="567" y="606" type="line"/>
      <point x="542" y="542"/>
      <point x="530" y="489"/>
      <point x="530" y="411" type="curve"/>
      <point x="98" y="410" type="line"/>
      <point x="56" y="358"/>
      <point x="41" y="314"/>
      <point x="41" y="270" type="curve" smooth="yes"/>
      <point x="41" y="198"/>
      <point x="82" y="141"/>
      <point x="145" y="92" type="curve"/>
      <point x="182" y="61"/>
      <point x="202" y="28"/>
      <point x="202" y="3" type="curve"/>
      <point x="296" y="3" type="line"/>
      <point x="296" y="44"/>
      <point x="280" y="76"/>
      <point x="268" y="96" type="curve"/>
      <point x="230" y="161"/>
      <point x="135" y="189"/>
      <point x="135" y="271" type="curve" smooth="yes"/>
      <point x="135" y="287"/>
      <point x="139" y="302"/>
      <point x="146" y="316" type="curve"/>
      <point x="276" y="316"/>
      <point x="402" y="316"/>
      <point x="530" y="316" type="curve"/>
      <point x="530" y="198"/>
      <point x="530" y="37"/>
      <point x="530" y="2" type="curve"/>
      <point x="623" y="2" type="line"/>
      <point x="623" y="24"/>
      <point x="623" y="97"/>
      <point x="623" y="179" type="curve"/>
      <point x="624" y="179" type="line"/>
      <point x="624" y="275"/>
      <point x="703" y="304"/>
      <point x="748" y="304" type="curve" smooth="yes"/>
      <point x="821" y="304"/>
      <point x="878" y="244"/>
      <point x="878" y="168" type="curve" smooth="yes"/>
      <point x="878" y="83"/>
      <point x="818" y="11"/>
      <point x="723" y="-34" type="curve"/>
      <point x="626" y="-77"/>
      <point x="510" y="-82"/>
      <point x="397" y="-111" type="curve"/>
      <point x="284" y="-141"/>
      <point x="177" y="-198"/>
      <point x="87" y="-274" type="curve"/>
      <point x="148" y="-345" type="line"/>
      <point x="227" y="-279"/>
      <point x="321" y="-230"/>
      <point x="421" y="-203" type="curve" smooth="yes"/>
      <point x="528" y="-175"/>
      <point x="652" y="-170"/>
      <point x="762" y="-120" type="curve" smooth="yes"/>
      <point x="892" y="-61"/>
      <point x="972" y="49"/>
      <point x="972" y="168" type="curve" smooth="yes"/>
      <point x="972" y="295"/>
      <point x="882" y="398"/>
    </contour>
  </outline>
</glyph>
<glyph name="uni0DB3" format="1">
  <advance width="590"/>
  <unicode hex="0DB3"/>
  <outline>
    <contour>
      <point x="0" y="0" type="move" name="cursive24"/>
    </contour>
    <contour>
      <point x="0" y="0" type="move" name="_cursive24"/>
    </contour>
    <contour>
      <point x="0" y="0" type="move" name="cursive24"/>
    </contour>
    <contour>
      <point x="0" y="0" type="move" name="_cursive24"/>
    </contour>
    <contour>
      <point x="0" y="0" type="move" name="cursive24"/>
    </contour>
    <contour>
      <point x="0" y="0" type="move" name="_cursive24"/>
    </contour>
    <contour>
      <point x="0" y="0" type="move" name="cursive24"/>
    </contour>
    <contour>
      <point x="0" y="0" type="move" name="_cursive24"/>
    </contour>
    <contour>
      <point x="0" y="0" type="move" name="cursive24"/>
    </contour>
    <contour>
      <point x="0" y="0" type="move" name="_cursive24"/>
    </contour>
    <contour>
      <point x="0" y="0" type="move" name="cursive24"/>
    </contour>
    <contour>
      <point x="0" y="0" type="move" name="_cursive24"/>
    </contour>
    <contour>
      <point x="0" y="0" type="move" name="cursive24"/>
    </contour>
    <contour>
      <point x="0" y="0" type="move" name="_cursive24"/>
    </contour>
    <contour>
      <point x="0" y="0" type="move" name="cursive24"/>
    </contour>
    <contour>
      <point x="0" y="0" type="move" name="_cursive24"/>
    </contour>
    <contour>
      <point x="0" y="0" type="move" name="cursive24"/>
    </contour>
    <contour>
      <point x="0" y="0" type="move" name="_cursive24"/>
    </contour>
    <contour>
      <point x="0" y="0" type="move" name="cursive24"/>
    </contour>
    <contour>
      <point x="0" y="0" type="move" name="_cursive24"/>
    </contour>
    <contour>
      <point x="0" y="0" type="move" name="cursive24"/>
    </contour>
    <contour>
      <point x="0" y="0" type="move" name="_cursive24"/>
    </contour>
    <contour>
      <point x="0" y="0" type="move" name="cursive24"/>
    </contour>
    <contour>
      <point x="0" y="0" type="move" name="_cursive24"/>
    </contour>
    <component base="uni0DAF"/>
  </outline>
</glyph>
<glyph name="uni0DB8" format="1">
  <advance width="1218"/>
  <unicode hex="0DB8"/>
  <outline>
    <contour>
      <point x="0" y="0" type="move" name="cursive29"/>
    </contour>
    <contour>
      <point x="0" y="0" type="move" name="_cursive29"/>
    </contour>
    <contour>
      <point x="0" y="0" type="move" name="cursive29"/>
    </contour>
    <contour>
      <point x="0" y="0" type="move" name="_cursive29"/>
    </contour>
    <contour>
      <point x="0" y="0" type="move" name="cursive29"/>
    </contour>
    <contour>
      <point x="0" y="0" type="move" name="_cursive29"/>
    </contour>
    <contour>
      <point x="0" y="0" type="move" name="cursive29"/>
    </contour>
    <contour>
      <point x="0" y="0" type="move" name="_cursive29"/>
    </contour>
    <contour>
      <point x="0" y="0" type="move" name="cursive29"/>
    </contour>
    <contour>
      <point x="0" y="0" type="move" name="_cursive29"/>
    </contour>
    <contour>
      <point x="0" y="0" type="move" name="cursive29"/>
    </contour>
    <contour>
      <point x="0" y="0" type="move" name="_cursive29"/>
    </contour>
    <contour>
      <point x="0" y="0" type="move" name="cursive29"/>
    </contour>
    <contour>
      <point x="0" y="0" type="move" name="_cursive29"/>
    </contour>
    <contour>
      <point x="0" y="0" type="move" name="cursive29"/>
    </contour>
    <contour>
      <point x="0" y="0" type="move" name="_cursive29"/>
    </contour>
    <contour>
      <point x="0" y="0" type="move" name="cursive29"/>
    </contour>
    <contour>
      <point x="0" y="0" type="move" name="_cursive29"/>
    </contour>
    <contour>
      <point x="0" y="0" type="move" name="cursive29"/>
    </contour>
    <contour>
      <point x="0" y="0" type="move" name="_cursive29"/>
    </contour>
    <contour>
      <point x="0" y="0" type="move" name="cursive29"/>
    </contour>
    <contour>
      <point x="0" y="0" type="move" name="_cursive29"/>
    </contour>
    <contour>
      <point x="0" y="0" type="move" name="cursive29"/>
    </contour>
    <contour>
      <point x="0" y="0" type="move" name="_cursive29"/>
    </contour>
    <contour>
      <point x="485" y="196" type="line"/>
      <point x="489" y="250"/>
      <point x="520" y="293"/>
      <point x="566" y="293" type="curve" smooth="yes"/>
      <point x="592" y="293"/>
      <point x="617" y="275"/>
      <point x="617" y="249" type="curve" smooth="yes"/>
      <point x="617" y="209"/>
      <point x="567" y="195"/>
      <point x="496" y="195" type="curve"/>
    </contour>
    <contour>
      <point x="1113" y="445" type="curve"/>
      <point x="1042" y="581"/>
      <point x="890" y="672"/>
      <point x="726" y="672" type="curve" smooth="yes"/>
      <point x="602" y="672"/>
      <point x="481" y="621"/>
      <point x="397" y="533" type="curve"/>
      <point x="470" y="461" type="line"/>
      <point x="535" y="531"/>
      <point x="631" y="570"/>
      <point x="724" y="570" type="curve" smooth="yes"/>
      <point x="905" y="570"/>
      <point x="1058" y="434"/>
      <point x="1058" y="256" type="curve" smooth="yes"/>
      <point x="1058" y="96"/>
      <point x="928" y="-46"/>
      <point x="757" y="-46" type="curve" smooth="yes"/>
      <point x="654" y="-46"/>
      <point x="553" y="11"/>
      <point x="508" y="93" type="curve"/>
      <point x="509" y="93" type="line" smooth="yes"/>
      <point x="592" y="93"/>
      <point x="719" y="123"/>
      <point x="719" y="249" type="curve" smooth="yes"/>
      <point x="719" y="331"/>
      <point x="650" y="395"/>
      <point x="563" y="395" type="curve" smooth="yes"/>
      <point x="465" y="395"/>
      <point x="384" y="303"/>
      <point x="384" y="196" type="curve"/>
      <point x="155" y="199" type="line"/>
      <point x="155" y="510" type="line"/>
      <point x="53" y="510" type="line"/>
      <point x="53" y="98" type="line"/>
      <point x="397" y="94" type="line"/>
      <point x="443" y="-44"/>
      <point x="596" y="-148"/>
      <point x="758" y="-148" type="curve" smooth="yes"/>
      <point x="973" y="-148"/>
      <point x="1160" y="30"/>
      <point x="1160" y="256" type="curve" smooth="yes"/>
      <point x="1160" y="322"/>
      <point x="1145" y="387"/>
    </contour>
  </outline>
</glyph>
<glyph name="uni0DBB" format="1">
  <advance width="1056"/>
  <unicode hex="0DBB"/>
  <outline>
    <contour>
      <point x="0" y="0" type="move" name="cursive32"/>
    </contour>
    <contour>
      <point x="0" y="0" type="move" name="_cursive32"/>
    </contour>
    <contour>
      <point x="0" y="0" type="move" name="cursive32"/>
    </contour>
    <contour>
      <point x="0" y="0" type="move" name="_cursive32"/>
    </contour>
    <contour>
      <point x="0" y="0" type="move" name="cursive32"/>
    </contour>
    <contour>
      <point x="0" y="0" type="move" name="_cursive32"/>
    </contour>
    <contour>
      <point x="0" y="0" type="move" name="cursive32"/>
    </contour>
    <contour>
      <point x="0" y="0" type="move" name="_cursive32"/>
    </contour>
    <contour>
      <point x="0" y="0" type="move" name="cursive32"/>
    </contour>
    <contour>
      <point x="0" y="0" type="move" name="_cursive32"/>
    </contour>
    <contour>
      <point x="0" y="0" type="move" name="cursive32"/>
    </contour>
    <contour>
      <point x="0" y="0" type="move" name="_cursive32"/>
    </contour>
    <contour>
      <point x="0" y="0" type="move" name="cursive32"/>
    </contour>
    <contour>
      <point x="0" y="0" type="move" name="_cursive32"/>
    </contour>
    <contour>
      <point x="0" y="0" type="move" name="cursive32"/>
    </contour>
    <contour>
      <point x="0" y="0" type="move" name="_cursive32"/>
    </contour>
    <contour>
      <point x="0" y="0" type="move" name="cursive32"/>
    </contour>
    <contour>
      <point x="0" y="0" type="move" name="_cursive32"/>
    </contour>
    <contour>
      <point x="0" y="0" type="move" name="cursive32"/>
    </contour>
    <contour>
      <point x="0" y="0" type="move" name="_cursive32"/>
    </contour>
    <contour>
      <point x="0" y="0" type="move" name="cursive32"/>
    </contour>
    <contour>
      <point x="0" y="0" type="move" name="_cursive32"/>
    </contour>
    <contour>
      <point x="0" y="0" type="move" name="cursive32"/>
    </contour>
    <contour>
      <point x="0" y="0" type="move" name="_cursive32"/>
    </contour>
    <contour>
      <point x="896" y="-89" type="curve" smooth="yes"/>
      <point x="868" y="-150"/>
      <point x="800" y="-193"/>
      <point x="731" y="-193" type="curve" smooth="yes"/>
      <point x="630" y="-193"/>
      <point x="552" y="-112"/>
      <point x="552" y="-18" type="curve" smooth="yes"/>
      <point x="553" y="91"/>
      <point x="634" y="156"/>
      <point x="731" y="156" type="curve" smooth="yes"/>
      <point x="820" y="156"/>
      <point x="911" y="81"/>
      <point x="911" y="-18" type="curve" smooth="yes"/>
      <point x="911" y="-42"/>
      <point x="906" y="-67"/>
    </contour>
    <contour>
      <point x="738" y="250" type="curve" smooth="yes"/>
      <point x="712" y="250"/>
      <point x="675" y="247"/>
      <point x="625" y="224" type="curve"/>
      <point x="645" y="270"/>
      <point x="712" y="418"/>
      <point x="718" y="627" type="curve"/>
      <point x="806" y="627" type="line"/>
      <point x="819" y="722" type="line"/>
      <point x="209" y="722" type="line" smooth="yes"/>
      <point x="137" y="722"/>
      <point x="71" y="669"/>
      <point x="58" y="592" type="curve" smooth="yes"/>
      <point x="55" y="573"/>
      <point x="54" y="560"/>
      <point x="54" y="540" type="curve" smooth="yes"/>
      <point x="54" y="-17" type="line"/>
      <point x="155" y="0" type="line"/>
      <point x="155" y="540" type="line" smooth="yes"/>
      <point x="155" y="577"/>
      <point x="163" y="622"/>
      <point x="212" y="628" type="curve"/>
      <point x="628" y="628" type="line"/>
      <point x="620" y="472"/>
      <point x="571" y="319"/>
      <point x="520" y="218" type="curve" smooth="yes"/>
      <point x="469" y="117"/>
      <point x="452" y="78"/>
      <point x="450" y="-6" type="curve" smooth="yes"/>
      <point x="450" y="-14" type="line" smooth="yes"/>
      <point x="450" y="-162"/>
      <point x="563" y="-287"/>
      <point x="735" y="-287" type="curve"/>
      <point x="881" y="-286"/>
      <point x="1006" y="-180"/>
      <point x="1006" y="-16" type="curve" smooth="yes"/>
      <point x="1006" y="132"/>
      <point x="891" y="250"/>
    </contour>
  </outline>
</glyph>
<glyph name="uni0DC6" format="1">
  <advance width="995"/>
  <unicode hex="0DC6"/>
  <outline>
    <contour>
      <point x="0" y="0" type="move" name="cursive40"/>
    </contour>
    <contour>
      <point x="0" y="0" type="move" name="_cursive40"/>
    </contour>
    <contour>
      <point x="0" y="0" type="move" name="cursive40"/>
    </contour>
    <contour>
      <point x="0" y="0" type="move" name="_cursive40"/>
    </contour>
    <contour>
      <point x="0" y="0" type="move" name="cursive40"/>
    </contour>
    <contour>
      <point x="0" y="0" type="move" name="_cursive40"/>
    </contour>
    <contour>
      <point x="0" y="0" type="move" name="cursive40"/>
    </contour>
    <contour>
      <point x="0" y="0" type="move" name="_cursive40"/>
    </contour>
    <contour>
      <point x="0" y="0" type="move" name="cursive40"/>
    </contour>
    <contour>
      <point x="0" y="0" type="move" name="_cursive40"/>
    </contour>
    <contour>
      <point x="0" y="0" type="move" name="cursive40"/>
    </contour>
    <contour>
      <point x="0" y="0" type="move" name="_cursive40"/>
    </contour>
    <contour>
      <point x="0" y="0" type="move" name="cursive40"/>
    </contour>
    <contour>
      <point x="0" y="0" type="move" name="_cursive40"/>
    </contour>
    <contour>
      <point x="0" y="0" type="move" name="cursive40"/>
    </contour>
    <contour>
      <point x="0" y="0" type="move" name="_cursive40"/>
    </contour>
    <contour>
      <point x="0" y="0" type="move" name="cursive40"/>
    </contour>
    <contour>
      <point x="0" y="0" type="move" name="_cursive40"/>
    </contour>
    <contour>
      <point x="0" y="0" type="move" name="cursive40"/>
    </contour>
    <contour>
      <point x="0" y="0" type="move" name="_cursive40"/>
    </contour>
    <contour>
      <point x="0" y="0" type="move" name="cursive40"/>
    </contour>
    <contour>
      <point x="0" y="0" type="move" name="_cursive40"/>
    </contour>
    <contour>
      <point x="0" y="0" type="move" name="cursive40"/>
    </contour>
    <contour>
      <point x="0" y="0" type="move" name="_cursive40"/>
    </contour>
    <contour>
      <point x="844" y="634" type="curve"/>
      <point x="770" y="633"/>
      <point x="714" y="578"/>
      <point x="707" y="489" type="curve" smooth="yes"/>
      <point x="707" y="486" type="line"/>
      <point x="707" y="486"/>
      <point x="707" y="275"/>
      <point x="707" y="131" type="curve" smooth="yes"/>
      <point x="707" y="117"/>
      <point x="690" y="89"/>
      <point x="659" y="89" type="curve" smooth="yes"/>
      <point x="558" y="89" type="line"/>
      <point x="558" y="463" type="line"/>
      <point x="610" y="463" type="line"/>
      <point x="610" y="553" type="line"/>
      <point x="558" y="553" type="line"/>
      <point x="558" y="636"/>
      <point x="582" y="691"/>
      <point x="659" y="720" type="curve" smooth="yes"/>
      <point x="689" y="731"/>
      <point x="709" y="737"/>
      <point x="739" y="737" type="curve"/>
      <point x="739" y="827" type="line"/>
      <point x="605" y="827"/>
      <point x="493" y="740"/>
      <point x="474" y="624" type="curve" smooth="yes"/>
      <point x="470" y="600"/>
      <point x="468" y="577"/>
      <point x="468" y="553" type="curve"/>
      <point x="417" y="553" type="line"/>
      <point x="417" y="463" type="line"/>
      <point x="468" y="463" type="line"/>
      <point x="468" y="89" type="line"/>
      <point x="364" y="89" type="line"/>
      <point x="365" y="429" type="line" smooth="yes"/>
      <point x="365" y="475"/>
      <point x="351" y="542"/>
      <point x="296" y="582" type="curve" smooth="yes"/>
      <point x="268" y="601"/>
      <point x="234" y="612"/>
      <point x="200" y="612" type="curve" smooth="yes"/>
      <point x="117" y="612"/>
      <point x="40" y="549"/>
      <point x="40" y="462" type="curve" smooth="yes"/>
      <point x="40" y="387"/>
      <point x="100" y="332"/>
      <point x="166" y="332" type="curve" smooth="yes"/>
      <point x="205" y="332"/>
      <point x="241" y="352"/>
      <point x="263" y="384" type="curve"/>
      <point x="192" y="434" type="line"/>
      <point x="185" y="425"/>
      <point x="175" y="420"/>
      <point x="164" y="420" type="curve" smooth="yes"/>
      <point x="146" y="420"/>
      <point x="128" y="438"/>
      <point x="128" y="463" type="curve" smooth="yes"/>
      <point x="128" y="497"/>
      <point x="161" y="525"/>
      <point x="200" y="525" type="curve" smooth="yes"/>
      <point x="253" y="525"/>
      <point x="277" y="484"/>
      <point x="277" y="429" type="curve" smooth="yes"/>
      <point x="276" y="2" type="line"/>
      <point x="468" y="2" type="line"/>
      <point x="468" y="-123" type="line"/>
      <point x="558" y="-123" type="line"/>
      <point x="558" y="2" type="line"/>
      <point x="659" y="2" type="line" smooth="yes"/>
      <point x="739" y="2"/>
      <point x="795" y="70"/>
      <point x="795" y="131" type="curve" smooth="yes"/>
      <point x="795" y="267"/>
      <point x="795" y="463"/>
      <point x="795" y="484" type="curve"/>
      <point x="798" y="522"/>
      <point x="815" y="547"/>
      <point x="845" y="547" type="curve" smooth="yes"/>
      <point x="859" y="547"/>
      <point x="874" y="539"/>
      <point x="883" y="527" type="curve"/>
      <point x="955" y="579" type="line"/>
      <point x="928" y="614"/>
      <point x="887" y="634"/>
    </contour>
  </outline>
</glyph>
<glyph name="uni0DCA" format="1">
  <advance width="0"/>
  <unicode hex="0DCA"/>
  <outline>
    <contour>
      <point x="-97" y="838" type="curve"/>
      <point x="-102" y="822"/>
      <point x="-112" y="808"/>
      <point x="-134" y="808" type="curve" smooth="yes"/>
      <point x="-156" y="808"/>
      <point x="-171" y="824"/>
      <point x="-171" y="847" type="curve"/>
      <point x="-172" y="848" type="line"/>
      <point x="-168" y="867"/>
      <point x="-154" y="881"/>
      <point x="-134" y="881" type="curve" smooth="yes"/>
      <point x="-113" y="881"/>
      <point x="-97" y="864"/>
      <point x="-97" y="843" type="curve" smooth="yes"/>
      <point x="-97" y="842"/>
      <point x="-97" y="840"/>
    </contour>
    <contour>
      <point x="-25" y="883" type="curve"/>
      <point x="-40" y="931"/>
      <point x="-87" y="961"/>
      <point x="-135" y="961" type="curve" smooth="yes"/>
      <point x="-200" y="961"/>
      <point x="-249" y="910"/>
      <point x="-252" y="840" type="curve"/>
      <point x="-252" y="769"/>
      <point x="-205" y="708"/>
      <point x="-205" y="631" type="curve" smooth="yes"/>
      <point x="-205" y="629"/>
      <point x="-205" y="626"/>
      <point x="-205" y="624" type="curve"/>
      <point x="-126" y="622" type="line"/>
      <point x="-126" y="659"/>
      <point x="-130" y="694"/>
      <point x="-140" y="728" type="curve"/>
      <point x="-138" y="728"/>
      <point x="-136" y="728"/>
      <point x="-134" y="728" type="curve" smooth="yes"/>
      <point x="-73" y="728"/>
      <point x="-18" y="779"/>
      <point x="-18" y="843" type="curve" smooth="yes"/>
      <point x="-18" y="857"/>
      <point x="-20" y="870"/>
    </contour>
  </outline>
</glyph>
<glyph name="uni0DCF" format="1">
  <advance width="429"/>
  <unicode hex="0DCF"/>
  <outline>
    <contour>
      <point x="307" y="492" type="curve"/>
      <point x="428" y="492" type="line"/>
      <point x="428" y="580" type="line"/>
      <point x="111" y="580" type="line" smooth="yes"/>
      <point x="30" y="580"/>
      <point x="7" y="547"/>
      <point x="6" y="462" type="curve" smooth="yes"/>
      <point x="4" y="299" type="line"/>
      <point x="94" y="299" type="line"/>
      <point x="94" y="447" type="line" smooth="yes"/>
      <point x="94" y="474"/>
      <point x="99" y="492"/>
      <point x="118" y="492" type="curve" smooth="yes"/>
      <point x="169" y="492" type="line"/>
      <point x="232" y="466"/>
      <point x="263" y="407"/>
      <point x="263" y="336" type="curve" smooth="yes"/>
      <point x="263" y="323"/>
      <point x="263" y="311"/>
      <point x="262" y="298" type="curve" smooth="yes"/>
      <point x="262" y="290"/>
      <point x="259" y="220"/>
      <point x="256" y="203" type="curve" smooth="yes"/>
      <point x="243" y="133"/>
      <point x="190" y="91"/>
      <point x="119" y="91" type="curve" smooth="yes"/>
      <point x="113" y="91"/>
      <point x="106" y="90"/>
      <point x="101" y="91" type="curve"/>
      <point x="101" y="1" type="line"/>
      <point x="108" y="0"/>
      <point x="113" y="0"/>
      <point x="118" y="0" type="curve" smooth="yes"/>
      <point x="257" y="0"/>
      <point x="325" y="80"/>
      <point x="346" y="188" type="curve" smooth="yes"/>
      <point x="353" y="225"/>
      <point x="351" y="264"/>
      <point x="353" y="293" type="curve" smooth="yes"/>
      <point x="354" y="307"/>
      <point x="355" y="322"/>
      <point x="355" y="337" type="curve" smooth="yes"/>
      <point x="355" y="394"/>
      <point x="341" y="448"/>
    </contour>
  </outline>
</glyph>
<glyph name="uni0DD4" format="1">
  <advance width="0"/>
  <unicode hex="0DD4"/>
  <outline>
    <contour>
      <point x="-43" y="-256" type="line"/>
      <point x="-457" y="-256" type="line" smooth="yes"/>
      <point x="-530" y="-256"/>
      <point x="-604" y="-220"/>
      <point x="-604" y="-131" type="curve" smooth="yes"/>
      <point x="-604" y="-102"/>
      <point x="-594" y="-73"/>
      <point x="-576" y="-50" type="curve"/>
      <point x="-510" y="-103" type="line"/>
      <point x="-516" y="-111"/>
      <point x="-519" y="-121"/>
      <point x="-519" y="-132" type="curve" smooth="yes"/>
      <point x="-519" y="-164"/>
      <point x="-491" y="-172"/>
      <point x="-457" y="-172" type="curve" smooth="yes"/>
      <point x="-108" y="-172" type="line"/>
      <point x="-102" y="-144"/>
      <point x="-99" y="-116"/>
      <point x="-99" y="-87" type="curve" smooth="yes"/>
      <point x="-99" y="-37"/>
      <point x="-108" y="14"/>
      <point x="-125" y="62" type="curve"/>
      <point x="-45" y="90" type="line"/>
      <point x="-25" y="34"/>
      <point x="-15" y="-27"/>
      <point x="-15" y="-87" type="curve" smooth="yes"/>
      <point x="-15" y="-133"/>
      <point x="-21" y="-180"/>
      <point x="-34" y="-225" type="curve" smooth="yes"/>
    </contour>
  </outline>
</glyph>
<glyph name="uni0DD9" format="1">
  <advance width="821"/>
  <unicode hex="0DD9"/>
  <outline>
    <contour>
      <point x="305" y="222" type="curve" smooth="yes"/>
      <point x="269" y="222"/>
      <point x="235" y="191"/>
      <point x="235" y="154" type="curve" smooth="yes"/>
      <point x="235" y="115"/>
      <point x="265" y="82"/>
      <point x="305" y="82" type="curve" smooth="yes"/>
      <point x="346" y="82"/>
      <point x="375" y="115"/>
      <point x="375" y="153" type="curve" smooth="yes"/>
      <point x="375" y="190"/>
      <point x="344" y="222"/>
    </contour>
    <contour>
      <point x="300" y="-9" type="curve" smooth="yes"/>
      <point x="222" y="-9"/>
      <point x="152" y="37"/>
      <point x="101" y="118" type="curve" smooth="yes"/>
      <point x="61" y="182"/>
      <point x="39" y="256"/>
      <point x="39" y="330" type="curve" smooth="yes"/>
      <point x="39" y="524"/>
      <point x="188" y="698"/>
      <point x="389" y="698" type="curve" smooth="yes"/>
      <point x="601" y="698"/>
      <point x="787" y="531"/>
      <point x="787" y="251" type="curve"/>
      <point x="692" y="279" type="line"/>
      <point x="692" y="448"/>
      <point x="563" y="605"/>
      <point x="394" y="605" type="curve" smooth="yes"/>
      <point x="250" y="605"/>
      <point x="137" y="494"/>
      <point x="137" y="330" type="curve" smooth="yes"/>
      <point x="137" y="280"/>
      <point x="140" y="246"/>
      <point x="165" y="201" type="curve"/>
      <point x="180" y="264"/>
      <point x="235" y="307"/>
      <point x="305" y="307" type="curve" smooth="yes"/>
      <point x="392" y="307"/>
      <point x="462" y="248"/>
      <point x="462" y="147" type="curve" smooth="yes"/>
      <point x="462" y="54"/>
      <point x="396" y="-9"/>
    </contour>
  </outline>
</glyph>
